<?xml version="1.0" encoding="UTF-8" standalone="no"?>
<svg
   xmlns:dc="http://purl.org/dc/elements/1.1/"
   xmlns:cc="http://creativecommons.org/ns#"
   xmlns:rdf="http://www.w3.org/1999/02/22-rdf-syntax-ns#"
   xmlns:svg="http://www.w3.org/2000/svg"
   xmlns="http://www.w3.org/2000/svg"
   xmlns:sodipodi="http://sodipodi.sourceforge.net/DTD/sodipodi-0.dtd"
   xmlns:inkscape="http://www.inkscape.org/namespaces/inkscape"
   sodipodi:docname="最大矩形面积.svg"
   inkscape:version="1.0 (4035a4fb49, 2020-05-01)"
   id="svg8"
   version="1.1"
   viewBox="0 0 210 200"
   height="200mm"
   width="210mm">
  <defs
     id="defs2" />
  <sodipodi:namedview
     inkscape:window-maximized="1"
     inkscape:window-y="-11"
     inkscape:window-x="-11"
     inkscape:window-height="1506"
     inkscape:window-width="2560"
     showgrid="false"
     inkscape:document-rotation="0"
     inkscape:current-layer="layer1"
     inkscape:document-units="mm"
     inkscape:cy="617.09423"
     inkscape:cx="959.8045"
     inkscape:zoom="0.49497475"
     inkscape:pageshadow="2"
     inkscape:pageopacity="0.0"
     borderopacity="1.0"
     bordercolor="#666666"
     pagecolor="#ffffff"
     id="base" />
  <metadata
     id="metadata5">
    <rdf:RDF>
      <cc:Work
         rdf:about="">
        <dc:format>image/svg+xml</dc:format>
        <dc:type
           rdf:resource="http://purl.org/dc/dcmitype/StillImage" />
        <dc:title></dc:title>
      </cc:Work>
    </rdf:RDF>
  </metadata>
  <g
     id="layer1"
     inkscape:groupmode="layer"
     inkscape:label="图层 1">
    <path
       id="path847"
       d="M 4.3715522,101.30465 V 20.606801 H 105.31011 206.24865 v 80.697849 80.69791 H 105.31011 4.3715522 Z m 0.9921078,50.4888 c -0.039988,-5.43139 -0.072724,-1.06464 -0.072747,9.70391 -2.33e-5,10.76854 0.032694,15.21241 0.072705,9.87526 0.040011,-5.33715 0.04003,-14.14778 4.2e-5,-19.57917 z m 39.489144,9.04245 v -19.31459 l -19.248438,-7e-5 -19.2484387,-7e-5 v 19.31448 19.31448 l 19.2484387,1.7e-4 19.248438,1.8e-4 z m -19.579167,1.8677 c 0,-2.64486 -0.103007,-4.28138 -0.276219,-4.38844 -0.15192,-0.0939 -0.569374,0.0214 -0.927675,0.25614 -0.358301,0.23477 -0.948377,0.53974 -1.311281,0.67772 -0.618888,0.2353 -0.659796,0.19792 -0.659352,-0.60248 3.97e-4,-0.7255 0.181962,-0.96801 1.211824,-1.61866 0.666243,-0.42092 1.51529,-1.2246 1.88677,-1.78594 0.52285,-0.79008 0.846776,-1.02063 1.434009,-1.02063 h 0.758591 v 6.35 6.35 H 26.33197 25.273637 Z m 59.202251,-1.80156 -0.06787,-19.24843 -19.248438,-0.0679 -19.248438,-0.0679 v 19.31631 19.31631 H 65.22745 84.543761 Z m -20.991537,5.76293 c -0.302911,-0.12254 -0.859769,-0.59005 -1.237465,-1.03892 -1.925904,-2.28881 -1.482434,-9.31805 0.677143,-10.73305 1.683068,-1.10279 4.190212,-0.60536 5.202254,1.03216 1.147596,1.85685 1.286785,6.45655 0.26648,8.80629 -0.792435,1.82495 -3.013776,2.69998 -4.908412,1.93352 z m 2.967196,-2.56522 c 0.614191,-1.46996 0.421844,-6.70172 -0.274645,-7.47021 -0.694087,-0.76585 -1.593242,-0.70016 -2.274711,0.16619 -0.525166,0.66764 -0.561678,0.97514 -0.482224,4.06133 0.09681,3.7603 0.281257,4.21217 1.71936,4.21217 0.794391,0 0.957496,-0.1205 1.31222,-0.96948 z m 57.776273,-3.13329 v -19.18402 l -19.24844,0.0679 -19.248449,0.0679 -0.06789,19.11615 -0.06788,19.11614 h 19.316329 19.31633 z m -21.05596,5.69851 c -0.94521,-0.38238 -1.91019,-1.79483 -2.24338,-3.28368 -0.44246,-1.97709 -0.20924,-5.28358 0.48229,-6.83781 1.30501,-2.93302 4.84281,-3.08954 6.47977,-0.28668 1.12018,1.91801 1.14528,6.72418 0.0462,8.84953 -0.77683,1.50223 -3.05901,2.24874 -4.7649,1.55864 z m 2.69255,-2.15322 c 0.44114,-0.48792 0.50403,-0.98607 0.50403,-3.99235 0,-3.31414 -0.0225,-3.45308 -0.6401,-3.95297 -0.82774,-0.66997 -1.55073,-0.54542 -2.24377,0.38655 -0.48714,0.65508 -0.55571,1.11362 -0.55571,3.71584 0,2.39631 0.0904,3.10656 0.46912,3.68448 0.58229,0.88865 1.73906,0.96297 2.46643,0.15845 z m 57.9865,-3.61143 0.0679,-19.11788 -19.25018,0.0679 -19.25018,0.0679 -0.0679,19.11787 -0.0679,19.11788 19.25018,-0.0679 19.25018,-0.0679 z m -19.77934,1.65537 c 0,-2.40109 -0.0635,-4.36563 -0.14109,-4.36563 -0.0776,0 -0.72998,0.29842 -1.44974,0.66315 l -1.30866,0.66315 -0.17896,-0.71305 c -0.14105,-0.56197 -0.0525,-0.80059 0.41793,-1.12617 1.24454,-0.86136 2.91117,-2.46595 3.06514,-2.95106 0.11663,-0.36748 0.40721,-0.50477 1.06842,-0.50477 h 0.90821 v 6.35 6.35 h -1.19063 -1.19062 z m 59.53125,-1.72152 v -19.31631 l -19.24844,0.0679 -19.24844,0.0679 -0.0679,19.24843 -0.0679,19.24844 h 19.31631 19.31631 z m -21.60422,5.54366 c -1.4473,-0.92719 -1.81141,-2.06776 -1.81141,-5.67422 0,-3.64356 0.40013,-4.84628 1.95736,-5.88349 1.80418,-1.20169 4.12525,-0.46163 5.18639,1.65365 0.43756,0.87221 0.52917,1.58284 0.52917,4.10458 0,3.53704 -0.45084,4.94778 -1.85939,5.81831 -1.11635,0.68994 -2.90893,0.68151 -4.00212,-0.0188 z m 3.27572,-2.02457 c 0.61679,-0.94133 0.68152,-6.21538 0.0899,-7.32091 -0.7079,-1.32273 -2.4552,-1.13604 -2.85876,0.30545 -0.11086,0.39599 -0.20156,1.97557 -0.20156,3.51019 0,2.22575 0.0949,2.93496 0.46912,3.50573 0.64635,0.98583 1.85525,0.98561 2.50134,-5.3e-4 z M 44.852804,121.1484 V 101.83382 H 25.515264 6.177723 l 0.1424922,2.05052 c 0.078371,1.12778 0.1482323,9.81935 0.155248,19.31458 l 0.012756,17.26406 H 25.670512 44.852804 Z m -19.402778,6.17361 c -0.09701,-0.097 -0.176389,-2.05452 -0.176389,-4.35001 0,-4.14728 -0.148131,-4.85046 -0.891779,-4.23329 -0.186687,0.15494 -0.776784,0.46444 -1.311326,0.68779 l -0.971895,0.40608 0.002,-0.86344 c 0.0017,-0.73154 0.166248,-0.95724 1.076878,-1.47734 0.591161,-0.33763 1.446601,-1.1413 1.900977,-1.78593 0.642738,-0.91186 0.991044,-1.17205 1.568957,-1.17205 h 0.742818 v 6.48229 6.48229 h -0.881945 c -0.485069,0 -0.961319,-0.0794 -1.058333,-0.17639 z m 58.957988,-6.17361 v -19.18229 l -19.248438,-0.0679 -19.248438,-0.0679 v 19.13997 c 0,10.52696 0.08015,19.22007 0.178115,19.31804 0.09796,0.098 8.759761,0.14757 19.248438,0.11024 l 19.070323,-0.0679 z m -19.270486,6.17361 c -0.09701,-0.097 -0.178213,-1.97225 -0.18044,-4.16719 -0.0042,-4.11016 -0.176808,-5.00612 -0.855972,-4.44246 -0.204153,0.16943 -0.808541,0.49079 -1.343084,0.71414 l -0.971894,0.40608 5.29e-4,-0.86344 c 5.3e-4,-0.73749 0.177179,-0.97509 1.211824,-1.62876 0.666242,-0.42092 1.51529,-1.22459 1.88677,-1.78594 0.522793,-0.79008 0.84672,-1.02062 1.433955,-1.02062 h 0.758589 v 6.48229 6.48229 h -0.881943 c -0.485072,0 -0.961322,-0.0794 -1.058334,-0.17639 z m 59.206082,12.69169 c 0.0948,-0.2471 0.15518,-8.93867 0.13414,-19.31458 l -0.0383,-18.8653 H 105.01907 85.598639 v 19.31458 19.31458 h 19.286281 c 17.89914,0 19.29868,-0.0323 19.45869,-0.44928 z m -19.62882,-12.69053 c -0.24493,-0.0988 -0.33072,-1.21445 -0.33072,-4.30064 0,-2.29195 -0.062,-4.22914 -0.13768,-4.30486 -0.0757,-0.0757 -0.69316,0.14354 -1.37209,0.48726 -0.94912,0.48051 -1.28327,0.548 -1.44578,0.29202 -0.41977,-0.66121 -0.20267,-1.22618 0.68102,-1.77233 0.98611,-0.60945 2.80369,-2.50696 2.80369,-2.92698 0,-0.14511 0.41672,-0.26382 0.92604,-0.26382 h 0.92605 v 6.48229 6.48229 l -0.8599,-0.0209 c -0.47294,-0.0115 -1.00872,-0.0809 -1.19063,-0.15434 z m 59.20053,-6.17651 v -19.31632 l -19.11615,0.0679 -19.11615,0.0679 -0.0679,19.24843 -0.0679,19.24844 h 19.18402 19.18402 z m -19.65477,6.18794 c -0.10394,-0.10394 -0.18898,-2.05429 -0.18898,-4.33412 0,-2.27983 -0.062,-4.20709 -0.13768,-4.28281 -0.0757,-0.0757 -0.68637,0.1401 -1.357,0.47962 -1.36069,0.68887 -1.68032,0.62987 -1.68032,-0.31014 0,-0.45601 0.29126,-0.8264 1.00338,-1.27594 1.05374,-0.66519 2.70078,-2.38617 2.70078,-2.82202 0,-0.14046 0.41884,-0.25537 0.93075,-0.25537 h 0.93075 l -0.0709,6.41614 -0.0708,6.41615 -0.9355,0.0787 c -0.51453,0.0433 -1.02054,-0.006 -1.12448,-0.11024 z m 59.27785,-6.25409 0.0679,-19.25017 -19.11788,0.0679 -19.11787,0.0679 -0.0685,18.91771 c -0.0377,10.40473 -0.0113,19.06732 0.0585,19.25019 0.10064,0.26353 4.06557,0.3184 19.11846,0.26458 l 18.99149,-0.0679 z m -19.59035,6.25409 c -0.10394,-0.10394 -0.18898,-2.05429 -0.18898,-4.33412 0,-2.27983 -0.0695,-4.21462 -0.15442,-4.29955 -0.0849,-0.0849 -0.53141,0.0616 -0.99218,0.32561 -0.46078,0.26401 -1.10567,0.5598 -1.43309,0.65731 -0.52364,0.15595 -0.59531,0.0826 -0.59531,-0.60947 0,-0.64218 0.24587,-0.9634 1.33795,-1.74798 0.73588,-0.52868 1.58107,-1.37328 1.87822,-1.87691 0.44878,-0.76062 0.69344,-0.91567 1.44487,-0.91567 h 0.90462 l -0.0709,6.41614 -0.0708,6.41615 -0.9355,0.0787 c -0.51453,0.0433 -1.02054,-0.006 -1.12448,-0.11024 z M 5.3636557,111.8413 c -0.04008,-5.28583 -0.072892,-1.03811 -0.072916,9.43939 -2.44e-5,10.4775 0.032768,14.80228 0.072872,9.61061 0.040104,-5.19166 0.040124,-13.76416 4.4e-5,-19.05 z M 44.788386,81.527112 44.720516,62.278675 25.444345,62.210795 6.1681741,62.142915 6.3168469,64.195172 c 0.08177,1.128741 0.1537809,9.821084 0.160024,19.316318 l 0.011351,17.264 h 19.1840211 19.18402 z m -19.33836,6.10747 c -0.09701,-0.097 -0.176389,-2.041705 -0.176389,-4.321532 0,-2.279828 -0.07438,-4.219514 -0.16528,-4.31042 -0.0909,-0.0909 -0.715034,0.127378 -1.386957,0.485071 -1.541966,0.820852 -1.622763,0.814949 -1.622763,-0.118581 0,-0.618662 0.256174,-0.952976 1.310848,-1.710682 0.720966,-0.517961 1.521888,-1.273273 1.779826,-1.678466 0.59378,-0.932762 0.866348,-1.124506 1.60568,-1.129538 l 0.595313,-0.0041 v 6.482292 6.482296 h -0.881945 c -0.485069,0 -0.961319,-0.0794 -1.058333,-0.17639 z M 84.408014,81.460966 V 62.278675 l -19.248438,-0.06787 -19.248438,-0.06787 v 19.139921 c 0,10.526932 0.08015,19.220014 0.178115,19.317974 0.09796,0.098 8.759761,0.14757 19.248438,0.11024 l 19.070323,-0.0679 z m -21.102696,5.776138 c -1.648675,-0.979837 -2.181342,-2.425475 -2.177053,-5.908429 0.0045,-3.659751 0.563375,-5.074841 2.344812,-5.937221 1.333748,-0.645657 1.664626,-0.665395 2.850184,-0.170037 1.969344,0.822843 2.690683,2.453605 2.705865,6.117278 0.0096,2.305417 -0.07482,2.827271 -0.639429,3.954996 -1.158179,2.313301 -3.168857,3.081835 -5.084379,1.943413 z m 2.750989,-1.783461 c 0.57944,-0.468691 0.630978,-0.723932 0.71247,-3.528439 0.06672,-2.296059 -0.01122,-3.260309 -0.324069,-4.009043 -0.383628,-0.918154 -0.480084,-0.980183 -1.404679,-0.903335 -1.398585,0.116245 -1.65772,0.775975 -1.662491,4.232479 -0.0043,3.144665 0.231921,4.083856 1.116733,4.439327 0.838864,0.33701 0.864512,0.333216 1.562036,-0.230989 z m 58.229383,-0.486947 c 0.0318,-8.69487 0.0579,-17.356667 0.058,-19.248438 l 1.2e-4,-3.439583 -19.37257,-0.05208 -19.372581,-0.05208 v 19.124128 c 0,10.518245 0.07937,19.203437 0.17639,19.300447 0.09701,0.097 8.788575,0.17639 19.314591,0.17639 h 19.1382 z m -19.72523,2.667886 c -0.097,-0.097 -0.17639,-2.061549 -0.17639,-4.36563 0,-2.5277 -0.10171,-4.189236 -0.25644,-4.189236 -0.14104,0 -0.74793,0.256183 -1.34865,0.569294 -0.91076,0.474715 -1.13122,0.507682 -1.32701,0.198437 -0.47399,-0.748633 -0.21133,-1.230688 1.2003,-2.202915 0.79377,-0.546688 1.68272,-1.399916 1.97546,-1.896063 0.41961,-0.711197 0.70209,-0.902086 1.33491,-0.902086 h 0.80268 v 6.482292 6.482287 h -1.01424 c -0.55783,0 -1.09361,-0.0794 -1.19062,-0.17638 z m 59.2955,-5.644449 c 0.0401,-10.259218 0.007,-18.9246 -0.0732,-19.256406 l -0.14612,-0.603282 -18.97681,0.07412 -18.97682,0.07411 -0.0685,18.917708 c -0.0376,10.404715 -0.0113,19.067257 0.0585,19.250127 0.10064,0.26353 4.06557,0.3184 19.11846,0.26458 l 18.99149,-0.0679 z m -19.608,5.644449 c -0.097,-0.097 -0.17639,-2.041705 -0.17639,-4.321532 0,-2.279828 -0.0759,-4.220996 -0.16857,-4.313711 -0.0927,-0.09272 -0.49691,0.06522 -0.8982,0.350962 -0.40128,0.285744 -1.01004,0.550116 -1.35278,0.587496 -0.49369,0.05384 -0.63955,-0.0728 -0.70205,-0.609542 -0.0642,-0.551389 0.15748,-0.838795 1.19094,-1.544023 0.69841,-0.476589 1.60965,-1.339271 2.02498,-1.917073 0.60133,-0.836557 0.89768,-1.034042 1.45489,-0.969515 l 0.69975,0.08103 0.0708,6.416146 0.0709,6.416142 h -1.01894 c -0.56042,0 -1.09832,-0.0794 -1.19533,-0.17639 z m 59.29044,-6.242812 0.0679,-19.251488 -18.721,0.01005 c -10.29655,0.0055 -18.98889,0.08031 -19.31632,0.166201 l -0.59531,0.156157 v 18.975047 c 0,10.436251 0.0801,19.055133 0.17812,19.153093 0.098,0.098 8.75976,0.14757 19.24843,0.11024 l 19.07033,-0.0679 z m -19.60294,6.242812 c -0.097,-0.097 -0.17639,-2.041705 -0.17639,-4.321532 0,-2.279828 -0.0695,-4.214625 -0.15442,-4.299553 -0.0849,-0.08493 -0.53141,0.0616 -0.99218,0.325612 -0.46078,0.264011 -1.10567,0.559802 -1.43309,0.657312 -0.52582,0.156594 -0.59531,0.08326 -0.59531,-0.628192 0,-0.593183 0.19177,-0.924132 0.7276,-1.255657 1.07789,-0.666906 2.71198,-2.265688 2.71198,-2.653387 0,-0.395095 1.14213,-0.738791 1.7192,-0.517348 0.33831,0.12982 0.39747,1.09887 0.39747,6.510827 v 6.358298 h -1.01424 c -0.55783,0 -1.09361,-0.0794 -1.19062,-0.17638 z M 5.3636557,72.153869 c -0.04008,-5.285835 -0.072892,-1.038111 -0.072916,9.439389 -2.44e-5,10.477477 0.032768,14.802233 0.072872,9.610593 0.040104,-5.191647 0.040124,-13.764146 4.4e-5,-19.049982 z M 44.852804,41.90925 V 22.730449 l -18.719271,-0.06964 c -10.295599,-0.0383 -18.986201,-0.03172 -19.3124469,0.01463 -0.5287043,0.07511 -0.5806793,0.204514 -0.4782084,1.190625 0.063231,0.608496 0.1218005,9.232372 0.1301537,19.164169 l 0.015187,18.057812 H 25.670512 44.852804 Z m -19.579167,1.848592 c 0,-2.871721 -0.09504,-4.365625 -0.277722,-4.365625 -0.152748,0 -0.599232,0.163511 -0.992188,0.363357 -0.392956,0.199845 -0.982356,0.445994 -1.309777,0.546996 -0.527521,0.162728 -0.595313,0.0916 -0.595313,-0.624621 0,-0.649359 0.199373,-0.934119 1.014123,-1.448448 1.035473,-0.653665 2.42546,-2.121758 2.42546,-2.56175 0,-0.134356 0.416719,-0.244284 0.926042,-0.244284 h 0.926042 v 6.35 6.35 H 26.33197 25.273637 Z M 84.540306,41.905759 V 22.723468 l -18.256251,-0.0441 C 56.243117,22.655118 47.58132,22.625348 47.035617,22.613228 l -0.992188,-0.02205 -0.06846,18.917708 c -0.03765,10.404739 -0.01162,19.066536 0.05784,19.248437 0.09944,0.260382 4.208171,0.330729 19.316899,0.330729 h 19.190595 z m -21.229898,5.672024 c -1.685816,-0.890048 -2.17225,-2.198443 -2.157923,-5.804316 0.01323,-3.329621 0.309552,-4.386448 1.557909,-5.55625 0.598879,-0.561195 0.95912,-0.661458 2.376575,-0.661458 1.295855,0 1.804273,0.118725 2.266053,0.529167 1.413693,1.256522 2.086753,4.503943 1.583463,7.639991 -0.380006,2.367854 -0.845418,3.217475 -2.118175,3.866788 -1.296591,0.661471 -2.235714,0.657743 -3.507902,-0.01392 z m 2.866494,-1.862538 c 0.734544,-0.810488 0.893066,-6.09888 0.225014,-7.506691 -0.413977,-0.872391 -0.542977,-0.953234 -1.405236,-0.880642 -1.429848,0.120377 -1.651958,0.775985 -1.564193,4.617062 0.06226,2.724726 0.150201,3.298902 0.577472,3.770312 0.643429,0.7099 1.523539,0.709883 2.166943,-4.1e-5 z m 57.986508,-3.875632 0.0679,-19.116145 -18.05956,-0.0222 c -9.93276,-0.01221 -18.625106,-0.07477 -19.31633,-0.139034 l -1.256771,-0.116836 v 19.144936 c 0,10.529715 0.08015,19.225088 0.178115,19.323052 0.09797,0.09797 8.759762,0.147574 19.248446,0.110244 l 19.07032,-0.06787 z m -19.60295,6.107464 c -0.097,-0.09701 -0.17639,-2.061544 -0.17639,-4.365624 0,-4.424809 -0.0598,-4.61578 -1.1979,-3.828 -0.28704,0.198679 -0.78979,0.444828 -1.11721,0.546996 -0.52554,0.16399 -0.59531,0.09355 -0.59531,-0.600999 0,-0.638862 0.24372,-0.961855 1.29648,-1.718188 0.71306,-0.512284 1.51264,-1.297359 1.77683,-1.74461 0.38119,-0.645293 0.65978,-0.813185 1.34936,-0.813185 h 0.869 v 6.35 6.35 h -1.01424 c -0.55783,0 -1.09361,-0.07937 -1.19062,-0.17639 z m 59.29045,-6.107464 0.0679,-19.116145 H 146.2288 c -9.72951,0 -18.42186,-0.07649 -19.31633,-0.169984 l -1.62631,-0.169983 v 19.175886 c 0,10.546737 0.0802,19.256037 0.17811,19.354001 0.098,0.09797 8.75977,0.147574 19.24844,0.110244 l 19.07033,-0.06787 z m -21.39386,5.685049 c -1.41435,-0.942044 -1.92537,-2.283331 -2.03995,-5.35432 -0.16836,-4.512301 1.12243,-6.746875 3.89727,-6.746875 2.76078,0 4.0461,1.960455 4.04887,6.175625 8e-4,1.187313 -0.13149,2.649223 -0.29394,3.248689 -0.76734,2.831633 -3.45515,4.11364 -5.61225,2.676881 z m 2.91836,-1.763373 c 0.65412,-0.654122 0.90782,-2.383786 0.76072,-5.186409 -0.13186,-2.512281 -0.56957,-3.299329 -1.83489,-3.299329 -1.12626,0 -1.58664,0.930159 -1.74908,3.533858 -0.1551,2.485921 0.26736,4.792113 0.95093,5.191218 0.68091,0.397548 1.31671,0.316273 1.87232,-0.239338 z m 58.22729,-3.921676 -1.2e-4,-19.248437 h -19.31453 -19.31453 l 6e-5,19.248437 7e-5,19.248437 h 19.31458 19.31459 z m -21.44385,5.687642 c -1.66058,-1.119067 -1.97166,-2.026865 -1.97166,-5.753788 0,-3.750643 0.38051,-4.966626 1.83091,-5.851081 1.07951,-0.658286 2.89483,-0.646556 3.98262,0.02573 1.40924,0.870955 1.85939,2.279177 1.85939,5.816775 0,2.523277 -0.0916,3.233813 -0.52917,4.106121 -1.05944,2.111904 -3.38897,2.857881 -5.17209,1.656239 z m 2.90138,-1.763281 c 0.97355,-0.973555 1.10159,-6.417957 0.18388,-7.818574 -0.60603,-0.924911 -1.83948,-0.917905 -2.45003,0.01392 -0.51459,0.785364 -0.7931,4.135582 -0.50404,6.06316 0.3012,2.008575 1.65318,2.858505 2.77019,1.741497 z M 25.141345,21.662573 44.720513,21.52772 24.942908,21.464136 5.1653022,21.400551 5.2288869,41.178155 5.2924715,60.955759 5.4273244,41.376592 5.5621772,21.797426 Z m 49.82728,-0.195748 c -5.191665,-0.0401 -13.764165,-0.04012 -19.050001,-4.4e-5 -5.285835,0.04008 -1.038111,0.07289 9.439389,0.07292 10.477501,2.5e-5 14.802277,-0.03277 9.610612,-0.07287 z m 39.687515,0 c -5.19167,-0.0401 -13.76418,-0.04012 -19.050014,-4.4e-5 -5.285836,0.04008 -1.038112,0.07289 9.439394,0.07292 10.4775,2.5e-5 14.80228,-0.03277 9.61062,-0.07287 z m 39.6875,0 c -5.19167,-0.0401 -13.76417,-0.04012 -19.05,-4.4e-5 -5.28584,0.04008 -1.03812,0.07289 9.43939,0.07292 10.4775,2.5e-5 14.80227,-0.03277 9.61061,-0.07287 z m 40.30996,-4.8e-5 c -5.43139,-0.03999 -14.24202,-0.03997 -19.57917,4.2e-5 -5.33715,0.04001 -0.89328,0.07273 9.87526,0.07271 10.76855,-2.3e-5 15.1353,-0.03276 9.70391,-0.07275 z"
       style="fill:#000000;stroke-width:1" />
  </g>
</svg>
