<?xml version="1.0" encoding="UTF-8" standalone="no"?>
<svg
   xmlns:dc="http://purl.org/dc/elements/1.1/"
   xmlns:cc="http://creativecommons.org/ns#"
   xmlns:rdf="http://www.w3.org/1999/02/22-rdf-syntax-ns#"
   xmlns:svg="http://www.w3.org/2000/svg"
   xmlns="http://www.w3.org/2000/svg"
   xmlns:sodipodi="http://sodipodi.sourceforge.net/DTD/sodipodi-0.dtd"
   xmlns:inkscape="http://www.inkscape.org/namespaces/inkscape"
   sodipodi:docname="final.svg"
   inkscape:version="1.0 (4035a4fb49, 2020-05-01)"
   id="svg8"
   version="1.1"
   viewBox="0 0 210 230"
   height="230mm"
   width="210mm">
  <defs
     id="defs2">
    <marker
       inkscape:isstock="true"
       style="overflow:visible"
       id="marker2277"
       refX="0"
       refY="0"
       orient="auto"
       inkscape:stockid="Arrow1Mend">
      <path
         transform="matrix(-0.4,0,0,-0.4,-4,0)"
         style="fill:#000000;fill-opacity:1;fill-rule:evenodd;stroke:#000000;stroke-width:1pt;stroke-opacity:1"
         d="M 0,0 5,-5 -12.5,0 5,5 Z"
         id="path2275" />
    </marker>
    <marker
       inkscape:collect="always"
       inkscape:stockid="Arrow1Mend"
       orient="auto"
       refY="0"
       refX="0"
       id="marker2223"
       style="overflow:visible"
       inkscape:isstock="true">
      <path
         id="path2221"
         d="M 0,0 5,-5 -12.5,0 5,5 Z"
         style="fill:#000000;fill-opacity:1;fill-rule:evenodd;stroke:#000000;stroke-width:1pt;stroke-opacity:1"
         transform="matrix(-0.4,0,0,-0.4,-4,0)" />
    </marker>
    <marker
       inkscape:collect="always"
       inkscape:isstock="true"
       style="overflow:visible"
       id="marker1767"
       refX="0"
       refY="0"
       orient="auto"
       inkscape:stockid="Arrow1Mend">
      <path
         transform="matrix(-0.4,0,0,-0.4,-4,0)"
         style="fill:#000000;fill-opacity:1;fill-rule:evenodd;stroke:#000000;stroke-width:1pt;stroke-opacity:1"
         d="M 0,0 5,-5 -12.5,0 5,5 Z"
         id="path1765" />
    </marker>
    <marker
       inkscape:collect="always"
       inkscape:stockid="Arrow1Mend"
       orient="auto"
       refY="0"
       refX="0"
       id="marker1433"
       style="overflow:visible"
       inkscape:isstock="true">
      <path
         id="path1431"
         d="M 0,0 5,-5 -12.5,0 5,5 Z"
         style="fill:#000000;fill-opacity:1;fill-rule:evenodd;stroke:#000000;stroke-width:1pt;stroke-opacity:1"
         transform="matrix(-0.4,0,0,-0.4,-4,0)" />
    </marker>
    <marker
       inkscape:stockid="Arrow1Mend"
       orient="auto"
       refY="0"
       refX="0"
       id="marker1299"
       style="overflow:visible"
       inkscape:isstock="true">
      <path
         id="path1297"
         d="M 0,0 5,-5 -12.5,0 5,5 Z"
         style="fill:#000000;fill-opacity:1;fill-rule:evenodd;stroke:#000000;stroke-width:1pt;stroke-opacity:1"
         transform="matrix(-0.4,0,0,-0.4,-4,0)" />
    </marker>
    <marker
       inkscape:collect="always"
       inkscape:isstock="true"
       style="overflow:visible"
       id="marker1251"
       refX="0"
       refY="0"
       orient="auto"
       inkscape:stockid="Arrow1Mend">
      <path
         transform="matrix(-0.4,0,0,-0.4,-4,0)"
         style="fill:#000000;fill-opacity:1;fill-rule:evenodd;stroke:#000000;stroke-width:1pt;stroke-opacity:1"
         d="M 0,0 5,-5 -12.5,0 5,5 Z"
         id="path1249" />
    </marker>
    <marker
       inkscape:collect="always"
       inkscape:stockid="Arrow1Mend"
       orient="auto"
       refY="0"
       refX="0"
       id="marker1169"
       style="overflow:visible"
       inkscape:isstock="true">
      <path
         id="path1167"
         d="M 0,0 5,-5 -12.5,0 5,5 Z"
         style="fill:#000000;fill-opacity:1;fill-rule:evenodd;stroke:#000000;stroke-width:1pt;stroke-opacity:1"
         transform="matrix(-0.4,0,0,-0.4,-4,0)" />
    </marker>
  </defs>
  <sodipodi:namedview
     inkscape:window-maximized="1"
     inkscape:window-y="-11"
     inkscape:window-x="-11"
     inkscape:window-height="1506"
     inkscape:window-width="2560"
     showgrid="false"
     inkscape:document-rotation="0"
     inkscape:current-layer="layer1"
     inkscape:document-units="mm"
     inkscape:cy="534.34752"
     inkscape:cx="283.58565"
     inkscape:zoom="1.979899"
     inkscape:pageshadow="2"
     inkscape:pageopacity="0.0"
     borderopacity="1.0"
     bordercolor="#666666"
     pagecolor="#ffffff"
     id="base" />
  <metadata
     id="metadata5">
    <rdf:RDF>
      <cc:Work
         rdf:about="">
        <dc:format>image/svg+xml</dc:format>
        <dc:type
           rdf:resource="http://purl.org/dc/dcmitype/StillImage" />
        <dc:title></dc:title>
      </cc:Work>
    </rdf:RDF>
  </metadata>
  <g
     id="layer1"
     inkscape:groupmode="layer"
     inkscape:label="图层 1">
    <path
       id="path863"
       d="m 101.30323,42.957753 c -0.34358,-0.148991 -0.53509,-0.315571 -0.76535,-0.665719 l -0.1696,-0.257915 -0.0147,-6.028754 c -0.0142,-5.831891 -0.0106,-6.037179 0.1093,-6.286671 0.34858,-0.725159 0.83443,-0.934942 2.1653,-0.934942 h 0.73833 l 0.002,-0.338513 c 0.0226,-3.228739 0.0345,-3.491682 0.1828,-4.042922 0.62943,-2.339522 2.45905,-3.921025 4.85266,-4.194569 1.28493,-0.146843 2.77364,0.237823 3.81625,0.986079 1.05873,0.759828 1.83813,1.869353 2.16854,3.087054 0.17344,0.63919 0.18831,0.855329 0.1928,2.80328 l 0.004,1.685536 0.95106,0.02432 c 1.1452,0.02928 1.38818,0.116842 1.79135,0.645511 l 0.25584,0.335488 v 6.16179 6.161789 l -0.18895,0.262391 c -0.21254,0.295122 -0.54876,0.553968 -0.85412,0.65755 -0.14185,0.04811 -2.47175,0.06881 -7.57625,0.06727 -7.16546,-0.0022 -7.3795,-0.0057 -7.66155,-0.128044 z m 15.1242,-1.115157 0.15928,-0.159285 -0.0172,-5.778463 -0.0172,-5.778463 -0.15222,-0.123249 c -0.14786,-0.119719 -0.36069,-0.123249 -7.43117,-0.123249 -7.19298,0 -7.28047,0.0015 -7.4079,0.128961 -0.12705,0.127044 -0.12897,0.21493 -0.12897,5.911764 v 5.782804 l 0.1402,0.149234 0.1402,0.149232 h 7.27778 7.27779 z m -7.74342,-3.389047 c -0.22742,-0.06848 -0.59939,-0.411681 -0.68217,-0.629401 -0.0315,-0.0829 -0.0573,-0.507624 -0.0573,-0.943824 0,-0.674836 -0.0179,-0.816018 -0.11984,-0.946863 -0.25787,-0.33088 -0.34289,-0.584849 -0.34289,-1.024236 0,-0.471731 0.0996,-0.74115 0.38949,-1.053683 0.30277,-0.326403 0.63137,-0.453113 1.14864,-0.442925 0.39521,0.0078 0.51011,0.03819 0.78618,0.208051 0.477,0.293503 0.6732,0.666365 0.67806,1.288557 0.004,0.479454 -0.073,0.716476 -0.33816,1.04516 -0.0641,0.0795 -0.0913,0.341462 -0.0974,0.939717 -0.008,0.789713 -0.017,0.842327 -0.18553,1.096959 -0.2677,0.404411 -0.74724,0.592515 -1.17905,0.462488 z m 4.80197,-11.68469 c -0.0378,-2.116154 -0.0299,-2.054707 -0.36563,-2.853245 -0.28006,-0.666136 -0.89915,-1.423093 -1.50053,-1.834694 -2.65937,-1.820135 -6.228,-0.509592 -7.03086,2.582014 -0.10808,0.416196 -0.1242,0.712538 -0.12518,2.299296 l -0.001,1.821522 4.52963,6.6e-5 4.52963,6.4e-5 -0.0359,-2.015023 z"
       style="fill:#000000;stroke-width:1" />
    <rect
       ry="21.406118"
       rx="22.475195"
       y="71.895508"
       x="10.636099"
       height="148.06732"
       width="176.13063"
       id="rect1859"
       style="fill:#ffff00;fill-opacity:0.372832;stroke:#000000;stroke-width:0.265;stroke-linejoin:bevel;stroke-miterlimit:4;stroke-dasharray:none;stroke-dashoffset:0;paint-order:stroke fill markers" />
    <path
       id="path847"
       d="m 59.861948,177.05121 c -0.68084,-0.16737 -1.21344,-0.70367 -1.37719,-1.38672 -0.0577,-0.24084 -0.0593,-0.34147 -0.0593,-3.73978 0,-3.39832 0.002,-3.49895 0.0593,-3.73979 0.13475,-0.56208 0.53218,-1.04032 1.06864,-1.28592 0.34076,-0.156 0.40556,-0.16009 2.5481,-0.16064 l 1.98191,-5e-4 5.4e-4,-0.58205 c 8.6e-4,-0.92513 0.0988,-1.42401 0.39789,-2.02613 0.53813,-1.08346 1.52791,-1.82348 2.74838,-2.05486 0.27297,-0.0518 1.92099,-0.0518 2.19397,0 1.65106,0.31301 2.86977,1.57126 3.10354,3.20422 0.0232,0.16209 0.0424,0.34444 0.0427,0.40523 l 5e-4,0.11051 h -1.41125 -1.41125 l -0.0188,-0.12545 c -0.0453,-0.30237 -0.24185,-0.57168 -0.5267,-0.72184 l -0.15374,-0.081 h -0.72204 -0.72203 l -0.15374,0.081 c -0.20438,0.10774 -0.35285,0.26111 -0.44688,0.46162 -0.0738,0.15734 -0.0776,0.19043 -0.0868,0.74669 l -0.01,0.58205 1.98413,5e-4 c 2.14493,5.8e-4 2.2095,0.005 2.5503,0.16064 0.53647,0.2456 0.9339,0.72384 1.06865,1.28592 0.0577,0.24084 0.0593,0.34147 0.0593,3.73978 0,3.39832 -0.002,3.49895 -0.0593,3.73979 -0.13022,0.54317 -0.50305,1.00505 -1.02275,1.26698 -0.0686,0.0346 -0.23435,0.0891 -0.36838,0.12127 -0.23855,0.0572 -0.35773,0.0584 -5.63686,0.0565 -5.19872,-0.002 -5.40138,-0.004 -5.62132,-0.058 z m 11.20858,-0.97465 c 0.20928,-0.0981 0.36732,-0.25619 0.46546,-0.46546 l 0.0772,-0.16464 v -3.52175 -3.52176 l -0.0772,-0.16464 c -0.0981,-0.20927 -0.25618,-0.36732 -0.46546,-0.46546 l -0.16463,-0.0772 h -5.40789 -5.40789 l -0.16464,0.0772 c -0.20927,0.0981 -0.36731,0.25619 -0.46545,0.46546 l -0.0772,0.16464 -0.008,3.46099 c -0.009,3.8004 -0.0166,3.61581 0.16901,3.89606 0.10611,0.16019 0.26971,0.28045 0.4813,0.35378 0.14574,0.0505 0.41594,0.0528 5.51693,0.0465 l 5.36369,-0.007 z m -5.74933,-1.8273 c -0.0405,-0.0162 -0.10467,-0.0584 -0.14256,-0.0939 -0.1413,-0.13237 -0.15217,-0.20764 -0.15217,-1.05455 v -0.79125 l -0.15705,-0.0743 c -0.20626,-0.0976 -0.46588,-0.34154 -0.59313,-0.55733 -0.44644,-0.75712 -0.0424,-1.78261 0.80418,-2.04126 0.22028,-0.0673 0.6148,-0.0673 0.83507,0 0.84662,0.25865 1.25063,1.28414 0.80418,2.04126 -0.12724,0.21579 -0.38687,0.45975 -0.59313,0.55733 l -0.15705,0.0743 v 0.79125 c 0,0.84693 -0.0109,0.9224 -0.15215,1.05435 -0.12904,0.12055 -0.33292,0.15921 -0.49619,0.0941 z m 0.64855,-8.07873 c 1.6e-4,-0.46644 0.0108,-0.61132 0.0595,-0.8148 0.13444,-0.56082 0.52635,-1.03398 1.05788,-1.27725 0.31067,-0.14218 0.5057,-0.16875 1.2427,-0.16932 0.74185,-5.8e-4 0.95409,0.033 1.31221,0.20745 0.20349,0.0991 0.55455,0.40685 0.69189,0.60648 l 0.0885,0.12862 h 0.51432 c 0.28288,0 0.51433,-0.008 0.51433,-0.0176 0,-0.0615 -0.25743,-0.5337 -0.38444,-0.70516 -0.21238,-0.28672 -0.30323,-0.379 -0.57336,-0.58238 -0.27674,-0.20835 -0.6712,-0.40323 -1.00201,-0.49503 -0.20767,-0.0576 -0.32709,-0.067 -1.00201,-0.079 -0.52486,-0.009 -0.84515,-0.002 -1.01674,0.0231 -1.21522,0.17799 -2.15719,1.07523 -2.39007,2.27658 -0.0435,0.22442 -0.056,0.42018 -0.056,0.87726 v 0.58837 h 0.47154 0.47153 l 1.7e-4,-0.56732 z"
       style="fill:#000000;stroke-width:0.999998" />
    <path
       id="path879"
       d="m 20.82571,140.91708 c -0.19765,-0.10728 -0.220318,-0.2803 -0.204548,-1.56105 l 0.0143,-1.164 0.12012,-0.12004 c 0.11377,-0.11369 0.14722,-0.12108 0.63239,-0.13965 l 0.51227,-0.0196 v -0.30036 c 0,-2.30168 1.04843,-4.31393 2.90676,-5.5789 0.23881,-0.16256 2.07556,-1.33859 2.96316,-1.89724 0.18967,-0.11937 0.33944,-0.23233 0.33284,-0.25102 -0.0101,-0.0284 -1.529,-1.00893 -2.8966,-1.86979 -1.16743,-0.73487 -1.94868,-1.543 -2.52507,-2.61196 -0.48453,-0.89862 -0.78109,-2.11548 -0.78109,-3.20505 v -0.3298 l -0.50964,-0.0162 c -0.48741,-0.0155 -0.51498,-0.0215 -0.63238,-0.13886 l -0.12276,-0.12268 -0.0137,-1.1961 c -0.015,-1.30802 0.006,-1.44056 0.239848,-1.54733 0.15887,-0.0724 15.94192,-0.0724 16.1008,0 0.23432,0.10677 0.25487,0.23931 0.23985,1.54733 l -0.0137,1.1961 -0.12275,0.12268 c -0.1174,0.11733 -0.14497,0.12338 -0.63239,0.13886 l -0.50963,0.0162 -7.6e-4,0.31696 c -0.005,2.00024 -0.84752,3.88388 -2.27153,5.07766 -0.42593,0.35706 -0.80857,0.61448 -2.62039,1.76285 -0.72614,0.46024 -1.32025,0.85158 -1.32025,0.86966 0,0.0181 0.0749,0.0783 0.16642,0.13392 0.52684,0.3199 3.13425,1.99139 3.33945,2.14076 1.06085,0.77221 1.87935,1.85783 2.29681,3.04641 0.2555,0.72746 0.41026,1.63111 0.41026,2.39554 v 0.30036 l 0.51227,0.0196 c 0.48518,0.0186 0.51862,0.0259 0.63239,0.13965 l 0.12012,0.12004 0.0137,1.19611 c 0.015,1.30803 -0.006,1.44056 -0.23985,1.54733 -0.0817,0.0372 -2.20774,0.0501 -8.06359,0.0488 -6.91759,-0.002 -7.96835,-0.0103 -8.07311,-0.0671 z m 15.54182,-1.43997 v -0.71003 H 28.912 21.45649 v 0.70932 0.70931 l 7.45551,7.5e-4 7.45553,7.6e-4 z m -1.28697,-2.07994 c 0,-1.49599 -0.58871,-2.90473 -1.66313,-3.97978 -0.398,-0.39823 -0.74645,-0.64856 -2.10901,-1.51513 -0.3051,-0.19403 -0.96785,-0.6174 -1.47278,-0.9408 l -0.91806,-0.58801 -1.05677,0.67223 c -3.07055,1.95325 -3.16403,2.01983 -3.70693,2.64011 -0.61337,0.7008 -1.01667,1.47191 -1.26495,2.41861 -0.0866,0.33017 -0.11562,0.57315 -0.13388,1.12054 l -0.0233,0.69896 h 6.1744 6.17441 z m -4.93222,-8.77709 c 0.67465,-0.43078 1.3265,-0.84708 1.44854,-0.92511 1.30618,-0.83519 1.65047,-1.09921 2.07201,-1.58899 0.93049,-1.08112 1.41167,-2.34918 1.41167,-3.72022 v -0.52673 h -6.17441 -6.1744 l 0.0233,0.69896 c 0.0262,0.78463 0.12508,1.25802 0.40773,1.95134 0.3159,0.77486 0.88688,1.57419 1.5059,2.10814 0.28714,0.24768 1.15763,0.83049 2.64571,1.77136 0.10984,0.0694 0.50924,0.32548 0.88756,0.56896 0.37833,0.24348 0.69504,0.44332 0.7038,0.4441 0.009,7.6e-4 0.56793,-0.35104 1.24259,-0.78181 z m -2.76738,-1.50804 c -0.82987,-0.52815 -1.62142,-1.04688 -1.759,-1.15273 -0.59061,-0.4544 -1.16511,-1.20924 -1.43188,-1.88137 -0.11161,-0.28121 -0.2928,-0.93095 -0.2928,-1.04999 0,-0.0494 0.85283,-0.0595 5.01472,-0.0595 4.1619,0 5.01473,0.0101 5.01473,0.0595 0,0.11939 -0.18133,0.7691 -0.29285,1.04933 -0.2891,0.72643 -0.88862,1.49955 -1.50973,1.94689 -0.23441,0.16884 -3.10375,1.99877 -3.1782,2.02692 -0.0309,0.0117 -0.73512,-0.4109 -1.56499,-0.93905 z m 8.98657,-6.80661 v -0.71042 l -7.45553,0.001 -7.45551,10e-4 v 0.70929 0.70929 h 7.45551 7.45553 z"
       style="fill:#000000;stroke-width:1" />
    <path
       style="mix-blend-mode:lighten;fill:none;stroke:#000000;stroke-width:0.500001;stroke-linecap:butt;stroke-linejoin:miter;stroke-miterlimit:4;stroke-dasharray:none;stroke-opacity:1;marker-end:url(#marker1169)"
       d="m 109.00854,44.471182 -1e-5,126.310088 H 75.826501"
       id="path1165" />
    <path
       id="path1247"
       d="m 109.00853,170.72728 h 30.65367 v 31.1876"
       style="fill:none;stroke:#000000;stroke-width:0.5;stroke-linecap:butt;stroke-linejoin:miter;stroke-miterlimit:4;stroke-dasharray:none;stroke-opacity:1;marker-end:url(#marker1251)" />
    <text
       id="text1339"
       y="168.086"
       x="82.776787"
       style="font-style:italic;font-size:5.92315px;line-height:1.25;font-family:Consolas;-inkscape-font-specification:'Consolas, Italic';stroke-width:0.264583"
       xml:space="preserve"><tspan
         style="stroke-width:0.264583"
         y="168.086"
         x="82.776787"
         id="tspan1337"
         sodipodi:role="line">pred ×</tspan></text>
    <text
       xml:space="preserve"
       style="font-style:italic;font-size:5.92315px;line-height:1.25;font-family:Consolas;-inkscape-font-specification:'Consolas, Italic';stroke-width:0.264583"
       x="115.58514"
       y="168.086"
       id="text1347"><tspan
         sodipodi:role="line"
         id="tspan1345"
         x="115.58514"
         y="168.086"
         style="stroke-width:0.264583">pred √</tspan></text>
    <text
       id="text1381"
       y="210.23035"
       x="116.34106"
       style="font-style:italic;font-size:5.92315px;line-height:1.25;font-family:Consolas;-inkscape-font-specification:'Consolas, Italic';stroke-width:0.264583"
       xml:space="preserve"><tspan
         style="stroke-width:0.264583"
         y="210.23035"
         x="116.34106"
         id="tspan1379"
         sodipodi:role="line">ok, exit wait()</tspan></text>
    <path
       id="path1427"
       d="m 72.765833,138.96326 c -0.50236,-0.16415 -0.888309,-0.49672 -1.280523,-1.10341 -0.875697,-1.35458 -1.406662,-3.79696 -1.408189,-6.47757 -0.0015,-2.97447 0.594021,-5.54937 1.590482,-6.87464 0.824569,-1.09664 1.939666,-1.17826 2.811436,-0.20577 0.657053,0.73297 2.942888,2.28121 4.704312,3.18633 1.249066,0.64184 2.014709,0.97881 3.207402,1.41164 1.259805,0.45719 1.179461,0.44512 3.3088,0.49711 2.15404,0.0526 2.39835,0.0871 3.05347,0.43137 0.40988,0.21537 0.68629,0.46764 0.88749,0.80993 0.13477,0.22929 0.14373,0.27948 0.14281,0.79979 -7.5e-4,0.51271 -0.0123,0.5777 -0.14933,0.85013 -0.0832,0.16544 -0.25581,0.39161 -0.39306,0.51502 -0.51741,0.46518 -1.07926,0.62609 -2.19092,0.62745 -0.86667,0.002 -0.89611,0.0167 -0.86412,0.45912 0.0144,0.20009 0.0726,0.38724 0.18931,0.60922 0.53642,1.02055 0.60788,1.18348 0.608,1.38604 1.9e-4,0.37925 -0.27381,0.59339 -0.95235,0.7442 -0.850785,0.18911 -1.018015,0.0797 -0.882099,-0.57695 l 0.07746,-0.37423 -0.232152,-0.20222 c -0.273986,-0.23867 -0.295749,-0.37974 -0.105154,-0.68167 0.06941,-0.10992 0.126171,-0.24327 0.126171,-0.29632 0,-0.053 -0.113553,-0.21061 -0.252342,-0.35013 -0.222299,-0.22347 -0.252334,-0.27884 -0.252334,-0.46513 v -0.21148 l -0.567768,0.023 c -0.527814,0.0214 -0.624574,0.0426 -1.375244,0.30195 -1.77854,0.61438 -3.13991,1.23916 -4.920616,2.25823 -0.466677,0.26708 -1.960827,1.25562 -2.472925,1.63611 -0.208176,0.15467 -0.461518,0.38387 -0.562978,0.50933 -0.540305,0.66808 -1.244867,0.95965 -1.845039,0.76354 z m 1.003793,-0.27493 c 0.407567,-0.19771 0.855256,-0.72457 1.198289,-1.41021 1.556627,-3.11135 1.453294,-9.50141 -0.198611,-12.28198 -0.470136,-0.79135 -1.005476,-1.18105 -1.615597,-1.17604 -0.71307,0.006 -1.271363,0.49863 -1.826603,1.61227 -1.245697,2.49848 -1.43295,7.5732 -0.397064,10.76071 0.472197,1.45299 1.119038,2.34954 1.871498,2.59395 0.225269,0.0732 0.717138,0.023 0.968088,-0.0987 z m -0.992995,-0.44515 c -0.884917,-0.46569 -1.64737,-2.41461 -1.925378,-4.9215 -0.103204,-0.93061 -0.116575,-2.96664 -0.02512,-3.82665 0.313645,-2.94975 1.233485,-5.07076 2.248716,-5.1852 0.971087,-0.10946 1.932152,1.7067 2.324794,4.39322 0.1447,0.99009 0.191316,1.89094 0.161109,3.1135 -0.0555,2.24665 -0.429829,4.07317 -1.094598,5.34105 -0.421181,0.80331 -0.825559,1.17036 -1.285769,1.16706 -0.138782,-7.5e-4 -0.320473,-0.0377 -0.403742,-0.0815 z m 0.656084,-0.16371 c 0.79008,-0.36716 1.48638,-2.04406 1.822156,-4.38829 0.105746,-0.73824 0.151099,-3.14736 0.0749,-3.98033 -0.198679,-2.1729 -0.718386,-3.90702 -1.42895,-4.76804 -0.346244,-0.41954 -0.70385,-0.54663 -1.043672,-0.3709 -0.417729,0.21602 -0.945972,1.06545 -1.259804,2.02581 -0.893874,2.73536 -0.870261,6.96861 0.05354,9.6077 0.32685,0.93369 0.846655,1.71332 1.262925,1.89419 0.216765,0.0942 0.277917,0.0918 0.518828,-0.0202 z m -0.262877,-5.01384 c -0.300929,-0.32912 -0.437966,-0.87984 -0.436387,-1.75376 0.0015,-0.91396 0.144039,-1.45602 0.459172,-1.74808 0.410721,-0.38063 0.839088,0.16544 0.975396,1.2434 0.116071,0.918 -0.114056,2.04484 -0.468284,2.29295 -0.165222,0.11573 -0.406915,0.1 -0.529897,-0.0345 z m 0.412337,-0.11882 c 0.478248,-0.47825 0.578354,-2.27485 0.167681,-3.00935 -0.213095,-0.38111 -0.370097,-0.38219 -0.581613,-0.004 -0.390581,0.69837 -0.323759,2.49202 0.110289,2.96036 0.144053,0.15545 0.192685,0.16393 0.303643,0.053 z m 1.808319,4.37935 c 1.005643,-0.73951 2.522324,-1.65515 3.814455,-2.30282 1.294404,-0.64882 2.40993,-1.10616 3.706181,-1.51946 0.54672,-0.17432 0.612829,-0.20908 0.798227,-0.4197 0.242731,-0.27575 0.523024,-0.84012 0.603413,-1.21495 0.09601,-0.44766 0.0373,-1.27859 -0.117147,-1.65731 -0.250236,-0.61372 -0.273931,-0.63306 -1.097936,-0.89667 -2.525593,-0.80797 -5.275365,-2.21352 -7.441225,-3.80361 -0.504886,-0.37067 -0.677681,-0.46355 -0.548743,-0.29498 0.09518,0.12444 0.409502,0.92734 0.538869,1.37647 0.585267,2.03198 0.760032,4.3738 0.508465,6.81315 -0.151445,1.46845 -0.553585,3.06495 -0.988384,3.92388 -0.05272,0.10409 -0.08302,0.18925 -0.06738,0.18925 0.01564,0 0.14667,-0.087 0.291213,-0.19325 z m 10.507769,-0.85843 c 0.97149,-0.19627 1.08883,-0.42355 0.64801,-1.25515 -0.56284,-1.06178 -0.54708,-1.02179 -0.54708,-1.38807 v -0.34252 h -0.63806 c -0.535273,0 -0.642997,0.0129 -0.668693,0.0798 -0.06151,0.16023 -0.02579,0.23678 0.221698,0.47531 0.227006,0.2188 0.252341,0.2653 0.252341,0.46317 0,0.15146 -0.03925,0.27778 -0.126171,0.40562 -0.06941,0.10213 -0.12617,0.2058 -0.12617,0.23038 0,0.0246 0.09224,0.11882 0.204972,0.20942 0.276003,0.22181 0.304633,0.31921 0.213393,0.72599 -0.0605,0.26972 -0.0633,0.35438 -0.0139,0.41394 0.0759,0.0914 0.0317,0.0928 0.57969,-0.0179 z m 1.6944,-3.33053 c 0.61596,-0.39063 0.9431,-1.20316 0.82099,-2.03911 -0.0641,-0.43868 -0.20922,-0.76329 -0.47765,-1.06824 -0.37963,-0.43126 -0.31174,-0.41721 -2.18026,-0.45132 -0.911113,-0.0166 -1.649202,-0.0135 -1.640208,0.007 0.009,0.0204 0.07896,0.16224 0.155476,0.31522 0.290949,0.58171 0.368924,1.59604 0.170885,2.22311 -0.09987,0.31626 -0.351463,0.80517 -0.513293,0.9975 l -0.133729,0.15892 h 1.786219 1.78622 z m 0.829,-0.065 c 0.55903,-0.17999 1.00307,-0.6184 1.14319,-1.12874 0.0948,-0.34516 0.0705,-0.82766 -0.0564,-1.12186 -0.1856,-0.43021 -0.68568,-0.82965 -1.27943,-1.02194 -0.10595,-0.0343 -0.20276,-0.0523 -0.21514,-0.0399 -0.0124,0.0124 0.049,0.11117 0.1364,0.21953 0.65739,0.81508 0.63261,2.21913 -0.0523,2.96215 -0.11344,0.12306 -0.20626,0.23612 -0.20626,0.25123 0,0.0356 0.15412,5.7e-4 0.52992,-0.12048 z"
       style="fill:#000000;stroke-width:1" />
    <path
       id="path1429"
       d="M 68.025316,131.61131 H 39.536302"
       style="fill:none;stroke:#000000;stroke-width:0.5;stroke-linecap:butt;stroke-linejoin:miter;stroke-miterlimit:4;stroke-dasharray:0.5, 1;stroke-dashoffset:0;stroke-opacity:1;marker-end:url(#marker1433)" />
    <text
       id="text1479"
       y="129.53244"
       x="44.979195"
       style="font-style:italic;font-size:5.92315px;line-height:1.25;font-family:Consolas;-inkscape-font-specification:'Consolas, Italic';stroke-width:0.264583"
       xml:space="preserve"><tspan
         style="fill:#ff0000;stroke-width:0.264583"
         y="129.53244"
         x="44.979195"
         id="tspan1477"
         sodipodi:role="line">notify</tspan></text>
    <path
       style="fill:none;stroke:#000000;stroke-width:0.5;stroke-linecap:butt;stroke-linejoin:miter;stroke-miterlimit:4;stroke-dasharray:0.5, 1;stroke-dashoffset:0;stroke-opacity:1;marker-end:url(#marker1767)"
       d="M 172.44542,57.527957 H 114.14881"
       id="path1763" />
    <text
       xml:space="preserve"
       style="font-style:italic;font-size:5.92315px;line-height:1.25;font-family:Consolas;-inkscape-font-specification:'Consolas, Italic';stroke-width:0.264583"
       x="123.82501"
       y="55.449142"
       id="text1837"><tspan
         sodipodi:role="line"
         id="tspan1835"
         x="123.82501"
         y="55.449142"
         style="fill:#ff0000;stroke-width:0.264583">wait() called</tspan></text>
    <path
       id="path2219"
       d="M 56.260235,170.91886 H 27.261492 v -27.79603"
       style="fill:none;stroke:#000000;stroke-width:0.5;stroke-linecap:butt;stroke-linejoin:miter;stroke-opacity:1;stroke-miterlimit:4;stroke-dasharray:none;marker-end:url(#marker2223)" />
    <path
       id="path2273"
       d="M 27.261492,117.59859 V 97.018836 h 78.577238"
       style="fill:none;stroke:#000000;stroke-width:0.5;stroke-linecap:butt;stroke-linejoin:miter;stroke-opacity:1;stroke-miterlimit:4;stroke-dasharray:none;marker-end:url(#marker2277)" />
    <text
       id="text2353"
       y="157.61607"
       x="30.805059"
       style="font-style:italic;font-size:5.92315px;line-height:1.25;font-family:Consolas;-inkscape-font-specification:'Consolas, Italic';stroke-width:0.264583"
       xml:space="preserve"><tspan
         style="stroke-width:0.264583"
         y="157.61607"
         x="30.805059"
         id="tspan2351"
         sodipodi:role="line">thread</tspan><tspan
         id="tspan2355"
         style="stroke-width:0.264583"
         y="165.02"
         x="30.805059"
         sodipodi:role="line">blocked</tspan></text>
    <text
       id="text2359"
       y="93.171127"
       x="35.340775"
       style="font-style:italic;font-size:5.92315px;line-height:1.25;font-family:Consolas;-inkscape-font-specification:'Consolas, Italic';stroke-width:0.264583"
       xml:space="preserve"><tspan
         style="stroke-width:0.264583"
         y="93.171127"
         x="35.340775"
         id="tspan2357"
         sodipodi:role="line">thread unblocked </tspan></text>
  </g>
</svg>
