<?xml version="1.0" encoding="UTF-8" standalone="no"?>
<svg
   xmlns:dc="http://purl.org/dc/elements/1.1/"
   xmlns:cc="http://creativecommons.org/ns#"
   xmlns:rdf="http://www.w3.org/1999/02/22-rdf-syntax-ns#"
   xmlns:svg="http://www.w3.org/2000/svg"
   xmlns="http://www.w3.org/2000/svg"
   xmlns:sodipodi="http://sodipodi.sourceforge.net/DTD/sodipodi-0.dtd"
   xmlns:inkscape="http://www.inkscape.org/namespaces/inkscape"
   sodipodi:docname="示例.svg"
   inkscape:version="1.0 (4035a4fb49, 2020-05-01)"
   id="svg8"
   version="1.1"
   viewBox="0 0 210 180"
   height="180mm"
   width="210mm">
  <defs
     id="defs2" />
  <sodipodi:namedview
     inkscape:window-maximized="1"
     inkscape:window-y="-11"
     inkscape:window-x="-11"
     inkscape:window-height="1506"
     inkscape:window-width="2560"
     showgrid="false"
     inkscape:document-rotation="0"
     inkscape:current-layer="layer1"
     inkscape:document-units="mm"
     inkscape:cy="567.61419"
     inkscape:cx="441.33193"
     inkscape:zoom="0.98994949"
     inkscape:pageshadow="2"
     inkscape:pageopacity="0.0"
     borderopacity="1.0"
     bordercolor="#666666"
     pagecolor="#ffffff"
     id="base" />
  <metadata
     id="metadata5">
    <rdf:RDF>
      <cc:Work
         rdf:about="">
        <dc:format>image/svg+xml</dc:format>
        <dc:type
           rdf:resource="http://purl.org/dc/dcmitype/StillImage" />
        <dc:title></dc:title>
      </cc:Work>
    </rdf:RDF>
  </metadata>
  <g
     id="layer1"
     inkscape:groupmode="layer"
     inkscape:label="图层 1">
    <path
       id="path847"
       d="m 10.507741,89.144761 v -72.00536 h 93.559099 93.5591 v 72.00536 72.005359 h -93.5591 -93.559099 z m 82.06378,66.577009 c 0,-0.17562 -0.28738,-0.31931 -0.63863,-0.31931 -0.59132,0 -0.63863,-0.21288 -0.63863,-2.87383 0,-2.66095 0.0473,-2.87383 0.63863,-2.87383 0.35125,0 0.63863,-0.14369 0.63863,-0.31931 0,-0.17562 -0.50292,-0.31932 -1.1176,-0.31932 h -1.1176 v 3.51246 3.51246 h 1.1176 c 0.61468,0 1.1176,-0.14369 1.1176,-0.31932 z m 33.847329,-3.19314 v -3.51246 h -1.11759 c -0.61469,0 -1.11761,0.1437 -1.11761,0.31932 0,0.17562 0.28738,0.31931 0.63863,0.31931 0.59132,0 0.63863,0.21288 0.63863,2.87383 0,2.66095 -0.0473,2.87383 -0.63863,2.87383 -0.35125,0 -0.63863,0.14369 -0.63863,0.31931 0,0.17563 0.50292,0.31932 1.11761,0.31932 h 1.11759 z m -101.861278,1.59658 c 0,-0.17563 -0.215537,-0.31933 -0.478971,-0.31933 -0.376626,0 -0.478972,-0.44348 -0.478972,-2.07554 0,-1.88467 -0.06066,-2.07554 -0.659621,-2.07554 -0.916055,0 -1.954111,0.60379 -1.711881,0.99573 0.1105,0.17878 0.401903,0.24794 0.647573,0.15366 0.345753,-0.13267 0.446673,0.18706 0.446673,1.41515 0,1.37367 -0.08569,1.58654 -0.638629,1.58654 -0.351246,0 -0.638629,0.1437 -0.638629,0.31933 0,0.17562 0.790303,0.31931 1.756229,0.31931 0.965925,0 1.756228,-0.14369 1.756228,-0.31931 z m 12.154936,-0.0109 c 0.650793,-0.34828 0.848975,-1.72398 0.297459,-2.06483 -0.208459,-0.12885 -0.212776,-0.39857 -0.01237,-0.77303 0.492664,-0.92056 -0.282035,-1.69218 -1.57284,-1.5666 -0.593402,0.0577 -1.14045,0.29229 -1.215662,0.52126 -0.09465,0.28817 0.133152,0.38644 0.740202,0.31931 1.055332,-0.11671 1.478286,0.6631 0.498606,0.9193 -0.904899,0.23664 -0.848502,0.62649 0.126015,0.87107 1.432712,0.35959 0.8106,1.46545 -0.8244,1.46545 -0.336882,0 -0.612513,0.1437 -0.612513,0.31932 0,0.41893 1.786314,0.41113 2.575506,-0.0109 z m 17.860611,0.0109 c 0,-0.17563 -0.215538,-0.31933 -0.478972,-0.31933 -0.376629,0 -0.478971,-0.44348 -0.478971,-2.07554 0,-1.88467 -0.06066,-2.07554 -0.659621,-2.07554 -0.842754,0 -1.894894,0.55882 -1.894894,1.00642 0,0.18993 0.287383,0.27017 0.638628,0.17832 0.574546,-0.15025 0.638629,-0.01 0.638629,1.39967 0,1.3538 -0.08677,1.56667 -0.638629,1.56667 -0.351245,0 -0.638628,0.1437 -0.638628,0.31933 0,0.17562 0.790303,0.31931 1.756228,0.31931 0.965926,0 1.75623,-0.14369 1.75623,-0.31931 z m 16.740816,-0.38312 c 0.417387,-0.5959 0.426954,-0.8017 0.06309,-1.35709 -0.310971,-0.47464 -0.336615,-0.80095 -0.09327,-1.18669 0.533763,-0.84609 -0.302122,-1.59538 -1.650857,-1.47982 -0.616137,0.0527 -1.180011,0.27785 -1.253054,0.50017 -0.09218,0.28057 0.182639,0.37823 0.898515,0.31931 1.258092,-0.10355 1.641841,0.60551 0.484866,0.89591 -0.976543,0.24509 -1.094395,0.77544 -0.172321,0.77544 0.792254,0 1.209965,0.91539 0.595311,1.30459 -0.245122,0.15521 -0.768979,0.28441 -1.164131,0.28709 -0.395151,0.002 -0.718458,0.14858 -0.718458,0.32421 0,0.17562 0.566617,0.31931 1.259153,0.31931 0.93529,0 1.385693,-0.18067 1.751148,-0.70243 z m 12.6361,0.0638 c 0.351246,-0.35124 0.638629,-0.77205 0.638629,-0.93513 0,-0.56434 -1.006782,-1.30006 -1.779038,-1.30006 -0.5626,0 -0.775477,-0.17531 -0.775477,-0.63864 0,-0.51698 0.212877,-0.63862 1.1176,-0.63862 0.614681,0 1.117601,-0.14369 1.117601,-0.31932 0,-0.17562 -0.718458,-0.31931 -1.596572,-0.31931 h -1.596572 v 1.27725 c 0,1.20925 0.05156,1.27727 0.967963,1.27727 0.59297,0 1.043963,0.19804 1.164131,0.51119 0.229242,0.5974 -0.393721,1.07354 -1.413636,1.08048 -0.395152,0.002 -0.718458,0.14859 -0.718458,0.32421 0,0.59284 2.206897,0.34761 2.873829,-0.31932 z m 12.911523,0.0229 c 0.58941,-0.65132 0.44044,-1.93879 -0.22433,-1.93879 -0.25739,0 -0.25118,-0.11043 0.0215,-0.38318 0.54096,-0.54095 0.47568,-1.42888 -0.12191,-1.6582 -0.9636,-0.36976 -2.36874,-0.21231 -2.36874,0.26544 0,0.3027 0.29933,0.43877 0.87811,0.39914 1.0854,-0.0743 1.23259,0.8475 0.15966,0.99987 -0.85285,0.12112 -0.97155,0.69625 -0.14369,0.69625 0.31612,0 0.74377,0.16901 0.95034,0.37558 0.55394,0.55393 -0.12618,1.22099 -1.24489,1.22099 -0.50537,0 -0.91885,0.1437 -0.91885,0.31932 0,0.59557 2.42112,0.35735 3.01278,-0.29644 z m 12.889092,0.23255 c 0.5551,-0.55512 0.47481,-2.06784 -0.12192,-2.29683 -0.27779,-0.10656 -0.84806,-0.19382 -1.26724,-0.19382 -1.08146,0 -0.65466,-0.93556 0.53539,-1.17356 1.20653,-0.2413 1.17932,-0.74233 -0.0403,-0.74233 -1.31015,0 -2.23519,0.99981 -2.23519,2.41585 0,1.7015 0.48252,2.37387 1.70359,2.37387 0.57338,0 1.21494,-0.17243 1.42569,-0.38318 z m -1.7722,-0.46692 c -0.57293,-0.23119 -0.49194,-0.96185 0.13322,-1.20175 0.67163,-0.25773 1.20934,0.25514 0.95697,0.91278 -0.19748,0.51462 -0.39875,0.56797 -1.09019,0.28897 z m 14.12565,-1.37713 c 0.61688,-1.22497 1.1216,-2.30266 1.1216,-2.39485 0,-0.0922 -0.86214,-0.16764 -1.91588,-0.16764 -1.06438,0 -1.91589,0.14192 -1.91589,0.31931 0,0.17564 0.57477,0.31933 1.27727,0.31933 0.70248,0 1.27725,0.0759 1.27725,0.16876 0,0.0928 -0.43314,1.02681 -0.96254,2.07554 -0.74788,1.48154 -0.85559,1.90678 -0.48299,1.90678 0.2735,0 0.96151,-0.95703 1.60118,-2.22723 z m 34.3257,0.32045 c 1.38193,-2.73758 1.33386,-2.88294 -0.95335,-2.88294 -1.49013,0 -1.91588,0.10645 -1.91588,0.47898 0,0.33452 0.33706,0.47897 1.11759,0.47897 0.61469,0 1.1176,0.0766 1.1176,0.17027 0,0.0936 -0.35922,0.87917 -0.79827,1.74561 -0.96119,1.8968 -0.96282,1.91589 -0.16427,1.91589 0.45426,0 0.90697,-0.54066 1.59658,-1.90678 z m -106.646397,-0.01 c 0,-0.17562 -0.574766,-0.31931 -1.277257,-0.31931 -0.702491,0 -1.277257,0.14369 -1.277257,0.31931 0,0.17562 0.574766,0.31931 1.277257,0.31931 0.702491,0 1.277257,-0.14369 1.277257,-0.31931 z m 17.242973,0 c 0,-0.17562 -0.574765,-0.31931 -1.277256,-0.31931 -0.702493,0 -1.277258,0.14369 -1.277258,0.31931 0,0.17562 0.574765,0.31931 1.277258,0.31931 0.702491,0 1.277256,-0.14369 1.277256,-0.31931 z m 12.772573,-9.26012 c 0,-0.17562 -0.287383,-0.31931 -0.638629,-0.31931 -0.591322,0 -0.638629,-0.21288 -0.638629,-2.87383 0,-2.66095 0.04731,-2.87383 0.638629,-2.87383 0.351246,0 0.638629,-0.14369 0.638629,-0.31931 0,-0.17562 -0.50292,-0.31932 -1.1176,-0.31932 h -1.117601 v 3.51246 3.51246 h 1.117601 c 0.61468,0 1.1176,-0.14369 1.1176,-0.31932 z m 33.847321,-3.19314 v -3.51246 h -1.11759 c -0.61468,0 -1.1176,0.1437 -1.1176,0.31932 0,0.17562 0.28737,0.31931 0.63863,0.31931 0.59132,0 0.63862,0.21288 0.63862,2.87383 0,2.66095 -0.0473,2.87383 -0.63862,2.87383 -0.35126,0 -0.63863,0.14369 -0.63863,0.31931 0,0.17563 0.50292,0.31932 1.1176,0.31932 h 1.11759 z m -89.088698,1.59658 c 0,-0.17562 -0.215537,-0.31933 -0.478971,-0.31933 -0.376626,0 -0.478972,-0.44348 -0.478972,-2.07554 0,-1.88467 -0.06066,-2.07554 -0.659621,-2.07554 -0.916055,0 -1.954111,0.60379 -1.711881,0.99573 0.1105,0.1788 0.401903,0.24794 0.647573,0.15367 0.345753,-0.13268 0.446673,0.18705 0.446673,1.41514 0,1.37368 -0.08569,1.58654 -0.638629,1.58654 -0.351246,0 -0.638629,0.14371 -0.638629,0.31933 0,0.17562 0.790303,0.31931 1.756229,0.31931 0.965925,0 1.756228,-0.14369 1.756228,-0.31931 z m 12.154936,-0.0109 c 0.650793,-0.34829 0.848975,-1.72399 0.297459,-2.06484 -0.208459,-0.12883 -0.212776,-0.39857 -0.01237,-0.77303 0.492664,-0.92055 -0.282035,-1.69218 -1.57284,-1.5666 -0.593402,0.0577 -1.14045,0.29229 -1.215662,0.52126 -0.09465,0.28817 0.133152,0.38645 0.740202,0.31931 1.055332,-0.11671 1.478286,0.66311 0.498606,0.9193 -0.904899,0.23664 -0.848502,0.62649 0.126015,0.87107 1.432712,0.3596 0.8106,1.46545 -0.8244,1.46545 -0.336882,0 -0.612513,0.1437 -0.612513,0.31932 0,0.41893 1.786314,0.41113 2.575506,-0.0109 z m 17.860611,0.0109 c 0,-0.17562 -0.215538,-0.31933 -0.478972,-0.31933 -0.376629,0 -0.478971,-0.44348 -0.478971,-2.07554 0,-1.88467 -0.06066,-2.07554 -0.659621,-2.07554 -0.842754,0 -1.894894,0.55883 -1.894894,1.00643 0,0.18992 0.287383,0.27016 0.638628,0.17831 0.574546,-0.15024 0.638629,-0.01 0.638629,1.39967 0,1.35381 -0.08677,1.56667 -0.638629,1.56667 -0.351245,0 -0.638628,0.14371 -0.638628,0.31933 0,0.17562 0.790303,0.31931 1.756228,0.31931 0.965926,0 1.75623,-0.14369 1.75623,-0.31931 z m 16.740816,-0.38312 c 0.417387,-0.5959 0.426954,-0.8017 0.06309,-1.35709 -0.310971,-0.47464 -0.336615,-0.80095 -0.09327,-1.18669 0.533763,-0.84609 -0.302122,-1.59537 -1.650857,-1.47982 -0.616137,0.0527 -1.180011,0.27787 -1.253054,0.50017 -0.09218,0.28057 0.182639,0.37823 0.898515,0.31931 1.258092,-0.10355 1.641841,0.60552 0.484866,0.89591 -0.976543,0.24509 -1.094395,0.77544 -0.172321,0.77544 0.792254,0 1.209965,0.9154 0.595311,1.30459 -0.245122,0.15521 -0.768979,0.28441 -1.164131,0.28709 -0.395151,0.002 -0.718458,0.14859 -0.718458,0.32421 0,0.17562 0.566617,0.31931 1.259153,0.31931 0.93529,0 1.385693,-0.18067 1.751148,-0.70243 z m 12.6361,0.0638 c 0.351246,-0.35124 0.638629,-0.77205 0.638629,-0.93513 0,-0.56434 -1.006782,-1.30006 -1.779038,-1.30006 -0.5626,0 -0.775477,-0.17531 -0.775477,-0.63864 0,-0.51698 0.212877,-0.63862 1.1176,-0.63862 0.614681,0 1.117601,-0.14368 1.117601,-0.31932 0,-0.17562 -0.718458,-0.31931 -1.596572,-0.31931 h -1.596572 v 1.27725 c 0,1.20925 0.05156,1.27727 0.967963,1.27727 0.59297,0 1.043963,0.19804 1.164131,0.51119 0.229242,0.5974 -0.393721,1.07355 -1.413636,1.08049 -0.395152,0.002 -0.718458,0.14858 -0.718458,0.32421 0,0.59283 2.206897,0.34761 2.873829,-0.31933 z m 12.911523,0.0229 c 0.58941,-0.65131 0.44044,-1.93879 -0.22433,-1.93879 -0.25739,0 -0.25118,-0.11043 0.0215,-0.38318 0.54096,-0.54095 0.47568,-1.42888 -0.12191,-1.65819 -0.9636,-0.36977 -2.36874,-0.21231 -2.36874,0.26543 0,0.30271 0.29933,0.43877 0.87811,0.39915 1.0854,-0.0744 1.23259,0.84749 0.15966,0.99987 -0.85285,0.12112 -0.97155,0.69624 -0.14369,0.69624 0.31612,0 0.74377,0.16901 0.95034,0.37558 0.55394,0.55393 -0.12618,1.22099 -1.24489,1.22099 -0.50537,0 -0.91885,0.1437 -0.91885,0.31932 0,0.59557 2.42112,0.35735 3.01278,-0.29644 z m 12.889092,0.23255 c 0.5551,-0.55512 0.47481,-2.06784 -0.12192,-2.29683 -0.27779,-0.10656 -0.84806,-0.19382 -1.26724,-0.19382 -1.08146,0 -0.65466,-0.93555 0.53539,-1.17356 1.20653,-0.2413 1.17932,-0.74232 -0.0403,-0.74232 -1.31015,0 -2.23519,0.9998 -2.23519,2.41585 0,1.7015 0.48252,2.37386 1.70359,2.37386 0.57338,0 1.21494,-0.17242 1.42569,-0.38318 z m -1.7722,-0.46692 c -0.57293,-0.23118 -0.49194,-0.96185 0.13322,-1.20175 0.67163,-0.25773 1.20934,0.25514 0.95697,0.91278 -0.19748,0.51462 -0.39875,0.56797 -1.09019,0.28897 z m 14.12565,-1.37713 c 0.61688,-1.22497 1.1216,-2.30266 1.1216,-2.39485 0,-0.0922 -0.86214,-0.16763 -1.91588,-0.16763 -1.06438,0 -1.91589,0.14191 -1.91589,0.31931 0,0.17563 0.57477,0.31932 1.27727,0.31932 0.70248,0 1.27725,0.0759 1.27725,0.16876 0,0.0928 -0.43314,1.02681 -0.96254,2.07555 -0.74788,1.48153 -0.85559,1.90677 -0.48299,1.90677 0.2735,0 0.96151,-0.95703 1.60118,-2.22723 z m 34.90506,1.84405 c 0.55512,-0.55512 0.47483,-2.06784 -0.1219,-2.29683 -0.27781,-0.10656 -0.88849,-0.19838 -1.35709,-0.20397 -0.81811,-0.01 -0.82734,-0.0288 -0.23218,-0.47898 0.34092,-0.25784 0.87975,-0.46881 1.19743,-0.46881 0.31769,0 0.57761,-0.21553 0.57761,-0.47897 0,-0.3326 -0.33448,-0.47897 -1.09443,-0.47897 -1.96535,0 -3.09628,2.40203 -1.92095,4.08003 0.55422,0.79128 2.29426,0.98376 2.95151,0.3265 z m -2.01307,-0.89633 c -0.10935,-0.17687 0.0321,-0.41015 0.31424,-0.51842 0.61137,-0.23461 0.9521,0.0239 0.65823,0.49944 -0.26516,0.42901 -0.71364,0.43777 -0.97247,0.0189 z M 49.783403,140.07497 c 0,-0.17562 -0.574766,-0.31931 -1.277257,-0.31931 -0.702491,0 -1.277257,0.14369 -1.277257,0.31931 0,0.17563 0.574766,0.31931 1.277257,0.31931 0.702491,0 1.277257,-0.14368 1.277257,-0.31931 z m 17.242973,0 c 0,-0.17562 -0.574765,-0.31931 -1.277256,-0.31931 -0.702493,0 -1.277258,0.14369 -1.277258,0.31931 0,0.17563 0.574765,0.31931 1.277258,0.31931 0.702491,0 1.277256,-0.14368 1.277256,-0.31931 z m -4.4704,-9.2601 c 0,-0.17564 -0.287383,-0.31933 -0.638629,-0.31933 -0.591322,0 -0.638628,-0.21287 -0.638628,-2.87382 0,-2.66096 0.04731,-2.87383 0.638628,-2.87383 0.351246,0 0.638629,-0.14369 0.638629,-0.31931 0,-0.17562 -0.502921,-0.31931 -1.117601,-0.31931 h -1.117599 v 3.51245 3.51246 h 1.117599 c 0.61468,0 1.117601,-0.14369 1.117601,-0.31931 z m 38.317714,-3.19315 v -3.51245 h -1.117607 c -0.614677,0 -1.117598,0.14369 -1.117598,0.31931 0,0.17562 0.28739,0.31931 0.638631,0.31931 0.591317,0 0.638627,0.21287 0.638627,2.87383 0,2.66095 -0.0473,2.87382 -0.638627,2.87382 -0.351241,0 -0.638631,0.14369 -0.638631,0.31933 0,0.17562 0.502921,0.31931 1.117598,0.31931 h 1.117607 z m -76.316118,1.59657 c 0,-0.17562 -0.215537,-0.31931 -0.478971,-0.31931 -0.376626,0 -0.478972,-0.44349 -0.478972,-2.07555 0,-1.88468 -0.06066,-2.07554 -0.659621,-2.07554 -0.916055,0 -1.954111,0.6038 -1.711881,0.99574 0.1105,0.17878 0.401903,0.24792 0.647573,0.15366 0.345753,-0.13269 0.446673,0.18705 0.446673,1.41513 0,1.37368 -0.08569,1.58656 -0.638629,1.58656 -0.351246,0 -0.638629,0.14369 -0.638629,0.31931 0,0.17562 0.790303,0.31931 1.756229,0.31931 0.965925,0 1.756228,-0.14369 1.756228,-0.31931 z m 12.154936,-0.0109 c 0.650793,-0.3483 0.848975,-1.724 0.297459,-2.06485 -0.208459,-0.12883 -0.212776,-0.39856 -0.01237,-0.77301 0.492664,-0.92056 -0.282035,-1.6922 -1.57284,-1.56661 -0.593402,0.0577 -1.14045,0.29228 -1.215662,0.52125 -0.09465,0.28817 0.133152,0.38645 0.740202,0.31931 1.055332,-0.1167 1.478286,0.66311 0.498606,0.9193 -0.904899,0.23664 -0.848502,0.62649 0.126015,0.87107 1.432712,0.3596 0.8106,1.46547 -0.8244,1.46547 -0.336882,0 -0.612513,0.14368 -0.612513,0.31931 0,0.41892 1.786314,0.41112 2.575506,-0.0109 z m 17.860611,0.0109 c 0,-0.17562 -0.215538,-0.31931 -0.478972,-0.31931 -0.376629,0 -0.478971,-0.44349 -0.478971,-2.07555 0,-1.88468 -0.06066,-2.07554 -0.659621,-2.07554 -0.842754,0 -1.894894,0.55882 -1.894894,1.00642 0,0.18992 0.287383,0.27017 0.638628,0.17831 0.574546,-0.15024 0.638629,-0.01 0.638629,1.39968 0,1.3538 -0.08677,1.56668 -0.638629,1.56668 -0.351245,0 -0.638628,0.14369 -0.638628,0.31931 0,0.17562 0.790303,0.31931 1.756228,0.31931 0.965926,0 1.75623,-0.14369 1.75623,-0.31931 z m 16.740816,-0.38312 c 0.417387,-0.59589 0.426954,-0.8017 0.06309,-1.35708 -0.310971,-0.47465 -0.336615,-0.80096 -0.09327,-1.18669 0.533763,-0.84609 -0.302122,-1.59537 -1.650857,-1.47983 -0.616137,0.0527 -1.180011,0.27787 -1.253054,0.50017 -0.09218,0.28057 0.182639,0.37823 0.898515,0.31931 1.258092,-0.10354 1.641841,0.60552 0.484866,0.89591 -0.976543,0.24509 -1.094395,0.77545 -0.172321,0.77545 0.792254,0 1.209965,0.9154 0.595311,1.30458 -0.245122,0.15522 -0.768979,0.28441 -1.164131,0.28709 -0.395151,0.002 -0.718458,0.14859 -0.718458,0.32421 0,0.17562 0.566617,0.31931 1.259153,0.31931 0.93529,0 1.385693,-0.18066 1.751148,-0.70243 z m 12.6361,0.0639 c 0.351246,-0.35126 0.638629,-0.77207 0.638629,-0.93515 0,-0.56434 -1.006782,-1.30006 -1.779038,-1.30006 -0.5626,0 -0.775477,-0.17531 -0.775477,-0.63862 0,-0.51699 0.212877,-0.63863 1.1176,-0.63863 0.614681,0 1.117601,-0.14369 1.117601,-0.31931 0,-0.17564 -0.718458,-0.31933 -1.596572,-0.31933 h -1.596572 v 1.27727 c 0,1.20923 0.05156,1.27725 0.967963,1.27725 0.59297,0 1.043963,0.19805 1.164131,0.5112 0.229242,0.5974 -0.393721,1.07354 -1.413636,1.08048 -0.395152,0.002 -0.718458,0.14859 -0.718458,0.32421 0,0.59283 2.206897,0.34761 2.873829,-0.31931 z m 12.911523,0.0229 c 0.58941,-0.65132 0.44044,-1.93878 -0.22433,-1.93878 -0.25739,0 -0.25118,-0.11055 0.0215,-0.38318 0.54096,-0.54096 0.47568,-1.42889 -0.12191,-1.65821 -0.9636,-0.36977 -2.36874,-0.21231 -2.36874,0.26544 0,0.3027 0.29933,0.43876 0.87811,0.39914 1.0854,-0.0743 1.23259,0.84749 0.15966,0.99987 -0.85285,0.12112 -0.97155,0.69625 -0.14369,0.69625 0.31612,0 0.74377,0.16901 0.95034,0.37557 0.55394,0.55394 -0.12618,1.221 -1.24489,1.221 -0.50537,0 -0.91885,0.14369 -0.91885,0.31931 0,0.59558 2.42112,0.35735 3.01278,-0.29642 z m 12.889092,0.23255 c 0.5551,-0.55512 0.47481,-2.06784 -0.12192,-2.29683 -0.27779,-0.10657 -0.84806,-0.19382 -1.26724,-0.19382 -1.08146,0 -0.65466,-0.93556 0.53539,-1.17356 1.20653,-0.2413 1.17932,-0.74233 -0.0403,-0.74233 -1.31015,0 -2.23519,0.99981 -2.23519,2.41585 0,1.7015 0.48252,2.37386 1.70359,2.37386 0.57338,0 1.21494,-0.17242 1.42569,-0.38317 z m -1.7722,-0.46692 c -0.57293,-0.23119 -0.49194,-0.96186 0.13322,-1.20176 0.67163,-0.25772 1.20934,0.25515 0.95697,0.91279 -0.19748,0.51461 -0.39875,0.56797 -1.09019,0.28897 z m 14.12565,-1.37714 c 0.61688,-1.22497 1.1216,-2.30266 1.1216,-2.39485 0,-0.0922 -0.86214,-0.16763 -1.91588,-0.16763 -1.06438,0 -1.91589,0.14191 -1.91589,0.31932 0,0.17562 0.57477,0.31931 1.27727,0.31931 0.70248,0 1.27725,0.0759 1.27725,0.16877 0,0.0928 -0.43314,1.02681 -0.96254,2.07554 -0.74788,1.48154 -0.85559,1.90677 -0.48299,1.90677 0.2735,0 0.96151,-0.95702 1.60118,-2.22723 z m 34.81044,1.58731 c 0.79666,-0.88031 0.21965,-2.2339 -0.95227,-2.2339 -0.5028,0 -0.80513,-0.17986 -0.80513,-0.47897 0,-0.31932 0.31931,-0.47898 0.95794,-0.47898 0.63862,0 0.95795,-0.15965 0.95795,-0.47896 0,-0.36189 -0.39028,-0.47898 -1.59658,-0.47898 h -1.59657 v 1.43692 c 0,1.37729 0.039,1.43691 0.9391,1.43691 0.5165,0 1.0186,0.12864 1.11576,0.28585 0.20199,0.32682 -0.53898,0.67209 -1.44235,0.67209 -0.33688,0 -0.61251,0.21555 -0.61251,0.47898 0,0.75655 2.31546,0.63374 3.03466,-0.16096 z M 49.783403,127.62179 c 0,-0.17562 -0.574766,-0.31931 -1.277257,-0.31931 -0.702491,0 -1.277257,0.14369 -1.277257,0.31931 0,0.17562 0.574766,0.31932 1.277257,0.31932 0.702491,0 1.277257,-0.1437 1.277257,-0.31932 z m 17.242973,0 c 0,-0.17562 -0.574765,-0.31931 -1.277256,-0.31931 -0.702493,0 -1.277258,0.14369 -1.277258,0.31931 0,0.17562 0.574765,0.31932 1.277258,0.31932 0.702491,0 1.277256,-0.1437 1.277256,-0.31932 z m -21.713372,-9.26011 c 0,-0.17563 -0.215538,-0.31932 -0.478972,-0.31932 -0.390272,0 -0.478971,-0.53219 -0.478971,-2.87383 0,-2.34163 0.0887,-2.87383 0.478971,-2.87383 0.263434,0 0.478972,-0.14369 0.478972,-0.31931 0,-0.17562 -0.431075,-0.31931 -0.957943,-0.31931 h -0.957943 v 3.51245 3.51246 h 0.957943 c 0.526868,0 0.957943,-0.14369 0.957943,-0.31931 z m 42.788117,-3.19315 v -3.51245 h -1.1176 c -0.61468,0 -1.1176,0.14369 -1.1176,0.31931 0,0.17562 0.287382,0.31931 0.638629,0.31931 0.591322,0 0.638629,0.21288 0.638629,2.87383 0,2.66095 -0.04731,2.87383 -0.638629,2.87383 -0.351247,0 -0.638629,0.14369 -0.638629,0.31932 0,0.17562 0.50292,0.31931 1.1176,0.31931 h 1.1176 z m -63.543549,1.59658 c 0,-0.17563 -0.215537,-0.31931 -0.478971,-0.31931 -0.376626,0 -0.478972,-0.4435 -0.478972,-2.07556 0,-1.88467 -0.06066,-2.07554 -0.659621,-2.07554 -0.916055,0 -1.954111,0.6038 -1.711881,0.99574 0.1105,0.17879 0.401903,0.24793 0.647573,0.15366 0.345753,-0.13268 0.446673,0.18705 0.446673,1.41514 0,1.37368 -0.08569,1.58656 -0.638629,1.58656 -0.351246,0 -0.638629,0.14368 -0.638629,0.31931 0,0.17562 0.790303,0.31931 1.756229,0.31931 0.965925,0 1.756228,-0.14369 1.756228,-0.31931 z m 12.154936,-0.0109 c 0.650793,-0.34829 0.848975,-1.72399 0.297459,-2.06484 -0.208459,-0.12884 -0.212776,-0.39857 -0.01237,-0.77302 0.492664,-0.92055 -0.282035,-1.69219 -1.57284,-1.56661 -0.593402,0.0577 -1.14045,0.29229 -1.215662,0.52125 -0.09465,0.28818 0.133152,0.38645 0.740202,0.31931 1.055332,-0.1167 1.478286,0.66311 0.498606,0.9193 -0.904899,0.23664 -0.848502,0.6265 0.126015,0.87108 1.432712,0.35959 0.8106,1.46546 -0.8244,1.46546 -0.336882,0 -0.612513,0.14369 -0.612513,0.31931 0,0.41892 1.786314,0.41113 2.575506,-0.0109 z m 17.860611,0.0109 c 0,-0.17563 -0.215538,-0.31931 -0.478972,-0.31931 -0.376629,0 -0.478971,-0.4435 -0.478971,-2.07556 0,-1.88467 -0.06066,-2.07554 -0.659621,-2.07554 -0.842754,0 -1.894894,0.55883 -1.894894,1.00642 0,0.18993 0.287383,0.27017 0.638628,0.17832 0.574546,-0.15024 0.638629,-0.01 0.638629,1.39967 0,1.35381 -0.08677,1.56669 -0.638629,1.56669 -0.351245,0 -0.638628,0.14368 -0.638628,0.31931 0,0.17562 0.790303,0.31931 1.756228,0.31931 0.965926,0 1.75623,-0.14369 1.75623,-0.31931 z m 16.740816,-0.38312 c 0.417387,-0.5959 0.426954,-0.8017 0.06309,-1.35709 -0.310971,-0.47464 -0.336615,-0.80095 -0.09327,-1.18669 0.533763,-0.84609 -0.302122,-1.59537 -1.650857,-1.47982 -0.616137,0.0527 -1.180011,0.27786 -1.253054,0.50017 -0.09218,0.28057 0.182639,0.37823 0.898515,0.31931 1.258092,-0.10355 1.641841,0.60551 0.484866,0.89591 -0.976543,0.24509 -1.094395,0.77544 -0.172321,0.77544 0.792254,0 1.209965,0.9154 0.595311,1.30459 -0.245122,0.15521 -0.768979,0.28441 -1.164131,0.28709 -0.395151,0.002 -0.718458,0.14858 -0.718458,0.32421 0,0.17562 0.566617,0.31931 1.259153,0.31931 0.93529,0 1.385693,-0.18067 1.751148,-0.70243 z m 12.6361,0.0638 c 0.351246,-0.35125 0.638629,-0.77206 0.638629,-0.93514 0,-0.56434 -1.006782,-1.30007 -1.779038,-1.30007 -0.5626,0 -0.775477,-0.1753 -0.775477,-0.63862 0,-0.51699 0.212877,-0.63863 1.1176,-0.63863 0.614681,0 1.117601,-0.14369 1.117601,-0.31931 0,-0.17563 -0.718458,-0.31932 -1.596572,-0.31932 h -1.596572 v 1.27726 c 0,1.20924 0.05156,1.27726 0.967963,1.27726 0.59297,0 1.043963,0.19804 1.164131,0.5112 0.229242,0.59739 -0.393721,1.07353 -1.413636,1.08047 -0.395152,0.002 -0.718458,0.14859 -0.718458,0.32421 0,0.59283 2.206897,0.34761 2.873829,-0.31931 z m 12.911523,0.0229 c 0.58941,-0.65131 0.44044,-1.93878 -0.22433,-1.93878 -0.25739,0 -0.25118,-0.11042 0.0215,-0.38317 0.54096,-0.54097 0.47568,-1.4289 -0.12191,-1.65821 -0.9636,-0.36977 -2.36874,-0.21231 -2.36874,0.26543 0,0.30271 0.29933,0.43877 0.87811,0.39915 1.0854,-0.0743 1.23259,0.84749 0.15966,0.99986 -0.85285,0.12113 -0.97155,0.69625 -0.14369,0.69625 0.31612,0 0.74377,0.16901 0.95034,0.37558 0.55394,0.55393 -0.12618,1.221 -1.24489,1.221 -0.50537,0 -0.91885,0.14369 -0.91885,0.31931 0,0.59557 2.42112,0.35735 3.01278,-0.29643 z m 12.889092,0.23255 c 0.5551,-0.55512 0.47481,-2.06784 -0.12192,-2.29683 -0.27779,-0.10656 -0.84806,-0.19382 -1.26724,-0.19382 -1.08146,0 -0.65466,-0.93556 0.53539,-1.17356 1.20653,-0.2413 1.17932,-0.74233 -0.0403,-0.74233 -1.31015,0 -2.23519,0.99981 -2.23519,2.41585 0,1.7015 0.48252,2.37387 1.70359,2.37387 0.57338,0 1.21494,-0.17242 1.42569,-0.38318 z m -1.7722,-0.46692 c -0.57293,-0.23118 -0.49194,-0.96185 0.13322,-1.20174 0.67163,-0.25774 1.20934,0.25514 0.95697,0.91278 -0.19748,0.51461 -0.39875,0.56796 -1.09019,0.28896 z m 14.12565,-1.37713 c 0.61688,-1.22497 1.1216,-2.30266 1.1216,-2.39485 0,-0.0922 -0.86214,-0.16764 -1.91588,-0.16764 -1.06438,0 -1.91589,0.14192 -1.91589,0.31933 0,0.17562 0.57477,0.31931 1.27727,0.31931 0.70248,0 1.27725,0.0759 1.27725,0.16876 0,0.0928 -0.43314,1.02681 -0.96254,2.07554 -0.74788,1.48154 -0.85559,1.90678 -0.48299,1.90678 0.2735,0 0.96151,-0.95703 1.60118,-2.22723 z m 34.81044,1.5873 c 0.79666,-0.8803 0.21965,-2.2339 -0.95227,-2.2339 -0.5028,0 -0.80513,-0.17986 -0.80513,-0.47897 0,-0.31932 0.31931,-0.47897 0.95794,-0.47897 0.63862,0 0.95795,-0.15966 0.95795,-0.47897 0,-0.36189 -0.39028,-0.47898 -1.59658,-0.47898 h -1.59657 v 1.43692 c 0,1.37729 0.039,1.43691 0.9391,1.43691 0.5165,0 1.0186,0.12864 1.11576,0.28586 0.20199,0.32682 -0.53898,0.67209 -1.44235,0.67209 -0.33688,0 -0.61251,0.21554 -0.61251,0.47897 0,0.75656 2.31546,0.63375 3.03466,-0.16096 z M 49.783403,115.1686 c 0,-0.17562 -0.574766,-0.31931 -1.277257,-0.31931 -0.702491,0 -1.277257,0.14369 -1.277257,0.31931 0,0.17562 0.574766,0.31933 1.277257,0.31933 0.702491,0 1.277257,-0.14371 1.277257,-0.31933 z m 17.242973,0 c 0,-0.17562 -0.574765,-0.31931 -1.277256,-0.31931 -0.702493,0 -1.277258,0.14369 -1.277258,0.31931 0,0.17562 0.574765,0.31933 1.277258,0.31933 0.702491,0 1.277256,-0.14371 1.277256,-0.31933 z m -34.485945,-9.2601 c 0,-0.17564 -0.287383,-0.31933 -0.638629,-0.31933 -0.591323,0 -0.638629,-0.21287 -0.638629,-2.87382 0,-2.66096 0.04731,-2.873827 0.638629,-2.873827 0.351246,0 0.638629,-0.14369 0.638629,-0.31931 0,-0.175627 -0.502921,-0.319307 -1.117601,-0.319307 h -1.1176 v 3.512444 3.51246 h 1.1176 c 0.61468,0 1.117601,-0.14369 1.117601,-0.31931 z m 42.788118,-3.19315 v -3.512444 h -1.117601 c -0.61468,0 -1.117599,0.14368 -1.117599,0.319307 0,0.17562 0.215536,0.31931 0.478971,0.31931 0.390273,0 0.478972,0.532197 0.478972,2.873827 0,2.34164 -0.0887,2.87382 -0.478972,2.87382 -0.263435,0 -0.478971,0.14369 -0.478971,0.31933 0,0.17562 0.502919,0.31931 1.117599,0.31931 h 1.117601 z m -50.770977,1.59657 c 0,-0.17562 -0.215537,-0.31931 -0.478971,-0.31931 -0.376626,0 -0.478972,-0.4435 -0.478972,-2.07555 0,-1.88468 -0.06066,-2.075537 -0.659621,-2.075537 -0.916055,0 -1.954111,0.603797 -1.711881,0.995737 0.1105,0.17878 0.401903,0.24792 0.647573,0.15366 0.345753,-0.13269 0.446673,0.18705 0.446673,1.41513 0,1.37368 -0.08569,1.58656 -0.638629,1.58656 -0.351246,0 -0.638629,0.14369 -0.638629,0.31931 0,0.17562 0.790303,0.31931 1.756229,0.31931 0.965925,0 1.756228,-0.14369 1.756228,-0.31931 z m 12.154936,-0.0109 c 0.650793,-0.3483 0.848975,-1.724 0.297459,-2.06485 -0.208459,-0.12883 -0.212776,-0.39856 -0.01237,-0.77302 0.492664,-0.92055 -0.282035,-1.692187 -1.57284,-1.566597 -0.593402,0.0577 -1.14045,0.292277 -1.215662,0.521247 -0.09465,0.28817 0.133152,0.38645 0.740202,0.31931 1.055332,-0.1167 1.478286,0.66311 0.498606,0.9193 -0.904899,0.23664 -0.848502,0.62649 0.126015,0.87107 1.432712,0.3596 0.8106,1.46546 -0.8244,1.46546 -0.336882,0 -0.612513,0.14369 -0.612513,0.31932 0,0.41892 1.786314,0.41112 2.575506,-0.0109 z m 17.860611,0.0109 c 0,-0.17562 -0.215538,-0.31931 -0.478972,-0.31931 -0.376629,0 -0.478971,-0.4435 -0.478971,-2.07555 0,-1.88468 -0.06066,-2.075537 -0.659621,-2.075537 -0.842754,0 -1.894894,0.558817 -1.894894,1.006417 0,0.18992 0.287383,0.27017 0.638628,0.17831 0.574546,-0.15024 0.638629,-0.01 0.638629,1.39968 0,1.3538 -0.08677,1.56668 -0.638629,1.56668 -0.351245,0 -0.638628,0.14369 -0.638628,0.31931 0,0.17562 0.790303,0.31931 1.756228,0.31931 0.965926,0 1.75623,-0.14369 1.75623,-0.31931 z m 16.740816,-0.38312 c 0.417387,-0.59589 0.426954,-0.8017 0.06309,-1.35708 -0.310971,-0.47465 -0.336615,-0.80095 -0.09327,-1.18669 0.533763,-0.84609 -0.302122,-1.595367 -1.650857,-1.479827 -0.616137,0.0527 -1.180011,0.277867 -1.253054,0.500167 -0.09218,0.28057 0.182639,0.37823 0.898515,0.31931 1.258092,-0.10355 1.641841,0.60552 0.484866,0.89591 -0.976543,0.24509 -1.094395,0.77545 -0.172321,0.77545 0.792254,0 1.209965,0.9154 0.595311,1.30458 -0.245122,0.15522 -0.768979,0.28441 -1.164131,0.28709 -0.395151,0.002 -0.718458,0.14859 -0.718458,0.32421 0,0.17562 0.566617,0.31931 1.259153,0.31931 0.93529,0 1.385693,-0.18067 1.751148,-0.70243 z m 12.6361,0.0639 c 0.351246,-0.35126 0.638629,-0.77207 0.638629,-0.93515 0,-0.56434 -1.006782,-1.30006 -1.779038,-1.30006 -0.5626,0 -0.775477,-0.17531 -0.775477,-0.63862 0,-0.517 0.212877,-0.63863 1.1176,-0.63863 0.614681,0 1.117601,-0.14369 1.117601,-0.31931 0,-0.175637 -0.718458,-0.319327 -1.596572,-0.319327 h -1.596572 v 1.277267 c 0,1.20923 0.05156,1.27725 0.967963,1.27725 0.59297,0 1.043963,0.19805 1.164131,0.5112 0.229242,0.5974 -0.393721,1.07354 -1.413636,1.08048 -0.395152,0.002 -0.718458,0.14859 -0.718458,0.32421 0,0.59283 2.206897,0.34761 2.873829,-0.31931 z m 12.911523,0.0229 c 0.58941,-0.65132 0.44044,-1.93878 -0.22433,-1.93878 -0.25739,0 -0.25118,-0.11043 0.0215,-0.38318 0.54096,-0.54096 0.47568,-1.42889 -0.12191,-1.65821 -0.9636,-0.369767 -2.36874,-0.212307 -2.36874,0.26544 0,0.3027 0.29933,0.43876 0.87811,0.39914 1.0854,-0.0743 1.23259,0.84749 0.15966,0.99987 -0.85285,0.12112 -0.97155,0.69625 -0.14369,0.69625 0.31612,0 0.74377,0.16901 0.95034,0.37557 0.55394,0.55394 -0.12618,1.221 -1.24489,1.221 -0.50537,0 -0.91885,0.14369 -0.91885,0.31931 0,0.59558 2.42112,0.35735 3.01278,-0.29642 z m 12.889092,0.23255 c 0.5551,-0.55512 0.47481,-2.06784 -0.12192,-2.29683 -0.27779,-0.10657 -0.84806,-0.19383 -1.26724,-0.19383 -1.08146,0 -0.65466,-0.93555 0.53539,-1.17356 1.20653,-0.24129 1.17932,-0.742317 -0.0403,-0.742317 -1.31015,0 -2.23519,0.999807 -2.23519,2.415847 0,1.7015 0.48252,2.37386 1.70359,2.37386 0.57338,0 1.21494,-0.17242 1.42569,-0.38317 z m -1.7722,-0.46692 c -0.57293,-0.23119 -0.49194,-0.96186 0.13322,-1.20174 0.67163,-0.25774 1.20934,0.25514 0.95697,0.91278 -0.19748,0.5146 -0.39875,0.56796 -1.09019,0.28896 z m 14.12565,-1.37714 c 0.61688,-1.22497 1.1216,-2.30266 1.1216,-2.39485 0,-0.0922 -0.86214,-0.167627 -1.91588,-0.167627 -1.06438,0 -1.91589,0.14191 -1.91589,0.319317 0,0.17562 0.57477,0.31931 1.27727,0.31931 0.70248,0 1.27725,0.0759 1.27725,0.16877 0,0.0928 -0.43314,1.0268 -0.96254,2.07554 -0.74788,1.48154 -0.85559,1.90677 -0.48299,1.90677 0.2735,0 0.96151,-0.95702 1.60118,-2.22723 z m 34.6706,1.89669 c 0.64789,-0.34674 0.83709,-1.41201 0.30878,-1.73853 -0.16987,-0.105 -0.22933,-0.58851 -0.13213,-1.0745 0.2272,-1.13599 -0.456,-1.722287 -1.85057,-1.588087 -0.71359,0.0687 -1.09135,0.288077 -1.16499,0.676657 -0.0834,0.44015 0.0658,0.55251 0.63601,0.47897 0.40974,-0.0529 0.81684,0.0477 0.90465,0.22324 0.0879,0.17562 -0.16365,0.36523 -0.5588,0.42135 -1.05094,0.14925 -0.87708,0.90401 0.26065,1.13155 0.60648,0.1213 0.89556,0.33102 0.75956,0.55106 -0.12584,0.20361 -0.61189,0.27676 -1.13876,0.17139 -0.76452,-0.15291 -0.91922,-0.0777 -0.91922,0.4468 0,0.51008 0.21768,0.63064 1.13859,0.63064 0.62623,0 1.41653,-0.14874 1.75623,-0.33054 z M 49.783403,102.71542 c 0,-0.17562 -0.574766,-0.31931 -1.277257,-0.31931 -0.702491,0 -1.277257,0.14369 -1.277257,0.31931 0,0.17562 0.574766,0.31932 1.277257,0.31932 0.702491,0 1.277257,-0.1437 1.277257,-0.31932 z m 17.242973,0 c 0,-0.17562 -0.574765,-0.31931 -1.277256,-0.31931 -0.702493,0 -1.277258,0.14369 -1.277258,0.31931 0,0.17562 0.574765,0.31932 1.277258,0.31932 0.702491,0 1.277256,-0.1437 1.277256,-0.31932 z M 19.767858,93.455498 c 0,-0.17562 -0.287383,-0.31931 -0.638629,-0.31931 -0.591323,0 -0.638628,-0.21288 -0.638628,-2.873827 0,-2.66095 0.04731,-2.87383 0.638628,-2.87383 0.351246,0 0.638629,-0.14369 0.638629,-0.31932 0,-0.17562 -0.50292,-0.319307 -1.117601,-0.319307 h -1.117599 v 3.512457 3.512447 h 1.117599 c 0.614681,0 1.117601,-0.14369 1.117601,-0.31931 z m 38.317717,-3.193137 v -3.512457 h -1.117599 c -0.61468,0 -1.117601,0.143687 -1.117601,0.319307 0,0.17563 0.287383,0.31932 0.638629,0.31932 0.591322,0 0.638628,0.21288 0.638628,2.87383 0,2.660947 -0.04731,2.873827 -0.638628,2.873827 -0.351246,0 -0.638629,0.14369 -0.638629,0.31931 0,0.17562 0.502921,0.31931 1.117601,0.31931 h 1.117599 z m -33.528003,1.59656 c 0,-0.17562 -0.215537,-0.31931 -0.478971,-0.31931 -0.376626,0 -0.478972,-0.44349 -0.478972,-2.07554 0,-1.88469 -0.06066,-2.07554 -0.659621,-2.07554 -0.916055,0 -1.954111,0.60379 -1.711881,0.99573 0.1105,0.17879 0.401903,0.24793 0.647573,0.15366 0.345753,-0.13268 0.446673,0.18705 0.446673,1.41515 0,1.37367 -0.08569,1.58654 -0.638629,1.58654 -0.351246,0 -0.638629,0.14369 -0.638629,0.31931 0,0.17564 0.790303,0.319327 1.756229,0.319327 0.965925,0 1.756228,-0.143687 1.756228,-0.319327 z m 12.154936,-0.0109 c 0.650793,-0.34828 0.848975,-1.72398 0.297459,-2.06483 -0.208459,-0.12885 -0.212776,-0.39857 -0.01237,-0.77303 0.492664,-0.92056 -0.282035,-1.69218 -1.57284,-1.5666 -0.593402,0.0577 -1.14045,0.29229 -1.215662,0.52125 -0.09465,0.28818 0.133152,0.38645 0.740202,0.31932 1.055332,-0.11671 1.478286,0.6631 0.498606,0.91929 -0.904899,0.23665 -0.848502,0.6265 0.126015,0.87108 1.432712,0.35959 0.8106,1.46545 -0.8244,1.46545 -0.336882,0 -0.612513,0.1437 -0.612513,0.31932 0,0.418927 1.786314,0.411127 2.575506,-0.0109 z m 17.860611,0.0109 c 0,-0.17562 -0.215538,-0.31931 -0.478972,-0.31931 -0.376629,0 -0.478971,-0.44349 -0.478971,-2.07554 0,-1.88469 -0.06066,-2.07554 -0.659621,-2.07554 -0.842754,0 -1.894894,0.55881 -1.894894,1.00642 0,0.18993 0.287383,0.27017 0.638628,0.17832 0.574546,-0.15026 0.638629,-0.01 0.638629,1.39967 0,1.3538 -0.08677,1.56667 -0.638629,1.56667 -0.351245,0 -0.638628,0.14369 -0.638628,0.31931 0,0.17564 0.790303,0.319327 1.756228,0.319327 0.965926,0 1.75623,-0.143687 1.75623,-0.319327 z m 16.740816,-0.3831 c 0.417387,-0.59591 0.426954,-0.8017 0.06309,-1.35709 -0.310971,-0.47464 -0.336615,-0.80095 -0.09327,-1.18669 0.533763,-0.84609 -0.302122,-1.59538 -1.650857,-1.47982 -0.616137,0.0527 -1.180011,0.27785 -1.253054,0.50016 -0.09218,0.28057 0.182639,0.37824 0.898515,0.31932 1.258092,-0.10355 1.641841,0.60551 0.484866,0.8959 -0.976543,0.2451 -1.094395,0.77544 -0.172321,0.77544 0.792254,0 1.209965,0.9154 0.595311,1.3046 -0.245122,0.15521 -0.768979,0.2844 -1.164131,0.28709 -0.395151,0.002 -0.718458,0.14857 -0.718458,0.32419 0,0.17564 0.566617,0.319327 1.259153,0.319327 0.93529,0 1.385693,-0.180667 1.751148,-0.702427 z m 12.6361,0.0638 c 0.351246,-0.35124 0.638629,-0.77206 0.638629,-0.93513 0,-0.56434 -1.006782,-1.30008 -1.779038,-1.30008 -0.5626,0 -0.775477,-0.1753 -0.775477,-0.63862 0,-0.51699 0.212877,-0.63863 1.1176,-0.63863 0.614681,0 1.117601,-0.14369 1.117601,-0.31931 0,-0.17562 -0.718458,-0.31932 -1.596572,-0.31932 h -1.596572 v 1.27726 c 0,1.20924 0.05156,1.27726 0.967963,1.27726 0.59297,0 1.043963,0.19804 1.164131,0.5112 0.229242,0.59739 -0.393721,1.07353 -1.413636,1.08048 -0.395152,0.002 -0.718458,0.14858 -0.718458,0.3242 0,0.592837 2.206897,0.347627 2.873829,-0.31931 z m 12.911523,0.0229 c 0.58941,-0.65131 0.44044,-1.93878 -0.22433,-1.93878 -0.25739,0 -0.25118,-0.11042 0.0215,-0.38317 0.54096,-0.54097 0.47568,-1.4289 -0.12191,-1.65821 -0.9636,-0.36977 -2.36874,-0.21231 -2.36874,0.26543 0,0.30272 0.29933,0.43877 0.87811,0.39915 1.0854,-0.0743 1.23259,0.84749 0.15966,0.99987 -0.85285,0.12112 -0.97155,0.69624 -0.14369,0.69624 0.31612,0 0.74377,0.16901 0.95034,0.37559 0.55394,0.55392 -0.12618,1.22099 -1.24489,1.22099 -0.50537,0 -0.91885,0.14369 -0.91885,0.31931 0,0.595567 2.42112,0.357347 3.01278,-0.29643 z m 12.889092,0.23255 c 0.5551,-0.5551 0.47481,-2.06784 -0.12192,-2.29683 -0.27779,-0.10656 -0.84806,-0.19382 -1.26724,-0.19382 -1.08146,0 -0.65466,-0.93554 0.53539,-1.17356 1.20653,-0.2413 1.17932,-0.74233 -0.0403,-0.74233 -1.31015,0 -2.23519,0.99981 -2.23519,2.41586 0,1.7015 0.48252,2.373857 1.70359,2.373857 0.57338,0 1.21494,-0.172417 1.42569,-0.383177 z m -1.7722,-0.46692 c -0.57293,-0.23118 -0.49194,-0.96185 0.13322,-1.20174 0.67163,-0.25774 1.20934,0.25514 0.95697,0.91278 -0.19748,0.51461 -0.39875,0.56796 -1.09019,0.28896 z m 14.12565,-1.37713 c 0.61688,-1.22497 1.1216,-2.30266 1.1216,-2.39485 0,-0.0922 -0.86214,-0.16764 -1.91588,-0.16764 -1.06438,0 -1.91589,0.14192 -1.91589,0.31933 0,0.17562 0.57477,0.31931 1.27727,0.31931 0.70248,0 1.27725,0.0759 1.27725,0.16876 0,0.0928 -0.43314,1.02681 -0.96254,2.07555 -0.74788,1.48153 -0.85559,1.906767 -0.48299,1.906767 0.2735,0 0.96151,-0.957027 1.60118,-2.227227 z m 34.6706,1.89668 c 0.64789,-0.34674 0.83709,-1.41201 0.30878,-1.73852 -0.16987,-0.105 -0.22933,-0.58851 -0.13213,-1.0745 0.2272,-1.13599 -0.456,-1.72229 -1.85057,-1.5881 -0.71359,0.0687 -1.09135,0.28808 -1.16499,0.67667 -0.0834,0.44015 0.0658,0.55251 0.63601,0.47896 0.40974,-0.0529 0.81684,0.0477 0.90465,0.22325 0.0879,0.17562 -0.16365,0.36523 -0.5588,0.42135 -1.05094,0.14925 -0.87708,0.904 0.26065,1.13156 0.60648,0.12129 0.89556,0.331 0.75956,0.55105 -0.12584,0.20361 -0.61189,0.27677 -1.13876,0.17138 -0.76452,-0.15291 -0.91922,-0.0777 -0.91922,0.44681 0,0.51007 0.21768,0.630637 1.13859,0.630637 0.62623,0 1.41653,-0.148747 1.75623,-0.330547 z M 49.783403,90.262451 c 0,-0.17563 -0.574766,-0.31933 -1.277257,-0.31933 -0.702491,0 -1.277257,0.1437 -1.277257,0.31933 0,0.17562 0.574766,0.31931 1.277257,0.31931 0.702491,0 1.277257,-0.14369 1.277257,-0.31931 z m 17.242973,0 c 0,-0.17563 -0.574765,-0.31933 -1.277256,-0.31933 -0.702493,0 -1.277258,0.1437 -1.277258,0.31933 0,0.17562 0.574765,0.31931 1.277258,0.31931 0.702491,0 1.277256,-0.14369 1.277256,-0.31931 z M 20.087172,77.809107 c 0,-0.17562 -0.646611,-0.31931 -1.436915,-0.31931 -0.790302,0 -1.436914,0.14369 -1.436914,0.31931 0,0.17563 0.646612,0.31931 1.436914,0.31931 0.790304,0 1.436915,-0.14368 1.436915,-0.31931 z m 4.151086,0 c 0,-0.17562 -0.574765,-0.31931 -1.277258,-0.31931 -0.702491,0 -1.277256,0.14369 -1.277256,0.31931 0,0.17563 0.574765,0.31931 1.277256,0.31931 0.702493,0 1.277258,-0.14368 1.277258,-0.31931 z m 4.151086,0 c 0,-0.17562 -0.574766,-0.31931 -1.277257,-0.31931 -0.702491,0 -1.277257,0.14369 -1.277257,0.31931 0,0.17563 0.574766,0.31931 1.277257,0.31931 0.702491,0 1.277257,-0.14368 1.277257,-0.31931 z m 4.470401,0 c 0,-0.17562 -0.646612,-0.31931 -1.436915,-0.31931 -0.790303,0 -1.436914,0.14369 -1.436914,0.31931 0,0.17563 0.646611,0.31931 1.436914,0.31931 0.790303,0 1.436915,-0.14368 1.436915,-0.31931 z m 4.151086,0 c 0,-0.17562 -0.574765,-0.31931 -1.277258,-0.31931 -0.702491,0 -1.277257,0.14369 -1.277257,0.31931 0,0.17563 0.574766,0.31931 1.277257,0.31931 0.702493,0 1.277258,-0.14368 1.277258,-0.31931 z m 4.151086,0 c 0,-0.17562 -0.574766,-0.31931 -1.277257,-0.31931 -0.702492,0 -1.277258,0.14369 -1.277258,0.31931 0,0.17563 0.574766,0.31931 1.277258,0.31931 0.702491,0 1.277257,-0.14368 1.277257,-0.31931 z m 4.4704,0 c 0,-0.17562 -0.574765,-0.31931 -1.277256,-0.31931 -0.702493,0 -1.277258,0.14369 -1.277258,0.31931 0,0.17563 0.574765,0.31931 1.277258,0.31931 0.702491,0 1.277256,-0.14368 1.277256,-0.31931 z m 4.151086,0 c 0,-0.17562 -0.574766,-0.31931 -1.277257,-0.31931 -0.702491,0 -1.277257,0.14369 -1.277257,0.31931 0,0.17563 0.574766,0.31931 1.277257,0.31931 0.702491,0 1.277257,-0.14368 1.277257,-0.31931 z m 4.470401,0 c 0,-0.17562 -0.646612,-0.31931 -1.436915,-0.31931 -0.790303,0 -1.436914,0.14369 -1.436914,0.31931 0,0.17563 0.646611,0.31931 1.436914,0.31931 0.790303,0 1.436915,-0.14368 1.436915,-0.31931 z m 4.151086,0 c 0,-0.17562 -0.574765,-0.31931 -1.277258,-0.31931 -0.702491,0 -1.277257,0.14369 -1.277257,0.31931 0,0.17563 0.574766,0.31931 1.277257,0.31931 0.702493,0 1.277258,-0.14368 1.277258,-0.31931 z m 4.151086,0 c 0,-0.17562 -0.574766,-0.31931 -1.277257,-0.31931 -0.702492,0 -1.277258,0.14369 -1.277258,0.31931 0,0.17563 0.574766,0.31931 1.277258,0.31931 0.702491,0 1.277257,-0.14368 1.277257,-0.31931 z m 4.4704,0 c 0,-0.17562 -0.574765,-0.31931 -1.277256,-0.31931 -0.702493,0 -1.277258,0.14369 -1.277258,0.31931 0,0.17563 0.574765,0.31931 1.277258,0.31931 0.702491,0 1.277256,-0.14368 1.277256,-0.31931 z m 4.151086,0 c 0,-0.17562 -0.574766,-0.31931 -1.277257,-0.31931 -0.702491,0 -1.277257,0.14369 -1.277257,0.31931 0,0.17563 0.574766,0.31931 1.277257,0.31931 0.702491,0 1.277257,-0.14368 1.277257,-0.31931 z m 4.470401,0 c 0,-0.17562 -0.646612,-0.31931 -1.436915,-0.31931 -0.790303,0 -1.436914,0.14369 -1.436914,0.31931 0,0.17563 0.646611,0.31931 1.436914,0.31931 0.790303,0 1.436915,-0.14368 1.436915,-0.31931 z m 4.151086,0 c 0,-0.17562 -0.574766,-0.31931 -1.277258,-0.31931 -0.702491,0 -1.277257,0.14369 -1.277257,0.31931 0,0.17563 0.574766,0.31931 1.277257,0.31931 0.702492,0 1.277258,-0.14368 1.277258,-0.31931 z m 68.333271,0 c 0,-0.17562 -0.57477,-0.31931 -1.27725,-0.31931 -0.70249,0 -1.27726,0.14369 -1.27726,0.31931 0,0.17563 0.57477,0.31931 1.27726,0.31931 0.70248,0 1.27725,-0.14368 1.27725,-0.31931 z m 4.4704,0 c 0,-0.17562 -0.57476,-0.31931 -1.27725,-0.31931 -0.7025,0 -1.27727,0.14369 -1.27727,0.31931 0,0.17563 0.57477,0.31931 1.27727,0.31931 0.70249,0 1.27725,-0.14368 1.27725,-0.31931 z m 4.15108,0 c 0,-0.17562 -0.57476,-0.31931 -1.27725,-0.31931 -0.70249,0 -1.27725,0.14369 -1.27725,0.31931 0,0.17563 0.57476,0.31931 1.27725,0.31931 0.70249,0 1.27725,-0.14368 1.27725,-0.31931 z m 4.47041,0 c 0,-0.17562 -0.64661,-0.31931 -1.43691,-0.31931 -0.79031,0 -1.43692,0.14369 -1.43692,0.31931 0,0.17563 0.64661,0.31931 1.43692,0.31931 0.7903,0 1.43691,-0.14368 1.43691,-0.31931 z m 4.15109,0 c 0,-0.17562 -0.57476,-0.31931 -1.27726,-0.31931 -0.70249,0 -1.27726,0.14369 -1.27726,0.31931 0,0.17563 0.57477,0.31931 1.27726,0.31931 0.7025,0 1.27726,-0.14368 1.27726,-0.31931 z M 20.348867,67.007253 c 0.120742,-0.82057 1.654191,-1.01939 1.654191,-0.21449 0,0.26344 -0.25146,0.48118 -0.558799,0.48387 -0.47755,0.004 -0.489158,0.0498 -0.07983,0.31442 0.986071,0.63726 1.277257,0.35588 1.277257,-1.23419 0,-1.061383 0.198994,-1.806485 0.628169,-2.352093 0.668007,-0.849241 0.576174,-1.277941 -0.209192,-0.976565 -0.354401,0.136001 -0.450882,-0.01291 -0.376456,-0.5808 0.117777,-0.89877 0.06995,-0.923318 -1.79875,-0.923318 -1.224038,0 -1.436914,0.09462 -1.436914,0.638633 0,0.84311 -0.408429,0.812987 -0.802396,-0.05914 -0.332765,-0.736678 -1.11349,-1.177615 -1.11349,-0.628882 0,0.177722 0.222341,0.545464 0.494092,0.817212 0.421212,0.421205 0.435865,0.688439 0.09935,1.811637 -0.232973,0.77759 -0.652748,1.412989 -1.024303,1.550446 -0.531501,0.1966 -0.550835,0.26309 -0.124134,0.42682 0.325453,0.12489 0.444139,0.42832 0.333314,0.85212 -0.116595,0.44584 -0.01959,0.65816 0.300696,0.65816 0.317969,0 0.536995,-0.46826 0.668792,-1.42984 0.274989,-2.006257 1.090231,-2.721248 3.102813,-2.721248 0.995633,0 1.5397,0.122508 1.41807,0.31931 -0.108545,0.175622 -0.907324,0.319323 -1.775075,0.319323 h -1.577725 v 1.942485 c 0,1.41123 0.10916,1.90655 0.399142,1.81106 0.219529,-0.0723 0.44506,-0.44351 0.50118,-0.8249 z m 0.05762,-1.33208 c 0,-0.175626 0.359228,-0.319314 0.798285,-0.319314 0.439057,0 0.798286,0.143688 0.798286,0.319314 0,0.17562 -0.359229,0.31932 -0.798286,0.31932 -0.439057,0 -0.798285,-0.1437 -0.798285,-0.31932 z m 0,-0.957947 c 0,-0.175622 0.359228,-0.31931 0.798285,-0.31931 0.439057,0 0.798286,0.143688 0.798286,0.31931 0,0.175622 -0.359229,0.319322 -0.798286,0.319322 -0.439057,0 -0.798285,-0.1437 -0.798285,-0.319322 z m 1.277257,-2.053335 c 0,-0.251219 -0.323306,-0.519033 -0.718457,-0.595137 -0.616004,-0.118634 -0.593236,-0.144582 0.159657,-0.181874 0.679733,-0.03367 0.878114,0.100773 0.878114,0.59515 0,0.351244 -0.07184,0.638633 -0.159657,0.638633 -0.08781,0 -0.159657,-0.205552 -0.159657,-0.456772 z m 6.670081,4.120552 c 0.582484,-0.66341 1.071932,-1.647194 1.191489,-2.394855 0.239547,-1.498047 1.079231,-1.771063 1.079231,-0.350905 0,1.85796 -0.366188,2.8749 -1.074199,2.98316 -0.672744,0.10282 -0.671782,0.11006 0.07071,0.52598 1.098099,0.6152 1.450002,0.0743 1.643144,-2.525057 l 0.165051,-2.221426 h -0.881323 c -0.727203,0 -0.881324,-0.139597 -0.881324,-0.798288 0,-0.439054 -0.143692,-0.798275 -0.319315,-0.798275 -0.175623,0 -0.319314,0.359221 -0.319314,0.798275 0,0.577325 -0.171557,0.798288 -0.619784,0.798288 -0.34088,0 -0.708589,0.143689 -0.81713,0.319323 -0.108545,0.175621 -0.871402,0.338873 -1.695246,0.362793 -0.823843,0.0239 -1.174592,0.105721 -0.77944,0.181861 0.878777,0.169262 0.884386,0.296863 0.07165,1.629909 -0.799485,1.311307 -0.589863,1.721147 0.657857,1.286187 0.525183,-0.18308 1.188178,-0.24335 1.47332,-0.13393 0.470137,0.18042 0.465154,0.25782 -0.05349,0.83092 -0.314559,0.34758 -0.420849,0.63197 -0.2362,0.63197 0.184649,0 0.780587,-0.50667 1.324306,-1.12593 z M 26.231042,64.88084 c 0.47834,-0.73844 0.969806,-1.11498 1.458695,-1.117598 0.409488,-0.0024 0.64956,-0.145921 0.539956,-0.323269 -0.108545,-0.175622 0.02941,-0.31931 0.306552,-0.31931 0.384207,0 0.457481,0.208569 0.30848,0.878109 -0.483703,2.173511 -0.434663,2.125181 -1.323508,1.304564 l -0.807764,-0.745765 0.220838,0.718454 c 0.18944,0.616318 0.103862,0.718468 -0.601902,0.718468 H 25.50965 Z m 12.080779,1.113653 c 0.03086,-2.284172 0.222897,-3.270186 0.693546,-3.561075 0.616774,-0.381186 -0.02814,-0.738018 -1.157934,-0.640672 -0.649346,0.056 -1.201734,-0.09884 -1.458886,-0.40863 -0.54058,-0.651353 -1.097633,-0.642048 -0.845832,0.01412 0.164224,0.427964 -0.01002,0.493074 -1.053023,0.393604 -0.962678,-0.09184 -1.336166,0.01907 -1.625744,0.482804 -0.568239,0.909885 0.03883,1.340347 1.339156,0.949579 0.578327,-0.1738 1.015581,-0.483745 0.971674,-0.688765 -0.05258,-0.245548 0.471503,-0.372775 1.535588,-0.372775 0.888479,0 1.538521,0.124427 1.444536,0.276491 -0.09399,0.152077 -0.569462,0.216764 -1.056617,0.143761 l -0.885735,-0.13273 0.878114,0.50507 c 1.148714,0.660706 1.107822,0.803984 -0.229464,0.803984 -0.853326,0 -1.065386,-0.109945 -0.92378,-0.478965 0.101086,-0.263445 0.02023,-0.478978 -0.1797,-0.478978 -0.199924,0 -0.446209,0.215533 -0.547297,0.478978 -0.101087,0.263432 -0.527654,0.478965 -0.947922,0.478965 -0.724447,0 -0.764122,0.103669 -0.764122,1.995724 v 1.9957 h 2.394857 2.394857 z m -2.897557,0.95794 c 0.619073,-0.40008 0.957943,-0.40008 0.957943,0 0,0.17562 -0.323306,0.31711 -0.718457,0.31442 -0.580973,-0.004 -0.626801,-0.0641 -0.239486,-0.31442 z m 1.507932,-0.30448 c -0.08972,-0.34308 0.03265,-0.88192 0.271917,-1.197428 0.392114,-0.517042 0.436043,-0.455493 0.445197,0.623788 0.01074,1.26545 -0.441585,1.62727 -0.717114,0.57364 z m -2.785188,-0.33415 c 0,-0.41929 0.212875,-0.63863 0.619782,-0.63863 0.888746,0 1.103115,0.54855 0.368095,0.94192 -0.868024,0.46455 -0.987877,0.42776 -0.987877,-0.30329 z m 1.436914,-0.957944 c -0.108545,-0.175622 0.02667,-0.319311 0.300469,-0.319311 0.273798,0 0.497816,0.143689 0.497816,0.319311 0,0.175622 -0.135211,0.319314 -0.30047,0.319314 -0.165257,0 -0.389275,-0.143692 -0.497815,-0.319314 z m -1.436914,-0.638633 c 0,-0.426648 0.212875,-0.638621 0.641333,-0.638621 0.561402,0 0.591627,0.07965 0.242505,0.638621 -0.219357,0.351244 -0.507958,0.638633 -0.641335,0.638633 -0.133377,0 -0.242503,-0.287389 -0.242503,-0.638633 z m 1.753207,-0.324198 c -0.111357,-0.180184 0.222701,-0.314423 0.782461,-0.314423 0.537234,0 0.976788,0.112359 0.976788,0.249663 0,0.37234 -1.53425,0.428808 -1.759249,0.06481 z m -2.391836,-1.740107 c 0,-0.277324 0.277329,-0.490201 0.638629,-0.490201 0.351245,0 0.638627,0.06674 0.638627,0.148419 0,0.08158 -0.287382,0.302221 -0.638627,0.490201 -0.509723,0.272798 -0.638629,0.242844 -0.638629,-0.148419 z m 15.530922,4.778482 c 0.203384,-0.53002 1.392731,-0.66636 1.392731,-0.15966 0,0.17562 0.143692,0.31931 0.319314,0.31931 0.175623,0 0.319315,-0.69907 0.319315,-1.5535 0,-1.743005 0.894696,-3.236213 1.939061,-3.236213 0.543952,0 0.615454,0.238668 0.615454,2.054337 0,1.989346 -0.02705,2.057536 -0.854601,2.155376 l -0.854604,0.10101 0.861054,0.45656 c 1.285776,0.68175 1.611966,0.12728 1.630562,-2.771684 l 0.01587,-2.474588 -0.878405,0.102703 c -0.742964,0.08689 -0.86605,-0.006 -0.798285,-0.603428 0.145422,-1.281695 -0.603807,-0.980306 -1.024202,0.412009 -0.372412,1.233384 -0.438366,1.296744 -0.679574,0.652813 -0.174086,-0.464725 -0.438242,-0.647479 -0.758361,-0.524633 -0.54273,0.208267 -0.682407,-0.362612 -0.166708,-0.681331 0.178487,-0.110307 0.241855,-0.334324 0.140811,-0.497817 -0.331709,-0.536725 -0.768886,-0.311562 -0.972839,0.501039 -0.110198,0.439055 -0.400314,0.798288 -0.644711,0.798288 -0.344745,0 -0.444354,0.608425 -0.444354,2.714173 0,1.651636 0.128926,2.714166 0.329334,2.714166 0.181137,0 0.412046,-0.21554 0.513134,-0.47897 z m 0.115472,-1.75623 c 0,-0.745069 0.141915,-0.957947 0.638628,-0.957947 0.496713,0 0.638629,0.212878 0.638629,0.957947 0,0.74506 -0.141916,0.95794 -0.638629,0.95794 -0.496713,0 -0.638628,-0.21288 -0.638628,-0.95794 z m 0,-2.075545 c 0,-0.58541 0.170299,-0.798288 0.638628,-0.798288 0.468329,0 0.638629,0.212878 0.638629,0.798288 0,0.58541 -0.1703,0.798288 -0.638629,0.798288 -0.468329,0 -0.638628,-0.212878 -0.638628,-0.798288 z m 8.302172,3.991425 c 0,-0.188 1.123881,-0.31931 2.733017,-0.31931 1.678999,0 2.6594,-0.11912 2.542132,-0.30886 -0.104985,-0.16986 -0.632811,-0.22047 -1.172947,-0.11248 -0.919405,0.18388 -0.96711,0.14757 -0.747656,-0.56926 0.128927,-0.42112 0.424095,-1.229521 0.655926,-1.796466 0.274518,-0.671327 0.309448,-1.100051 0.100169,-1.229402 -0.498571,-0.308134 -0.73147,0.09981 -1.07715,1.886789 l -0.319314,1.650669 -1.382724,0.0994 -1.382726,0.0995 0.131187,-2.494298 c 0.07216,-1.371859 0.242755,-2.745757 0.379119,-3.053096 0.178902,-0.403223 0.105069,-0.558799 -0.265207,-0.558799 -0.282226,0 -0.51454,0.179617 -0.516255,0.399144 -0.0016,0.219527 -0.354333,1.153514 -0.783594,2.075541 -0.429264,0.922015 -0.650536,1.676397 -0.491721,1.676397 0.158817,0 0.435222,-0.251461 0.61423,-0.558799 0.246504,-0.423221 0.327827,-0.07458 0.335181,1.43691 0.0054,1.11113 0.151243,1.99572 0.329024,1.99572 0.175623,0 0.319315,-0.14369 0.319315,-0.31931 z m 86.518165,-0.13652 c 0.65694,-0.36381 0.88764,-0.36417 1.44001,-0.002 0.36382,0.23838 0.83878,0.31908 1.06285,0.18059 0.28911,-0.17867 0.1712,-0.35696 -0.41173,-0.62255 -0.79266,-0.36117 -0.80213,-0.40063 -0.32018,-1.33265 0.54204,-1.048182 0.54303,-1.047374 -1.19612,-0.966973 -0.6764,0.03126 -1.19744,-0.09426 -1.19744,-0.288378 0,-0.201365 0.68773,-0.343738 1.66045,-0.343738 0.91324,0 1.52392,-0.11091 1.35708,-0.246548 -0.16685,-0.135603 -1.81211,-0.161574 -3.65615,-0.05769 -1.84404,0.10391 -3.10134,0.214808 -2.794,0.246549 0.42725,0.04417 0.55879,0.352149 0.55879,1.308378 0,0.71161 -0.17202,1.31208 -0.39913,1.3932 -0.91204,0.32573 0.112,0.57043 1.16748,0.279 1.02865,-0.28403 1.14754,-0.25336 1.14754,0.29603 0,0.71458 0.48651,0.76293 1.58055,0.15705 z m -0.62261,-0.66177 c 0,-0.26343 0.23314,-0.47896 0.51808,-0.47896 0.4243,0 0.44612,0.0867 0.12057,0.47896 -0.21864,0.26344 -0.45176,0.47898 -0.51807,0.47898 -0.0663,0 -0.12056,-0.21554 -0.12056,-0.47898 z m -1.91588,-0.79827 c 0,-0.17564 0.21554,-0.31932 0.47898,-0.31932 0.26343,0 0.47896,0.14368 0.47896,0.31932 0,0.17562 -0.21553,0.31931 -0.47896,0.31931 -0.26344,0 -0.47898,-0.14369 -0.47898,-0.31931 z m 1.91588,-0.478979 c 0,-0.263433 0.0565,-0.478966 0.1255,-0.478966 0.069,0 0.2082,0.215533 0.3093,0.478966 0.10113,0.263429 0.0446,0.478979 -0.12549,0.478979 -0.17012,0 -0.30931,-0.21555 -0.30931,-0.478979 z m 0.84247,0 c -0.12439,-0.324174 0.0162,-0.478966 0.4348,-0.478966 0.41866,0 0.55918,0.154792 0.43478,0.478966 -0.10113,0.263429 -0.29674,0.478979 -0.43478,0.478979 -0.13804,0 -0.3337,-0.21555 -0.4348,-0.478979 z m -2.75835,-0.478966 c 0,-0.175634 0.21554,-0.319322 0.47898,-0.319322 0.26343,0 0.47896,0.143688 0.47896,0.319322 0,0.175622 -0.21553,0.319311 -0.47896,0.319311 -0.26344,0 -0.47898,-0.143689 -0.47898,-0.319311 z m 0.25945,-0.85676 c 0.2305,-0.0922 0.50591,-0.08086 0.61202,0.02522 0.10608,0.106082 -0.0825,0.181571 -0.41911,0.167705 -0.37197,-0.01533 -0.44764,-0.091 -0.19291,-0.192917 z m 7.85667,2.752975 c 0.6124,-0.53768 1.20645,-1.27065 1.32014,-1.628835 0.19396,-0.611117 0.24124,-0.595162 0.76784,0.25916 0.85343,1.384515 1.82836,2.135235 2.45882,1.893305 0.46854,-0.1798 0.40746,-0.30048 -0.4009,-0.79208 -1.01207,-0.61548 -1.80571,-1.644431 -2.17912,-2.825196 -0.2154,-0.681187 -0.14226,-0.718454 1.40975,-0.718454 0.90031,0 1.55888,-0.126298 1.46348,-0.280667 -0.0953,-0.154357 -0.82234,-0.207519 -1.61543,-0.118151 -1.43722,0.161996 -1.44195,0.159256 -1.44195,-0.836944 0,-0.675538 -0.15524,-0.999459 -0.47898,-0.999459 -0.31931,0 -0.47896,0.319311 -0.47896,0.957943 0,0.921846 -0.0571,0.960103 -1.51675,1.015498 l -1.51674,0.05757 1.51674,0.1196 c 1.37219,0.108255 1.51675,0.195511 1.51675,0.916234 0,1.191638 -0.8047,2.520146 -1.9838,3.275166 -0.69444,0.44467 -0.86433,0.67397 -0.502,0.67753 0.30123,0.002 1.04873,-0.43454 1.66111,-0.97223 z m 10.50279,0.66265 c 1.68618,-0.002 2.42527,-0.11477 2.28273,-0.34544 -0.11598,-0.18759 -0.42142,-0.26026 -0.67884,-0.16148 -0.38855,0.1491 -0.45549,-0.21329 -0.39415,-2.133601 l 0.0739,-2.313207 -0.88668,0.10741 c -0.5774,0.06988 -0.8119,-0.01364 -0.6723,-0.239488 0.11791,-0.19078 0.64544,-0.346863 1.17231,-0.346863 0.55965,0 0.87559,-0.133249 0.75988,-0.320493 -0.10898,-0.176262 -0.54849,-0.232537 -0.9768,-0.125031 -0.58364,0.146477 -0.77871,0.06686 -0.77871,-0.318151 0,-0.282465 -0.21554,-0.513578 -0.47898,-0.513578 -0.26343,0 -0.47896,0.215532 -0.47896,0.478965 0,0.298021 -0.30157,0.478978 -0.79829,0.478978 -0.43905,0 -0.76236,-0.161659 -0.71845,-0.359234 0.0439,-0.197574 -0.0722,-0.415895 -0.25801,-0.485144 -0.27576,-0.102824 -0.95673,1.195561 -2.02912,3.868738 -0.0725,0.180642 0.10717,0.131221 0.39914,-0.109824 0.48422,-0.399712 0.5309,-0.277131 0.5309,1.394333 0,1.74461 0.0345,1.82332 0.71845,1.64003 0.39515,-0.10584 1.84055,-0.19451 3.21199,-0.19691 z m -3.02614,-2.565961 c -0.0583,-1.233263 -0.0582,-2.382795 3.3e-4,-2.554518 0.14048,-0.41184 1.96919,-0.405251 1.96919,0.0072 0,0.175622 -0.28739,0.31931 -0.63863,0.31931 -0.57781,0 -0.63863,0.212878 -0.63863,2.235208 0,2.909091 -0.55463,2.903421 -0.69226,-0.0072 z m 1.6502,1.922981 c 0,-0.17563 0.43108,-0.31932 0.95794,-0.31932 0.52688,0 0.95796,0.14369 0.95796,0.31932 0,0.17562 -0.43108,0.31931 -0.95796,0.31931 -0.52686,0 -0.95794,-0.14369 -0.95794,-0.31931 z m 0,-1.11761 c 0,-0.319309 0.31932,-0.478964 0.95794,-0.478964 0.63864,0 0.95796,0.159655 0.95796,0.478964 0,0.31932 -0.31932,0.47898 -0.95796,0.47898 -0.63862,0 -0.95794,-0.15966 -0.95794,-0.47898 z m 0,-1.117597 c 0,-0.175622 0.43108,-0.31931 0.95794,-0.31931 0.52688,0 0.95796,0.143688 0.95796,0.31931 0,0.175622 -0.43108,0.319322 -0.95796,0.319322 -0.52686,0 -0.95794,-0.1437 -0.95794,-0.319322 z m 0,-1.117598 c 0,-0.31931 0.31932,-0.478965 0.95794,-0.478965 0.63864,0 0.95796,0.159655 0.95796,0.478965 0,0.31931 -0.31932,0.478977 -0.95796,0.478977 -0.63862,0 -0.95794,-0.159667 -0.95794,-0.478977 z m -88.29844,3.659135 c -0.112962,-0.18277 -0.488542,-0.24244 -0.834634,-0.13259 -0.580153,0.18413 -0.623631,0.0606 -0.557114,-1.583589 0.04118,-1.01796 0.219994,-1.783494 0.416647,-1.783772 0.189475,-2.53e-4 0.383893,-0.575019 0.432043,-1.277253 l 0.08754,-1.276782 h -2.881544 -2.881543 v 0.972401 c 0,0.938392 0.0391,0.965075 1.117601,0.762758 0.732582,-0.137437 1.117599,-0.08738 1.117599,0.145185 0,0.197067 -0.603405,0.376177 -1.357086,0.402812 l -1.357085,0.04791 1.436914,0.223389 c 0.957943,0.148938 1.144208,0.23938 0.5588,0.271362 -0.832804,0.0455 -0.878114,0.129242 -0.878114,1.623319 0,1.47346 -0.05681,1.58397 -0.878115,1.70838 -0.482963,0.0731 0.818741,0.15456 2.892675,0.18087 2.541962,0.0322 3.703861,-0.0605 3.565413,-0.28445 z m -4.62203,-0.30633 c 0,-0.17563 0.574765,-0.31932 1.277256,-0.31932 0.702491,0 1.277257,0.14369 1.277257,0.31932 0,0.17562 -0.574766,0.31931 -1.277257,0.31931 -0.702491,0 -1.277256,-0.14369 -1.277256,-0.31931 z m 0.558799,-0.86399 c 0.395151,-0.0761 1.041764,-0.0761 1.436915,0 0.395151,0.0761 0.07184,0.13839 -0.718458,0.13839 -0.790303,0 -1.113608,-0.0623 -0.718457,-0.13839 z m 0,-0.638618 c 0.395151,-0.07615 1.041764,-0.07615 1.436915,0 0.395151,0.07615 0.07184,0.138378 -0.718458,0.138378 -0.790303,0 -1.113608,-0.06227 -0.718457,-0.138378 z M 65.74912,64.717226 c 0,-0.175622 0.574765,-0.31931 1.277256,-0.31931 0.702491,0 1.277257,0.143688 1.277257,0.31931 0,0.175622 -0.574766,0.319322 -1.277257,0.319322 -0.702491,0 -1.277256,-0.1437 -1.277256,-0.319322 z m 1.516743,-0.850098 c 0.219528,-0.08858 0.578757,-0.08858 0.798285,0 0.219529,0.08858 0.03991,0.161055 -0.399143,0.161055 -0.439057,0 -0.618672,-0.07241 -0.399142,-0.161055 z m -0.07983,-0.746465 c -0.115134,-0.186303 0.209559,-0.319323 0.779439,-0.319323 0.537234,0 0.976789,0.143689 0.976789,0.319323 0,0.175621 -0.350747,0.31931 -0.77944,0.31931 -0.428691,0 -0.868247,-0.143689 -0.976788,-0.31931 z M 65.11049,62.003052 c 0,-0.263432 0.143691,-0.478965 0.319314,-0.478965 0.175623,0 0.319315,0.215533 0.319315,0.478965 0,0.263445 -0.143692,0.478978 -0.319315,0.478978 -0.175623,0 -0.319314,-0.215533 -0.319314,-0.478978 z m 1.596572,0 c 0,-0.263432 0.14369,-0.478965 0.319314,-0.478965 0.175623,0 0.319313,0.215533 0.319313,0.478965 0,0.263445 -0.14369,0.478978 -0.319313,0.478978 -0.175624,0 -0.319314,-0.215533 -0.319314,-0.478978 z m 1.59657,0 c 0,-0.263432 0.143692,-0.478965 0.319315,-0.478965 0.175624,0 0.319314,0.215533 0.319314,0.478965 0,0.263445 -0.14369,0.478978 -0.319314,0.478978 -0.175623,0 -0.319315,-0.215533 -0.319315,-0.478978 z m -26.503087,4.789711 c 0,-0.62458 3.699646,-0.6999 3.921103,-0.0798 0.295864,0.82842 0.504015,-0.005 0.579032,-2.317708 0.05415,-1.669639 -0.03507,-2.382529 -0.295389,-2.360239 -0.205137,0.0175 -1.378815,0.05346 -2.608174,0.07977 l -2.235201,0.04791 v 2.554518 c 0,1.490129 0.133048,2.554499 0.319314,2.554499 0.175623,0 0.319315,-0.21553 0.319315,-0.47896 z m 0,-2.554502 V 62.48203 h 1.915886 1.915886 v 1.756231 1.756232 h -1.915886 -1.915886 z m 17.881601,1.312626 c 0,-0.4196 -0.290652,-1.102126 -0.645893,-1.516742 l -0.645893,-0.753827 0.20886,1.277253 c 0.240889,1.473122 0.367021,1.756232 0.782457,1.756232 0.165259,0 0.300469,-0.34332 0.300469,-0.762916 z m -7.110827,-1.056423 c -0.680749,-0.68074 -0.880803,-0.476491 -0.505764,0.516378 0.223763,0.592386 0.379463,0.684951 0.667555,0.396863 0.288088,-0.288089 0.250352,-0.501099 -0.161791,-0.913241 z M 17.851972,63.618479 c 0,-0.479352 -0.573276,-0.988923 -0.827046,-0.735157 -0.222715,0.222713 0.21821,1.195283 0.541895,1.195283 0.156833,0 0.285151,-0.20706 0.285151,-0.460126 z M 145.57771,62.047248 c 0,-1.12624 -0.064,-1.219131 -0.71845,-1.043739 -0.39516,0.105842 -1.40099,0.194509 -2.23521,0.196899 -1.49751,0.0048 -1.51673,0.0175 -1.51633,1.042133 l 3.2e-4,1.037777 2.23479,0.0012 2.23479,0.0012 v -1.23628 z m -3.83177,0.434782 c 0,-0.175622 0.64661,-0.31931 1.43691,-0.31931 0.79031,0 1.43692,0.143688 1.43692,0.31931 0,0.175622 -0.64661,0.31931 -1.43692,0.31931 -0.7903,0 -1.43691,-0.143688 -1.43691,-0.31931 z m 0.72285,-0.867767 c 0.48537,-0.07338 1.20383,-0.07145 1.59656,0.0048 0.39275,0.07579 -0.005,0.135844 -0.8825,0.133454 -0.87811,-0.0024 -1.19944,-0.06445 -0.71406,-0.137811 z m -80.066008,0.878218 c -0.104984,-0.169865 -0.616385,-0.223751 -1.136443,-0.11972 -0.712246,0.142458 -0.945563,0.07072 -0.945563,-0.290671 0,-0.26388 -0.23937,-0.676999 -0.531937,-0.918033 -0.478869,-0.394509 -0.510627,-0.352655 -0.318326,0.419576 0.195122,0.783564 0.123711,0.868962 -0.82515,0.986666 -0.571318,0.07084 0.08333,0.151859 1.454773,0.179967 1.53733,0.0315 2.420333,-0.06734 2.302646,-0.257761 z m -34.772106,-0.23693 c -0.228156,-0.228156 -2.798956,-0.147309 -3.046494,0.09583 -0.07317,0.07193 0.633307,0.130666 1.569962,0.130666 0.936655,0 1.601094,-0.101979 1.476532,-0.226467 z m -9.701503,-7.676553 c 0.498167,-0.803489 0.545156,-0.819963 0.552931,-0.193821 0.0083,0.668514 0.562109,1.071942 1.471527,1.071942 0.290297,0 0.452856,-0.343869 0.452856,-0.957943 0,-0.745065 0.141917,-0.957942 0.638628,-0.957942 0.496712,0 0.638629,0.212877 0.638629,0.957942 0,0.638621 0.159657,0.957943 0.478971,0.957943 0.319314,0 0.478972,-0.319322 0.478972,-0.957943 0,-0.814821 0.122084,-0.957942 0.81713,-0.957942 0.484735,0 0.733588,-0.135181 0.611757,-0.332309 -0.112962,-0.182766 -0.480666,-0.244931 -0.817132,-0.138136 -0.42518,0.13495 -0.611755,0.04151 -0.611755,-0.306325 0,-0.292397 0.273365,-0.500496 0.657474,-0.500496 0.384977,0 0.570104,-0.141359 0.446672,-0.341082 -0.115943,-0.187594 -0.411804,-0.263951 -0.657474,-0.169672 -0.658778,0.252789 -0.542828,-0.22293 0.211826,-0.869082 0.62396,-0.534251 0.791242,-2.166236 0.219616,-2.142545 -0.131717,0.006 -0.92202,0.01219 -1.756229,0.01484 -1.002986,0.0036 -1.365783,0.100531 -1.071071,0.287087 0.461547,0.292253 0.27628,1.304601 -0.238751,1.304601 -0.160651,0 -0.367401,-0.287981 -0.459444,-0.639948 -0.112201,-0.429086 -0.336103,-0.575189 -0.679491,-0.443424 -0.375886,0.144244 -0.459613,0.05962 -0.314701,-0.317995 0.130664,-0.340502 0.02534,-0.514519 -0.311407,-0.514519 -0.786661,0 -1.587844,2.160431 -1.498508,4.040811 0.04301,0.905276 -0.08294,1.947035 -0.279877,2.31503 -0.560423,1.047154 0.356666,0.858993 1.018851,-0.20904 z m 2.796628,-1.47764 c 0,-0.06626 0.215537,-0.299445 0.478971,-0.518067 0.392281,-0.325574 0.478972,-0.303754 0.478972,0.120565 0,0.284927 -0.215538,0.518067 -0.478972,0.518067 -0.263434,0 -0.478971,-0.05431 -0.478971,-0.120565 z m 0.638629,-2.12466 c 0,-0.170118 0.215536,-0.309293 0.478971,-0.309293 0.263434,0 0.478972,0.05648 0.478972,0.125489 0,0.06903 -0.215538,0.208207 -0.478972,0.309293 -0.263435,0.101135 -0.478971,0.04465 -0.478971,-0.125489 z m 0.643518,-0.868104 c 0.0027,-0.131717 0.144181,-0.455022 0.314425,-0.718454 0.250302,-0.387317 0.31047,-0.341481 0.314425,0.239488 0.0027,0.39515 -0.138802,0.718454 -0.314425,0.718454 -0.175623,0 -0.317114,-0.107772 -0.314425,-0.239488 z m 5.104139,4.108504 c 0,-1.016017 0.129783,-1.274791 0.718457,-1.432552 1.00029,-0.268067 1.197429,-0.248637 1.197429,0.118031 0,0.175622 -0.395152,0.34084 -0.878114,0.36715 l -0.878114,0.04779 0.878114,0.133032 c 0.728157,0.110307 0.878114,0.292989 0.878114,1.069759 0,0.619769 0.162066,0.936726 0.478971,0.936726 0.319314,0 0.478972,-0.31931 0.478972,-0.957943 0,-0.855614 0.104345,-0.957943 0.976788,-0.957943 0.572261,0 0.894759,-0.132718 0.778716,-0.320481 -0.108943,-0.176273 -0.548494,-0.232537 -0.976788,-0.125042 -0.474597,0.119116 -0.778716,0.05721 -0.778716,-0.158485 0,-0.194666 0.251459,-0.358497 0.5588,-0.364085 0.30734,-0.006 0.81584,-0.205117 1.13,-0.443411 0.528573,-0.40093 0.495894,-0.459511 -0.437899,-0.785036 -1.001272,-0.349048 -1.004884,-0.358196 -0.465857,-1.180862 0.298782,-0.455999 0.456235,-0.916101 0.349894,-1.022437 -0.314619,-0.314616 -3.745189,-0.285253 -5.126367,0.04381 -1.195117,0.284794 -1.22592,0.31966 -0.478972,0.542108 0.669806,0.199481 0.693667,0.242868 0.148254,0.269576 -0.71969,0.03524 -0.952729,1.30909 -0.239486,1.30909 0.563879,0 0.515901,0.302245 -0.246483,1.552754 -0.760489,1.247396 -0.588311,1.680138 0.335758,0.843871 0.630137,-0.570264 0.640586,-0.560694 0.640586,0.587365 0,0.824537 0.140583,1.167092 0.478972,1.167092 0.343526,0 0.478971,-0.350653 0.478971,-1.240022 z m 1.217386,-2.171257 c 0.230505,-0.0922 0.505913,-0.08086 0.612019,0.02522 0.106107,0.106083 -0.08249,0.181584 -0.4191,0.167717 -0.371983,-0.01533 -0.447647,-0.091 -0.192919,-0.192916 z m -1.217386,-0.420493 c 0,-0.175634 0.295864,-0.319323 0.657474,-0.319323 0.384978,0 0.570105,-0.141359 0.446673,-0.341082 -0.115943,-0.187593 -0.439671,-0.253259 -0.7194,-0.145909 -0.424486,0.16289 -0.41516,0.09196 0.0564,-0.429158 0.540958,-0.597744 0.540195,-0.630716 -0.0179,-0.774983 -0.539099,-0.139344 -0.540395,-0.153452 -0.01726,-0.187715 0.322172,-0.02112 0.729065,0.321627 0.945307,0.796236 0.325911,0.715292 0.293699,0.896116 -0.227533,1.277253 -0.715585,0.523245 -1.123761,0.568527 -1.123762,0.124681 z m 2.119024,-1.758065 c -0.111212,-0.289827 9.99e-4,-0.477143 0.285855,-0.477143 0.516455,0 0.633942,0.498975 0.183095,0.777614 -0.157221,0.09715 -0.368247,-0.03802 -0.46895,-0.300471 z m 5.544519,4.472226 c 0,-0.298021 -0.301574,-0.478965 -0.798285,-0.478965 -0.496711,0 -0.798287,0.180944 -0.798287,0.478965 0,0.298034 0.301576,0.478978 0.798287,0.478978 0.496711,0 0.798285,-0.180944 0.798285,-0.478978 z m 0,-1.915886 c 0,-0.298021 -0.301574,-0.478965 -0.798285,-0.478965 -0.496711,0 -0.798287,0.180944 -0.798287,0.478965 0,0.298034 0.301576,0.478978 0.798287,0.478978 0.496711,0 0.798285,-0.180944 0.798285,-0.478978 z m 8.940802,-8.781143 c 0,-0.175622 -0.287383,-0.319311 -0.638629,-0.319311 -0.591323,0 -0.638629,-0.212877 -0.638629,-2.873828 0,-2.660951 0.04731,-2.873829 0.638629,-2.873829 0.351246,0 0.638629,-0.143688 0.638629,-0.31931 0,-0.175622 -0.502921,-0.319323 -1.117601,-0.319323 h -1.1176 v 3.512462 3.512461 h 1.1176 c 0.61468,0 1.117601,-0.1437 1.117601,-0.319322 z m 51.090286,-3.193139 v -3.512462 h -1.1176 c -0.61468,0 -1.117597,0.143701 -1.117597,0.319323 0,0.175622 0.287377,0.31931 0.638627,0.31931 0.59132,0 0.63863,0.212878 0.63863,2.873829 0,2.660951 -0.0473,2.873828 -0.63863,2.873828 -0.35125,0 -0.638627,0.143689 -0.638627,0.319311 0,0.175622 0.502917,0.319322 1.117597,0.319322 h 1.1176 z M 51.189612,43.22545 c 0.77947,-0.569962 0.574029,-1.977821 -0.288609,-1.977821 -0.474951,0 -0.618645,0.186881 -0.560661,0.729195 0.04386,0.410186 -0.130757,0.809282 -0.399142,0.912275 -0.26241,0.100652 -0.477111,0.311406 -0.477111,0.468237 0,0.426081 1.074799,0.34393 1.725523,-0.131886 z m 8.646378,-0.101738 c 0.70351,-0.703513 0.507569,-1.876083 -0.3135,-1.876083 -0.474951,0 -0.618646,0.186881 -0.560662,0.729195 0.04386,0.410186 -0.130755,0.809282 -0.399142,0.912275 -0.26241,0.100652 -0.477111,0.311406 -0.477111,0.468237 0,0.477927 1.198863,0.317922 1.750415,-0.233624 z m 8.655049,-0.277046 c 0.633367,-0.966644 0.394078,-1.758693 -0.531313,-1.758693 -0.570957,0 -0.650045,0.132368 -0.48115,0.8053 0.141667,0.564447 0.05652,0.861165 -0.2847,0.992097 -0.695316,0.266824 -0.60177,0.75711 0.144455,0.75711 0.347196,0 0.865916,-0.358111 1.152708,-0.795814 z m 8.59362,0.04248 c 0.597748,-0.912275 0.326189,-1.801222 -0.550243,-1.801222 -0.517515,0 -0.611227,0.159341 -0.484274,0.823451 0.09996,0.522955 -0.0029,0.885 -0.282092,0.992109 -0.656552,0.251943 -0.530168,0.738946 0.191767,0.738946 0.347197,0 0.853377,-0.338982 1.124842,-0.753284 z m 8.621487,0 c 0.597747,-0.912275 0.326189,-1.801222 -0.550242,-1.801222 -0.517517,0 -0.611229,0.159341 -0.484276,0.823451 0.09996,0.522955 -0.0029,0.885 -0.282092,0.992109 -0.656552,0.251943 -0.530168,0.738946 0.191767,0.738946 0.347197,0 0.853377,-0.338982 1.124843,-0.753284 z m -66.525815,-0.923113 0.0511,-1.037764 0.126404,1.005831 c 0.114241,0.909077 0.232202,1.005843 1.226156,1.005843 0.867579,0 1.09975,-0.128084 1.09975,-0.606699 0,-0.333684 0.215537,-0.606699 0.478971,-0.606699 0.575169,0 0.651257,0.629303 0.07983,0.660247 -0.219529,0.01207 -0.07446,0.178144 0.322372,0.369467 0.396834,0.191336 0.827909,0.24183 0.957943,0.112238 0.130035,-0.129604 0.308273,-1.193944 0.396084,-2.365187 l 0.159658,-2.129535 -1.249403,-1.19742 c -0.687171,-0.658594 -1.355511,-1.197432 -1.485202,-1.197432 -0.12969,0 -0.53253,0.502922 -0.8952,1.117599 -0.616896,1.04556 -1.958195,1.592363 -1.958195,0.798287 0,-0.175622 0.367709,-0.31931 0.81713,-0.31931 0.49821,0 0.734857,-0.133128 0.60633,-0.341094 -0.115942,-0.187594 -0.427803,-0.257809 -0.693027,-0.156035 -0.326494,0.125296 -0.425694,0.03777 -0.307177,-0.27112 0.09628,-0.250882 -0.04317,-0.5399 -0.309878,-0.642241 -0.693097,-0.265967 -0.752007,-0.242241 -0.752007,0.302909 0,0.268948 -0.179614,0.557954 -0.399143,0.642229 -0.223919,0.08593 -0.394234,0.677336 -0.387961,1.34707 0.0087,0.928206 0.133022,1.183951 0.5588,1.149471 0.339657,-0.02752 0.547618,0.184697 0.547618,0.558799 0,0.390273 -0.225398,0.603151 -0.638628,0.603151 -0.351246,0 -0.638629,0.143688 -0.638629,0.31931 0,0.175622 0.287383,0.319323 0.638629,0.319323 0.468327,0 0.638628,0.212865 0.638628,0.798275 0,1.250473 0.946741,1.025781 1.009045,-0.239476 z m 1.276574,-0.239488 c 0,-0.439055 0.07247,-0.618672 0.161057,-0.399132 0.08858,0.219527 0.08858,0.578748 0,0.798276 -0.08858,0.219527 -0.161057,0.03995 -0.161057,-0.399144 z m -1.302467,-1.78283 c 0.01533,-0.37199 0.09098,-0.447648 0.192919,-0.192928 0.09224,0.230509 0.0809,0.505914 -0.02521,0.612021 -0.106107,0.106083 -0.181575,-0.08255 -0.167709,-0.419093 z m 2.529306,-1.090999 c -0.359166,-0.232103 -0.199426,-0.309535 0.638629,-0.309535 0.838053,0 0.997794,0.07748 0.638627,0.309535 -0.263434,0.170251 -0.550816,0.309535 -0.638627,0.309535 -0.08781,0 -0.375195,-0.139284 -0.638629,-0.309535 z m -1.6764,-0.211478 c 0.219529,-0.08858 0.578757,-0.08858 0.798286,0 0.219528,0.08858 0.03991,0.161068 -0.399143,0.161068 -0.439057,0 -0.618673,-0.07241 -0.399143,-0.161068 z m 1.241614,-1.22543 c 0.101086,-0.263433 0.224896,-0.478978 0.275128,-0.478978 0.05023,0 0.174041,0.215545 0.27513,0.478978 0.110838,0.288837 0.0016,0.478965 -0.27513,0.478965 -0.276748,0 -0.385965,-0.190128 -0.275128,-0.478965 z m 10.07666,4.230915 c 0.06274,-0.658594 0.08612,-1.197432 0.05194,-1.197432 -0.03418,0 -0.289441,-0.08725 -0.567239,-0.193821 -0.403043,-0.154659 -0.505087,0.03886 -0.505087,0.957943 0,0.938887 -0.118031,1.151764 -0.638628,1.151764 -0.544961,0 -0.638629,-0.212877 -0.638629,-1.451378 v -1.451391 l 1.054155,0.197768 c 1.052494,0.197442 1.054129,0.195728 1.037771,-1.085713 -0.01207,-0.944571 -0.163928,-1.322329 -0.575183,-1.430657 -0.451634,-0.118996 -0.5588,0.06143 -0.5588,0.940516 0,1.679426 -0.895301,1.44526 -1.019412,-0.266619 -0.07163,-0.987933 -0.249366,-1.38301 -0.656989,-1.460333 -0.466184,-0.08846 -0.558799,0.136049 -0.558799,1.354335 0,1.085194 -0.12304,1.460333 -0.478971,1.460333 -0.319316,0 -0.478972,-0.319322 -0.478972,-0.957943 0,-0.75443 -0.139776,-0.957942 -0.657905,-0.957942 -0.564986,0 -0.643906,0.169104 -0.5588,1.197419 0.09451,1.14194 0.147194,1.192785 1.136876,1.097178 1.033875,-0.09993 1.037772,-0.09474 1.037772,1.357087 0,1.270555 -0.08649,1.45734 -0.674871,1.45734 -0.568223,0 -0.652653,-0.151376 -0.534274,-0.957943 0.07732,-0.526865 0.105382,-0.957943 0.06236,-0.957943 -0.04304,0 -0.289554,-0.0811 -0.547828,-0.180195 -0.355285,-0.136339 -0.499652,0.135035 -0.593094,1.11487 -0.06793,0.712287 -0.01026,1.332226 0.128202,1.377628 0.13844,0.04538 1.459646,0.08255 2.936013,0.08255 h 2.684307 z M 34.77563,41.8862 c 0,-0.298022 -0.301574,-0.478966 -0.798285,-0.478966 -0.496711,0 -0.798287,0.180944 -0.798287,0.478966 0,0.298033 0.301576,0.478977 0.798287,0.478977 0.496711,0 0.798285,-0.180944 0.798285,-0.478977 z m 13.22836,-0.22345 c 0.417388,-0.59591 0.426954,-0.801703 0.06309,-1.357087 -0.310971,-0.474644 -0.336615,-0.800955 -0.09327,-1.18669 0.533763,-0.846092 -0.302122,-1.595381 -1.650857,-1.479824 -0.616137,0.05274 -1.180011,0.277854 -1.253054,0.50017 -0.09218,0.280558 0.182638,0.378229 0.898515,0.31931 1.258092,-0.103549 1.641841,0.605516 0.484866,0.895898 -0.976543,0.245101 -1.094395,0.775454 -0.172321,0.775454 0.792255,0 1.209965,0.915389 0.595311,1.304589 -0.245122,0.155214 -0.768979,0.284396 -1.164131,0.287087 -0.395151,0.0024 -0.718457,0.148588 -0.718457,0.32421 0,0.175622 0.566617,0.31931 1.259152,0.31931 0.935291,0 1.385693,-0.180666 1.751148,-0.702427 z m 8.186691,0.371881 c 0.650795,-0.348299 0.848974,-1.723995 0.297461,-2.064848 -0.208461,-0.128832 -0.212778,-0.398565 -0.01236,-0.773016 0.492664,-0.920555 -0.282034,-1.692183 -1.57284,-1.566609 -0.593401,0.05769 -1.14045,0.2923 -1.215661,0.521253 -0.09467,0.288174 0.13315,0.386448 0.740202,0.319323 1.055331,-0.116703 1.478285,0.663107 0.498607,0.919299 -0.9049,0.236628 -0.848502,0.626479 0.126014,0.871073 1.432696,0.359583 0.810582,1.465439 -0.824419,1.465439 -0.33688,0 -0.612511,0.1437 -0.612511,0.319322 0,0.418912 1.786314,0.411128 2.575505,-0.01086 z m 8.621487,0 c 0.389449,-0.208436 0.617636,-0.667694 0.617636,-1.243099 0,-0.927518 -0.465097,-1.300183 -1.622688,-1.300183 -0.399634,0 -0.612511,-0.221954 -0.612511,-0.638633 0,-0.516981 0.212877,-0.638621 1.1176,-0.638621 0.61468,0 1.117599,-0.1437 1.117599,-0.319322 0,-0.175622 -0.718456,-0.31931 -1.59657,-0.31931 h -1.596572 v 1.277253 c 0,1.046237 0.110789,1.277265 0.612511,1.277265 0.930096,0 1.622689,0.34072 1.622689,0.798276 0,0.457568 -0.692593,0.798288 -1.622689,0.798288 -0.336879,0 -0.612511,0.1437 -0.612511,0.319322 0,0.418912 1.786314,0.411128 2.575506,-0.01086 z m 8.737343,-0.171228 c 0.987665,-0.987668 0.404625,-2.372053 -0.998997,-2.372053 -0.521546,0 -0.734423,-0.185108 -0.734423,-0.638633 0,-0.496706 0.212877,-0.638621 0.957943,-0.638621 0.526869,0 0.957943,-0.1437 0.957943,-0.319322 0,-0.175622 -0.646611,-0.31931 -1.436915,-0.31931 h -1.436914 v 1.277253 c 0,1.110236 0.09395,1.277905 0.718458,1.282153 0.395151,0.0024 0.924753,0.135421 1.176897,0.29498 0.650832,0.411828 -0.124492,1.296696 -1.136166,1.296696 -0.417554,0 -0.759189,0.1437 -0.759189,0.319322 0,0.512564 2.141514,0.367379 2.691363,-0.182465 z m 8.74009,0.118634 c 0.210747,-0.210753 0.383177,-0.684939 0.383177,-1.053743 0,-0.927144 -0.598503,-1.436908 -1.687043,-1.436908 -1.215173,0 -0.992582,-0.700122 0.350939,-1.103816 1.28251,-0.385349 1.313432,-0.81207 0.05885,-0.81207 -1.400265,0 -2.235201,0.989985 -2.235201,2.650307 0,0.755178 0.17243,1.545477 0.383177,1.75623 0.494966,0.494957 2.251138,0.494957 2.746105,0 z m -2.055046,-0.732296 c -0.110597,-0.28821 -0.04797,-0.677144 0.13916,-0.864279 0.486511,-0.486508 1.408307,-0.04188 1.281222,0.618031 -0.141551,0.735025 -1.164749,0.912421 -1.420382,0.246248 z m 10.033236,-0.966126 c 0.56456,-1.144873 1.02647,-2.22256 1.02647,-2.394851 0,-0.172303 -0.86215,-0.313264 -1.91588,-0.313264 -1.06438,0 -1.91589,0.141914 -1.91589,0.31931 0,0.175622 0.57477,0.319311 1.27726,0.319311 0.70249,0 1.27726,0.07591 1.27726,0.168766 0,0.09281 -0.43315,1.026819 -0.96254,2.075541 -0.85432,1.6924 -0.89793,1.906787 -0.38785,1.906787 0.38963,0 0.90523,-0.670301 1.60117,-2.0816 z M 34.77563,39.970351 c 0,-0.298021 -0.301574,-0.478965 -0.798285,-0.478965 -0.496711,0 -0.798287,0.180944 -0.798287,0.478965 0,0.298034 0.301576,0.478978 0.798287,0.478978 0.496711,0 0.798285,-0.180944 0.798285,-0.478978 z M 73.412663,31.18921 c 0,-0.175622 -0.215538,-0.31931 -0.478972,-0.31931 -0.390272,0 -0.478971,-0.532188 -0.478971,-2.873829 0,-2.341641 0.0887,-2.873829 0.478971,-2.873829 0.263434,0 0.478972,-0.143688 0.478972,-0.31931 0,-0.175622 -0.431075,-0.319322 -0.957943,-0.319322 h -0.957943 v 3.512461 3.512461 h 0.957943 c 0.526868,0 0.957943,-0.1437 0.957943,-0.319322 z M 150.36743,27.996071 V 24.48361 h -1.1176 c -0.61469,0 -1.11761,0.1437 -1.11761,0.319322 0,0.175622 0.28739,0.31931 0.63863,0.31931 0.59132,0 0.63863,0.212878 0.63863,2.873829 0,2.660951 -0.0473,2.873829 -0.63863,2.873829 -0.35124,0 -0.63863,0.143688 -0.63863,0.31931 0,0.175622 0.50292,0.319322 1.11761,0.319322 h 1.1176 z m -69.137381,2.674371 c 0.70351,-0.703513 0.507569,-1.876083 -0.313499,-1.876083 -0.474952,0 -0.618647,0.186882 -0.560663,0.729195 0.04386,0.410187 -0.130755,0.809282 -0.399142,0.912275 -0.26241,0.100652 -0.477111,0.311406 -0.477111,0.468237 0,0.477927 1.198863,0.317922 1.750415,-0.233624 z m 8.655052,-0.277046 c 0.63336,-0.966644 0.39408,-1.758692 -0.53132,-1.758692 -0.57095,0 -0.65004,0.132368 -0.48115,0.805287 0.14167,0.564459 0.0565,0.861177 -0.2847,0.992109 -0.69531,0.266824 -0.60177,0.75711 0.14446,0.75711 0.3472,0 0.86592,-0.358111 1.15271,-0.795814 z m 12.739019,0.277046 c 0.70351,-0.703513 0.50757,-1.876083 -0.3135,-1.876083 -0.47496,0 -0.61866,0.186882 -0.56067,0.729195 0.0438,0.410187 -0.13076,0.809282 -0.39915,0.912275 -0.26241,0.100652 -0.47711,0.311406 -0.47711,0.468237 0,0.477927 1.19887,0.317922 1.75043,-0.233624 z m 12.74768,0.101738 c 0.77947,-0.569962 0.57403,-1.977821 -0.28861,-1.977821 -0.47495,0 -0.61864,0.186882 -0.56065,0.729195 0.0438,0.410187 -0.13077,0.809282 -0.39915,0.912275 -0.26242,0.100652 -0.47712,0.311394 -0.47712,0.468237 0,0.426081 1.07481,0.34393 1.72553,-0.131886 z m 8.64637,-0.101738 c 0.70352,-0.703513 0.50758,-1.876083 -0.31349,-1.876083 -0.47496,0 -0.61865,0.186882 -0.56066,0.729195 0.0438,0.410187 -0.13076,0.809282 -0.39914,0.912275 -0.26242,0.100652 -0.47712,0.311406 -0.47712,0.468237 0,0.477927 1.19887,0.317922 1.75041,-0.233624 z m 8.65505,-0.277046 c 0.63337,-0.966644 0.39409,-1.758692 -0.5313,-1.758692 -0.57096,0 -0.65005,0.132368 -0.48115,0.805287 0.14166,0.564459 0.0565,0.861177 -0.2847,0.992109 -0.69532,0.266824 -0.60178,0.75711 0.14445,0.75711 0.3472,0 0.86592,-0.358111 1.1527,-0.795814 z m 8.59362,0.04248 c 0.59776,-0.912276 0.32619,-1.801223 -0.55024,-1.801223 -0.51751,0 -0.61123,0.159342 -0.48428,0.823451 0.0999,0.522955 -0.002,0.885001 -0.28209,0.992109 -0.65654,0.251944 -0.53016,0.738947 0.19177,0.738947 0.3472,0 0.85338,-0.33897 1.12484,-0.753284 z m 12.80045,-0.04248 c 0.63337,-0.966644 0.39407,-1.758692 -0.53132,-1.758692 -0.57095,0 -0.65004,0.132368 -0.48115,0.805287 0.14167,0.564459 0.0565,0.861177 -0.2847,0.992109 -0.69532,0.266824 -0.60176,0.75711 0.14446,0.75711 0.34719,0 0.86591,-0.358111 1.15271,-0.795814 z m -134.886959,-0.880583 0.0511,-1.037777 0.126404,1.005843 c 0.114241,0.909078 0.232202,1.005844 1.226156,1.005844 0.867579,0 1.09975,-0.128084 1.09975,-0.6067 0,-0.333684 0.215537,-0.606699 0.478971,-0.606699 0.575169,0 0.651257,0.629304 0.07983,0.660248 -0.219529,0.01207 -0.07446,0.178144 0.322372,0.369467 0.396834,0.191323 0.827909,0.241818 0.957943,0.112238 0.130035,-0.129605 0.308273,-1.193944 0.396084,-2.365187 l 0.15966,-2.129536 -1.249403,-1.197431 c -0.687171,-0.658582 -1.355511,-1.19742 -1.485202,-1.19742 -0.12969,0 -0.53253,0.502921 -0.8952,1.117598 -0.616896,1.045561 -1.958195,1.592364 -1.958195,0.798288 0,-0.175622 0.367709,-0.319323 0.81713,-0.319323 0.49821,0 0.734857,-0.133116 0.60633,-0.341082 -0.115942,-0.187593 -0.427803,-0.257808 -0.693027,-0.156034 -0.326494,0.125296 -0.425694,0.03777 -0.307177,-0.271121 0.09628,-0.250893 -0.04317,-0.539899 -0.309878,-0.642241 -0.693097,-0.265967 -0.752007,-0.24224 -0.752007,0.302909 0,0.268936 -0.179614,0.557942 -0.399143,0.642229 -0.223919,0.08593 -0.394234,0.677337 -0.387961,1.34707 0.0087,0.928206 0.133022,1.183951 0.5588,1.149471 0.339657,-0.02752 0.547618,0.184698 0.547618,0.558799 0,0.390274 -0.225398,0.603151 -0.638628,0.603151 -0.351246,0 -0.638629,0.143689 -0.638629,0.319311 0,0.175622 0.287383,0.31931 0.638629,0.31931 0.468327,0 0.638628,0.212878 0.638628,0.798288 0,1.250473 0.946741,1.025768 1.009045,-0.239489 z m 1.276574,-0.239489 c 0,-0.439055 0.07247,-0.618671 0.161057,-0.399144 0.08858,0.219528 0.08858,0.578761 0,0.798288 -0.08858,0.219527 -0.161057,0.03995 -0.161057,-0.399144 z m -1.302467,-1.78283 c 0.01533,-0.371989 0.09098,-0.447647 0.192919,-0.192928 0.09224,0.23051 0.0809,0.505915 -0.02521,0.612022 -0.106107,0.106082 -0.181575,-0.08255 -0.167709,-0.419094 z m 2.529306,-1.090999 c -0.359166,-0.232102 -0.199426,-0.309534 0.638629,-0.309534 0.838053,0 0.997794,0.07748 0.638627,0.309534 -0.263434,0.170252 -0.550816,0.309535 -0.638627,0.309535 -0.08781,0 -0.375195,-0.139283 -0.638629,-0.309535 z m -1.6764,-0.211477 c 0.219529,-0.08858 0.578757,-0.08858 0.798286,0 0.219528,0.08858 0.03991,0.161067 -0.399143,0.161067 -0.439057,0 -0.618673,-0.07241 -0.399143,-0.161067 z m 1.241614,-1.225431 c 0.101086,-0.263433 0.224896,-0.478977 0.275128,-0.478977 0.05023,0 0.174041,0.215544 0.27513,0.478977 0.110838,0.288837 0.0016,0.478966 -0.27513,0.478966 -0.276748,0 -0.385965,-0.190129 -0.275128,-0.478966 z m 4.642268,5.020128 c 0.925032,-0.610067 1.9897,-1.858234 2.239305,-2.625265 0.110983,-0.341021 0.299896,-0.20309 0.655973,0.478978 0.814789,1.560708 1.991662,2.490482 2.819719,2.227665 0.714534,-0.22678 0.714067,-0.229049 -0.154725,-0.748601 -0.538058,-0.32176 -1.298878,-1.406532 -1.988799,-2.835596 -0.83627,-1.732202 -1.316411,-2.364426 -1.908522,-2.513026 -1.032396,-0.259125 -1.319006,0.04743 -0.469438,0.502125 0.366287,0.196029 0.665977,0.572617 0.665977,0.836871 0,0.791746 -1.278666,3.098219 -2.332261,4.206959 -1.080748,1.137306 -0.864743,1.351994 0.472771,0.46989 z m 8.884404,-0.549724 c 0,-0.298021 -0.301574,-0.478965 -0.798285,-0.478965 -0.496711,0 -0.798287,0.180944 -0.798287,0.478965 0,0.298034 0.301576,0.478978 0.798287,0.478978 0.496711,0 0.798285,-0.180944 0.798285,-0.478978 z m 7.024916,-0.759185 c 0,-1.179064 0.618819,-2.18767 1.067151,-1.739335 0.115557,0.115617 0.210106,0.832768 0.210106,1.5938 0,1.036883 0.124046,1.383698 0.494905,1.383698 0.400724,0 0.476682,-0.349422 0.399143,-1.836052 l -0.09576,-1.836065 -1.516743,-0.09727 -1.516744,-0.09727 v 1.933385 c 0,1.505687 0.10595,1.933373 0.478972,1.933373 0.343403,0 0.478971,-0.350447 0.478971,-1.238151 z m 6.386286,-0.677723 c 0,-1.490131 -0.106433,-1.915886 -0.478971,-1.915886 -0.343404,0 -0.478972,0.350447 -0.478972,1.238163 0,1.179052 -0.618818,2.18767 -1.067152,1.739335 -0.115557,-0.115496 -0.210106,-0.832768 -0.210106,-1.5938 0,-1.017079 -0.126908,-1.383698 -0.478971,-1.383698 -0.365879,0 -0.478972,0.402101 -0.478972,1.703008 0,0.936654 0.0958,1.798809 0.212878,1.915886 0.117077,0.117065 0.835537,0.212878 1.596572,0.212878 h 1.383694 z m 1.973442,0.399144 0.05756,-1.516742 0.1196,1.516742 c 0.08315,1.054612 0.260203,1.516742 0.581073,1.516742 0.324358,0 0.461475,-0.373909 0.461475,-1.258414 0,-0.692121 0.143692,-1.347215 0.319314,-1.45576 0.195042,-0.120565 0.319315,0.369214 0.319315,1.258414 0,1.10197 0.120276,1.45576 0.494906,1.45576 0.400722,0 0.476681,-0.349422 0.399143,-1.836052 l -0.09577,-1.836065 -1.995714,-0.08544 -1.995715,-0.08545 v 1.921462 c 0,1.708584 0.07076,1.921461 0.638629,1.921461 0.540918,0 0.647436,-0.232054 0.696185,-1.516742 z m 6.325355,1.041831 c 0.559978,-0.674729 0.170146,-1.416065 -0.949979,-1.806532 -1.11334,-0.388113 -0.948626,-1.057581 0.189903,-0.771833 0.554096,0.139066 0.763451,0.05865 0.763451,-0.293436 0,-0.59708 -1.917039,-0.67549 -2.490651,-0.101858 -0.665583,0.665581 -0.419828,1.230668 0.747294,1.718323 1.314927,0.549409 1.166526,1.226082 -0.202928,0.925309 -0.862876,-0.189525 -1.209284,0.09751 -0.714667,0.592084 0.398413,0.398408 2.26195,0.214676 2.657577,-0.262032 z m 22.036062,0.155601 c 0,-0.175622 -0.287383,-0.319323 -0.638628,-0.319323 -0.573128,0 -0.638629,-0.212877 -0.638629,-2.075541 0,-1.449882 -0.120311,-2.074225 -0.399142,-2.071184 -0.945212,0.01086 -1.836057,0.424041 -1.836057,0.852693 0,0.317934 0.200325,0.399663 0.638628,0.260548 0.581276,-0.184492 0.638629,-0.05745 0.638629,1.415402 0,1.405205 -0.08402,1.618082 -0.638629,1.618082 -0.351245,0 -0.638628,0.143701 -0.638628,0.319323 0,0.175621 0.790302,0.31931 1.756228,0.31931 0.965926,0 1.756228,-0.143689 1.756228,-0.31931 z m 7.684536,-0.01086 c 0.650795,-0.348299 0.848974,-1.723996 0.297461,-2.064848 -0.208462,-0.128832 -0.212779,-0.398565 -0.01236,-0.773017 0.492664,-0.920554 -0.282034,-1.692182 -1.572841,-1.566609 -0.5934,0.05769 -1.14045,0.292289 -1.215661,0.521254 -0.09467,0.288173 0.133151,0.386448 0.740203,0.319322 1.05533,-0.116703 1.478284,0.663108 0.498606,0.9193 -0.904898,0.236628 -0.848502,0.626479 0.126014,0.871061 1.432696,0.359595 0.810583,1.46545 -0.824419,1.46545 -0.336879,0 -0.612511,0.143689 -0.612511,0.319311 0,0.418924 1.786314,0.411128 2.575506,-0.01086 z m 13.709516,0.01086 c 0,-0.175622 -0.28738,-0.319323 -0.638627,-0.319323 -0.573131,0 -0.638631,-0.212877 -0.638631,-2.075541 0,-1.449882 -0.12031,-2.074225 -0.39914,-2.071184 -0.945207,0.01086 -1.836057,0.424041 -1.836057,0.852693 0,0.317934 0.20033,0.399663 0.63863,0.260548 0.58128,-0.184492 0.63863,-0.05745 0.63863,1.415402 0,1.405205 -0.084,1.618082 -0.63863,1.618082 -0.35124,0 -0.63863,0.143701 -0.63863,0.319323 0,0.175621 0.79031,0.31931 1.756227,0.31931 0.965931,0 1.756228,-0.143689 1.756228,-0.31931 z m 12.270437,-0.383117 c 0.41738,-0.59591 0.42695,-0.801703 0.0631,-1.357087 -0.31097,-0.474645 -0.33662,-0.800955 -0.0933,-1.186691 0.53376,-0.846091 -0.30212,-1.59538 -1.65086,-1.479824 -0.61614,0.05274 -1.18002,0.277855 -1.25306,0.50017 -0.0922,0.280558 0.18264,0.378229 0.89852,0.31931 1.25809,-0.103548 1.64185,0.605517 0.48487,0.895899 -0.97654,0.2451 -1.0944,0.775454 -0.17233,0.775454 0.79226,0 1.20997,0.915389 0.59532,1.304588 -0.24512,0.155214 -0.76899,0.284396 -1.16413,0.287087 -0.39515,0.0024 -0.71846,0.148589 -0.71846,0.324211 0,0.175621 0.56661,0.31931 1.25915,0.31931 0.93529,0 1.38569,-0.180667 1.75115,-0.702427 z m 8.18669,0.371881 c 0.38944,-0.208425 0.61764,-0.667694 0.61764,-1.243099 0,-0.927518 -0.4651,-1.300184 -1.6227,-1.300184 -0.39962,0 -0.6125,-0.221953 -0.6125,-0.638632 0,-0.516982 0.21288,-0.638621 1.1176,-0.638621 0.61468,0 1.1176,-0.143701 1.1176,-0.319322 0,-0.175622 -0.71846,-0.319311 -1.59658,-0.319311 h -1.59656 v 1.277254 c 0,1.046236 0.11079,1.277265 0.6125,1.277265 0.9301,0 1.62269,0.34072 1.62269,0.798275 0,0.457568 -0.69259,0.798288 -1.62269,0.798288 -0.33687,0 -0.6125,0.143701 -0.6125,0.319323 0,0.418912 1.7863,0.411128 2.5755,-0.01086 z m 8.62149,0 c 0.65079,-0.348299 0.84898,-1.723996 0.29745,-2.064848 -0.20846,-0.128832 -0.21277,-0.398565 -0.0123,-0.773017 0.49267,-0.920554 -0.28203,-1.692182 -1.57283,-1.566609 -0.5934,0.05769 -1.14045,0.292301 -1.21566,0.521254 -0.0946,0.288173 0.13314,0.386448 0.7402,0.319322 1.05533,-0.116703 1.47828,0.663108 0.4986,0.919299 -0.9049,0.236629 -0.8485,0.62648 0.12602,0.871074 1.4327,0.359583 0.81058,1.465438 -0.82442,1.465438 -0.33687,0 -0.61251,0.143701 -0.61251,0.319323 0,0.418912 1.78631,0.411128 2.57551,-0.01086 z m 8.85594,-0.05262 c 0.55512,-0.555118 0.47483,-2.067841 -0.1219,-2.296831 -0.27781,-0.106565 -0.84806,-0.193821 -1.26724,-0.193821 -1.08146,0 -0.65466,-0.935556 0.53539,-1.17356 1.20652,-0.241311 1.1793,-0.742326 -0.0403,-0.742326 -1.31017,0 -2.23521,0.999797 -2.23521,2.415851 0,1.7015 0.48253,2.373864 1.7036,2.373864 0.57338,0 1.21494,-0.172436 1.42568,-0.383177 z m -1.7722,-0.466933 c -0.57293,-0.231186 -0.49192,-0.961841 0.13323,-1.20174 0.67163,-0.257725 1.20933,0.255141 0.95698,0.912782 -0.19748,0.514616 -0.39876,0.567959 -1.09021,0.288958 z m 9.75038,-1.231477 c 0.56457,-1.144873 1.02649,-2.222561 1.02649,-2.394864 0,-0.172291 -0.7903,-0.313264 -1.75624,-0.313264 -0.96592,0 -1.75623,0.143689 -1.75623,0.319311 0,0.175622 0.58439,0.31931 1.29863,0.31931 h 1.29861 l -1.10212,2.075553 c -0.90893,1.711734 -1.00864,2.075541 -0.56887,2.075541 0.33862,0 0.90791,-0.759765 1.55973,-2.081587 z m 15.71495,1.240238 v -0.841348 l 0.66181,0.841348 c 0.36398,0.462734 0.96563,0.841349 1.33699,0.841349 0.63348,0 0.61849,-0.05914 -0.24258,-0.957943 l -0.91777,-0.957943 0.91777,-0.957943 c 0.78788,-0.822376 0.83314,-0.957943 0.3198,-0.957943 -0.32886,0 -0.93052,0.312431 -1.33699,0.694281 l -0.73903,0.694293 v -1.492569 c 0,-1.113856 -0.12154,-1.49258 -0.47898,-1.49258 -0.38818,0 -0.47896,0.514447 -0.47896,2.714173 0,2.199715 0.0907,2.714174 0.47896,2.714174 0.30457,0 0.47898,-0.306361 0.47898,-0.841349 z m 18.97638,0.339562 c 0.52072,-0.520711 0.6644,-1.464377 0.2813,-1.847469 -0.12128,-0.121277 -0.22904,-0.684071 -0.23949,-1.250654 -0.0181,-0.98208 -0.0774,-1.030149 -1.26964,-1.030149 -0.74417,0 -1.30685,0.168585 -1.38942,0.416293 -0.0969,0.290587 0.13618,0.387015 0.77168,0.319322 1.11468,-0.118755 1.29899,0.80577 0.19198,0.962988 -1.01949,0.144798 -0.88986,0.582139 0.23949,0.808015 1.68356,0.336713 1.04611,1.484808 -0.8244,1.484808 -0.42469,0 -0.77217,0.143689 -0.77217,0.319311 0,0.518477 2.45875,0.369467 3.01067,-0.182465 z M 65.74912,28.315405 c 0,-0.177396 -0.851507,-0.31931 -1.915886,-0.31931 -1.064381,0 -1.915887,0.141914 -1.915887,0.31931 0,0.177396 0.851506,0.319323 1.915887,0.319323 1.064379,0 1.915886,-0.141927 1.915886,-0.319323 z m 106.9703,0 c 0,-0.177396 -0.85149,-0.31931 -1.91588,-0.31931 -1.06438,0 -1.91589,0.141914 -1.91589,0.31931 0,0.177396 0.85151,0.319323 1.91589,0.319323 1.06439,0 1.91588,-0.141927 1.91588,-0.319323 z m -77.593392,-0.31931 c 0,-0.175622 -0.57476,-0.31931 -1.27725,-0.31931 -0.70249,0 -1.277257,0.143688 -1.277257,0.31931 0,0.175622 0.574767,0.31931 1.277257,0.31931 0.70249,0 1.27725,-0.143688 1.27725,-0.31931 z m 12.772592,0 c 0,-0.175622 -0.57477,-0.31931 -1.27726,-0.31931 -0.70248,0 -1.27725,0.143688 -1.27725,0.31931 0,0.175622 0.57477,0.31931 1.27725,0.31931 0.70249,0 1.27726,-0.143688 1.27726,-0.31931 z M 34.77563,27.517106 c 0,-0.298022 -0.301574,-0.478966 -0.798285,-0.478966 -0.496711,0 -0.798287,0.180944 -0.798287,0.478966 0,0.298033 0.301576,0.478977 0.798287,0.478977 0.496711,0 0.798285,-0.180944 0.798285,-0.478977 z M 65.74912,27.03814 c 0,-0.177396 -0.851507,-0.31931 -1.915886,-0.31931 -1.064381,0 -1.915887,0.141914 -1.915887,0.31931 0,0.177396 0.851506,0.31931 1.915887,0.31931 1.064379,0 1.915886,-0.141914 1.915886,-0.31931 z m 106.9703,0 c 0,-0.177396 -0.85149,-0.31931 -1.91588,-0.31931 -1.06438,0 -1.91589,0.141914 -1.91589,0.31931 0,0.177396 0.85151,0.31931 1.91589,0.31931 1.06439,0 1.91588,-0.141914 1.91588,-0.31931 z"
       style="fill:#000000;stroke-width:0.999999" />
  </g>
</svg>
