<?xml version="1.0" encoding="UTF-8" standalone="no"?>
<svg
   xmlns:dc="http://purl.org/dc/elements/1.1/"
   xmlns:cc="http://creativecommons.org/ns#"
   xmlns:rdf="http://www.w3.org/1999/02/22-rdf-syntax-ns#"
   xmlns:svg="http://www.w3.org/2000/svg"
   xmlns="http://www.w3.org/2000/svg"
   xmlns:sodipodi="http://sodipodi.sourceforge.net/DTD/sodipodi-0.dtd"
   xmlns:inkscape="http://www.inkscape.org/namespaces/inkscape"
   sodipodi:docname="柱状图最大矩形面积.svg"
   inkscape:version="1.0 (4035a4fb49, 2020-05-01)"
   id="svg8"
   version="1.1"
   viewBox="0 0 210 200"
   height="200mm"
   width="210mm">
  <defs
     id="defs2" />
  <sodipodi:namedview
     inkscape:window-maximized="1"
     inkscape:window-y="-11"
     inkscape:window-x="-11"
     inkscape:window-height="1506"
     inkscape:window-width="2560"
     showgrid="false"
     inkscape:document-rotation="0"
     inkscape:current-layer="layer1"
     inkscape:document-units="mm"
     inkscape:cy="519.3356"
     inkscape:cx="505.8642"
     inkscape:zoom="0.98994949"
     inkscape:pageshadow="2"
     inkscape:pageopacity="0.0"
     borderopacity="1.0"
     bordercolor="#666666"
     pagecolor="#ffffff"
     id="base" />
  <metadata
     id="metadata5">
    <rdf:RDF>
      <cc:Work
         rdf:about="">
        <dc:format>image/svg+xml</dc:format>
        <dc:type
           rdf:resource="http://purl.org/dc/dcmitype/StillImage" />
        <dc:title></dc:title>
      </cc:Work>
    </rdf:RDF>
  </metadata>
  <g
     id="layer1"
     inkscape:groupmode="layer"
     inkscape:label="图层 1">
    <path
       id="path847"
       d="m 28.240949,184.23206 c -0.129476,-0.12947 -0.235412,-11.99551 -0.235412,-26.36897 0,-23.50561 0.05601,-26.15506 0.556916,-26.34728 0.306303,-0.1175 6.057519,-0.21371 12.780482,-0.21371 9.03778,0 12.333681,0.11018 12.646063,0.4225 0.312183,0.31218 0.422495,3.57556 0.422495,12.49882 v 12.07633 H 66.20497 77.998451 l 0.0892,-51.13957 0.08921,-51.139571 11.970692,-0.08417 c 6.583884,-0.04629 12.168737,-0.160144 12.410787,-0.253007 0.33961,-0.130302 0.4401,-2.785216 0.4401,-11.62682 v -11.45797 l 12.93893,0.09236 12.93892,0.09236 0.0833,45.066167 c 0.0458,24.786391 0.0854,47.403141 0.088,50.259401 l 0.005,5.19316 h 11.79466 11.79466 v -11.40491 c 0,-10.07502 0.0649,-11.42985 0.55692,-11.61863 0.3063,-0.11751 6.46589,-0.21371 13.68798,-0.21371 10.63199,0 13.20659,0.091 13.52786,0.4781 0.29012,0.34957 0.3727,10.59539 0.30717,38.11261 l -0.0897,37.6345 -76.07779,0.0887 c -41.842783,0.0488 -76.183727,-0.0172 -76.313204,-0.14671 z m 63.599091,-1.04769 c 0.12402,-0.12402 2.68539,-0.19325 5.691947,-0.15384 l 5.466453,0.0717 v -4.62239 c 0,-2.5423 -0.15886,-4.91922 -0.35303,-5.28202 -0.23599,-0.44095 -0.23599,-0.73198 0,-0.87783 0.48999,-0.30283 0.4618,-10.22997 -0.0317,-11.15204 -0.27821,-0.51983 -0.27821,-0.8253 0,-1.1035 0.55872,-0.55872 0.52421,-12.2863 -0.0378,-12.84831 -0.3286,-0.32861 -0.3286,-0.51638 0,-0.84499 0.55456,-0.55456 0.58737,-10.93436 0.0378,-11.96123 -0.27821,-0.51984 -0.27821,-0.8253 0,-1.10351 0.46039,-0.46039 0.54086,-11.37233 0.086,-11.65349 -0.16431,-0.10154 -0.6501,0.14269 -1.07951,0.54275 -0.42943,0.40006 -0.84515,0.66299 -0.92386,0.58429 -0.0786,-0.0786 0.40708,-0.66203 1.07952,-1.29628 l 1.22259,-1.15321 v -5.71029 c 0,-3.97191 -0.12868,-5.83892 -0.42249,-6.13279 -0.3286,-0.3286 -0.3286,-0.51639 0,-0.845 0.49436,-0.49435 0.60915,-10.687173 0.12375,-10.987165 -0.16431,-0.101532 -0.6501,0.142677 -1.07951,0.542737 -0.42943,0.40006 -0.84515,0.662992 -0.92386,0.584295 -0.0786,-0.07864 0.40708,-0.662034 1.07952,-1.296283 l 1.22261,-1.153192 v -4.879733 c 0,-2.683849 -0.14473,-4.969179 -0.32163,-5.078506 -0.17689,-0.10933 -0.8414,0.35228 -1.47667,1.02579 -0.63528,0.67351 -1.224493,1.15511 -1.309393,1.070216 -0.0849,-0.08488 0.579623,-0.89882 1.476673,-1.808734 l 1.63102,-1.654387 v -4.190089 c 0,-2.470429 -0.16522,-4.498804 -0.40257,-4.942294 -0.30204,-0.564362 -0.30204,-0.785715 0,-0.886391 0.26946,-0.08982 0.40257,-1.412755 0.40257,-4.00087 0,-2.227782 -0.17063,-4.185506 -0.40257,-4.618884 -0.30204,-0.564361 -0.30204,-0.785714 0,-0.886391 0.58044,-0.193483 0.54709,-7.84953 -0.0375,-8.614979 -0.35595,-0.466055 -1.21912,-0.591253 -4.514533,-0.654818 -2.24094,-0.04322 -4.221377,-0.0065 -4.400987,0.08141 -0.17961,0.088 -2.12278,0.07513 -4.318157,-0.02862 -2.19538,-0.103741 -4.06347,-0.11613 -4.151317,-0.02753 -0.0878,0.0886 -1.49995,0.114759 -3.13801,0.05815 l -2.978288,-0.102929 v 2.247974 c 0,1.278985 0.182117,2.430091 0.422495,2.67047 0.328607,0.328606 0.328607,0.516384 0,0.844991 -0.522534,0.522534 -0.578663,6.725663 -0.06946,7.677108 0.235992,0.440952 0.235992,0.731984 0,0.877834 -0.388259,0.23996 -0.500667,8.009458 -0.121359,8.38876 0.127414,0.127414 0.444289,0.0552 0.704152,-0.160471 0.72325,-0.600242 0.56158,-0.02 -0.231658,0.831433 -0.616825,0.662085 -0.704159,1.242487 -0.704159,4.679669 0,2.158117 0.104247,4.028096 0.231665,4.155514 0.127414,0.127414 0.444289,0.0552 0.704152,-0.160471 0.72325,-0.600243 0.56158,-0.02 -0.231658,0.831432 -0.616825,0.662086 -0.704159,1.242488 -0.704159,4.67967 0,2.158106 0.104247,4.02809 0.231665,4.155504 0.127414,0.127481 0.444289,0.05522 0.704152,-0.160468 0.72325,-0.600236 0.56158,-0.01996 -0.231658,0.831431 -0.626979,0.672985 -0.704159,1.242495 -0.704159,5.196067 0,3.06868 0.135945,4.58436 0.440099,4.90676 0.352081,0.37321 0.352081,0.49879 0,0.62788 -0.548145,0.20099 -0.625028,9.3096 -0.08707,10.31479 0.235992,0.44096 0.235992,0.73198 0,0.87784 -0.529221,0.32707 -0.465019,10.83826 0.06946,11.37274 0.328607,0.32861 0.328607,0.51639 0,0.845 -0.529302,0.52929 -0.59,10.92942 -0.06946,11.90205 0.235992,0.44096 0.235992,0.73199 0,0.87784 -0.391006,0.24165 -0.505987,11.52492 -0.121359,11.90956 0.127414,0.12748 0.444289,0.0552 0.704157,-0.16048 0.72325,-0.60024 0.56158,-0.02 -0.231663,0.83144 -0.643745,0.69098 -0.704159,1.24249 -0.704159,6.42833 0,3.94252 0.128851,5.80136 0.422495,6.09501 0.328607,0.3286 0.328607,0.51637 0,0.84499 -0.295728,0.29572 -0.422495,2.23244 -0.422495,6.45477 v 6.03227 l 5.715192,0.082 c 3.143347,0.0451 5.783944,0.1507 5.867984,0.23475 0.22784,0.22784 0.94258,0.18454 1.19981,-0.0727 z m -11.022594,-1.03194 c 0,-0.37395 1.08818,-1.29254 1.29096,-1.08977 0.11065,0.11071 -0.044,0.44639 -0.34369,0.74608 -0.55907,0.55906 -0.94727,0.6999 -0.94727,0.34369 z m 13.399364,-1.36442 c 0.84856,-0.86106 1.609737,-1.49869 1.691497,-1.41693 0.18697,0.18696 -2.587277,2.98254 -2.959797,2.98254 -0.151,0 0.41973,-0.70451 1.2683,-1.56561 z M 82.577846,180.3964 c 0,-0.30189 0.16102,-0.44937 0.35782,-0.32775 0.1968,0.12163 0.26667,0.36863 0.15526,0.5489 -0.30181,0.48835 -0.51308,0.39729 -0.51308,-0.22115 z m 0.70416,-0.85941 c 0,-0.19364 0.15843,-0.35209 0.35208,-0.35209 0.19364,0 0.35208,0.15845 0.35208,0.35209 0,0.19364 -0.15844,0.35207 -0.35208,0.35207 -0.19365,0 -0.35208,-0.15843 -0.35208,-0.35207 z m 1.05624,-0.70416 c 0,-0.19365 0.16778,-0.35208 0.37286,-0.35208 0.20507,0 0.27493,0.15843 0.15526,0.35208 -0.11969,0.19364 -0.28747,0.35207 -0.37286,0.35207 -0.0854,0 -0.15526,-0.15843 -0.15526,-0.35207 z m 11.970691,0 c 0,-0.19365 0.16778,-0.35208 0.37286,-0.35208 0.20507,0 0.27493,0.15843 0.15526,0.35208 -0.11969,0.19364 -0.28747,0.35207 -0.37286,0.35207 -0.0854,0 -0.15526,-0.15843 -0.15526,-0.35207 z m -11.266531,-1.05624 c 0,-0.19364 0.158427,-0.35208 0.352067,-0.35208 0.19365,0 0.35208,0.15844 0.35208,0.35208 0,0.19364 -0.15843,0.35207 -0.35208,0.35207 -0.19364,0 -0.352067,-0.15843 -0.352067,-0.35207 z m 12.146721,0 c 0.11969,-0.19364 0.28747,-0.35208 0.37286,-0.35208 0.0854,0 0.15526,0.15844 0.15526,0.35208 0,0.19364 -0.16778,0.35207 -0.37286,0.35207 -0.20507,0 -0.27493,-0.15843 -0.15526,-0.35207 z m -11.090494,-0.70417 c 0,-0.19364 0.16779,-0.35207 0.37286,-0.35207 0.20508,0 0.27494,0.15843 0.15526,0.35207 -0.11968,0.19365 -0.28746,0.35209 -0.37286,0.35209 -0.0854,0 -0.15526,-0.15844 -0.15526,-0.35209 z m 11.970694,0 c 0,-0.19364 0.16779,-0.35207 0.37286,-0.35207 0.20508,0 0.27494,0.15843 0.15526,0.35207 -0.11968,0.19365 -0.28746,0.35209 -0.37286,0.35209 -0.0854,0 -0.15526,-0.15844 -0.15526,-0.35209 z m -11.266534,-0.90533 c 0,-0.37397 1.08818,-1.29256 1.29096,-1.08977 0.11065,0.11058 -0.044,0.44638 -0.3437,0.74606 -0.55905,0.55907 -0.94726,0.69992 -0.94726,0.34371 z m 12.146734,-0.1509 c 0.11963,-0.19365 0.28747,-0.35208 0.37286,-0.35208 0.0854,0 0.15526,0.15843 0.15526,0.35208 0,0.19364 -0.16778,0.35208 -0.37286,0.35208 -0.20507,0 -0.27494,-0.15844 -0.15526,-0.35208 z m 0.8802,-0.70415 c 0,-0.19365 0.16779,-0.35209 0.372863,-0.35209 0.20507,0 0.27493,0.15844 0.15526,0.35209 -0.11963,0.19364 -0.28747,0.35207 -0.372863,0.35207 -0.0854,0 -0.15526,-0.15843 -0.15526,-0.35207 z m -11.266534,-0.90535 c 0,-0.37396 1.08818,-1.29255 1.29096,-1.08978 0.11065,0.11072 -0.044,0.44638 -0.3437,0.74608 -0.55906,0.55905 -0.94726,0.69991 -0.94726,0.3437 z M 101.062,173.90371 c 0.3505,-0.38729 0.80101,-0.70415 1.00116,-0.70415 0.20014,0 0.0238,0.31686 -0.39192,0.70415 -0.41571,0.38728 -0.86622,0.70416 -1.00115,0.70416 -0.13493,0 0.0414,-0.31688 0.39191,-0.70416 z m -10.738407,-1.015 c 0,-0.5466 1.016797,-1.60635 1.284437,-1.33871 0.10707,0.10713 -0.13813,0.5519 -0.54488,0.98851 -0.40948,0.43952 -0.739557,0.59582 -0.739557,0.3502 z m 1.760387,-1.99845 c 0,-0.30189 0.16102,-0.44938 0.35783,-0.32775 0.1968,0.12163 0.26667,0.36863 0.15526,0.5489 -0.30182,0.48835 -0.51309,0.39729 -0.51309,-0.22115 z m 0.70416,-0.85942 c 0,-0.19364 0.15844,-0.35208 0.35208,-0.35208 0.19365,0 0.35208,0.15844 0.35208,0.35208 0,0.19365 -0.15843,0.35208 -0.35208,0.35208 -0.19364,0 -0.35208,-0.15843 -0.35208,-0.35208 z m -12.850894,-0.70416 c -0.119678,-0.19364 0.0387,-0.35207 0.35208,-0.35207 0.31333,0 0.47176,0.15843 0.35208,0.35207 -0.11968,0.19364 -0.27811,0.35208 -0.35208,0.35208 -0.074,0 -0.2324,-0.15844 -0.35208,-0.35208 z m 13.731094,0 c -0.11968,-0.19364 0.0388,-0.35207 0.35208,-0.35207 0.31332,0 0.47176,0.15843 0.35208,0.35207 -0.11968,0.19364 -0.27811,0.35208 -0.35208,0.35208 -0.074,0 -0.2324,-0.15844 -0.35208,-0.35208 z m -12.850894,-0.90535 c 0,-0.37395 1.08818,-1.29254 1.29096,-1.08977 0.11065,0.11071 -0.044,0.44639 -0.34369,0.74608 -0.55907,0.55906 -0.94727,0.6999 -0.94727,0.34369 z m 13.731094,0 c 0,-0.37395 1.08818,-1.29254 1.290957,-1.08977 0.11065,0.11071 -0.044,0.44639 -0.343697,0.74608 -0.55906,0.55906 -0.94726,0.6999 -0.94726,0.34369 z m -11.970694,-1.76039 c 0,-0.37396 1.08818,-1.29255 1.29096,-1.08977 0.11065,0.11058 -0.044,0.44638 -0.3437,0.74607 -0.55906,0.55906 -0.94726,0.69992 -0.94726,0.3437 z m 13.731091,0 c 0,-0.37396 1.08818,-1.29255 1.29096,-1.08977 0.11064,0.11058 -0.044,0.44638 -0.3437,0.74607 -0.55906,0.55906 -0.94726,0.69992 -0.94726,0.3437 z m -11.970691,-1.93207 c 0,-0.20508 0.15843,-0.27494 0.35208,-0.15527 0.19364,0.11963 0.35208,0.28747 0.35208,0.37286 0,0.0854 -0.15844,0.15527 -0.35208,0.15527 -0.19365,0 -0.35208,-0.16779 -0.35208,-0.37286 z m 13.731081,0.17167 c 0,-0.37395 1.08818,-1.29254 1.29097,-1.08977 0.11058,0.11071 -0.044,0.44638 -0.34371,0.74608 -0.55905,0.55905 -0.94726,0.6999 -0.94726,0.34369 z m -13.026921,-0.85505 c 0,-0.19364 0.158427,-0.35207 0.352067,-0.35207 0.19365,0 0.35208,0.15843 0.35208,0.35207 0,0.19364 -0.15843,0.35208 -0.35208,0.35208 -0.19364,0 -0.352067,-0.15844 -0.352067,-0.35208 z m 0.898777,-0.67409 c -0.11336,-0.18342 -0.056,-0.42625 0.12739,-0.5396 0.18342,-0.11337 0.42624,-0.056 0.5396,0.12735 0.11336,0.18342 0.056,0.42625 -0.12739,0.53961 -0.18342,0.11338 -0.42624,0.056 -0.5396,-0.12735 z m 13.731094,0 c -0.11337,-0.18342 -0.056,-0.42625 0.12735,-0.5396 0.18342,-0.11337 0.426253,-0.056 0.539613,0.12735 0.11337,0.18342 0.056,0.42625 -0.12735,0.53961 -0.18342,0.11338 -0.426233,0.056 -0.539603,-0.12735 z m -12.869484,-1.08631 c 0,-0.19364 0.15844,-0.35208 0.35208,-0.35208 0.19365,0 0.35208,0.15844 0.35208,0.35208 0,0.19364 -0.15843,0.35209 -0.35208,0.35209 -0.19364,0 -0.35208,-0.15845 -0.35208,-0.35209 z m 13.731097,0 c 0,-0.19364 0.15843,-0.35208 0.35208,-0.35208 0.19364,0 0.35208,0.15844 0.35208,0.35208 0,0.19364 -0.15844,0.35209 -0.35208,0.35209 -0.19365,0 -0.35208,-0.15845 -0.35208,-0.35209 z M 87.701583,161.611 c -0.11336,-0.18342 -0.056,-0.42624 0.12738,-0.5396 0.18343,-0.11337 0.42625,-0.056 0.53961,0.12735 0.11336,0.18342 0.056,0.42625 -0.12739,0.53961 -0.18342,0.11337 -0.42624,0.056 -0.5396,-0.12735 z m 13.731087,0 c -0.11338,-0.18342 -0.056,-0.42624 0.12735,-0.5396 0.18342,-0.11337 0.42624,-0.056 0.53961,0.12735 0.11337,0.18342 0.056,0.42625 -0.12735,0.53961 -0.18342,0.11337 -0.42625,0.056 -0.53961,-0.12735 z m -12.869477,-0.93541 c 0,-0.37395 1.08818,-1.29255 1.29096,-1.08977 0.11065,0.11071 -0.044,0.44638 -0.3437,0.74608 -0.55906,0.55905 -0.94726,0.6999 -0.94726,0.34369 z m 1.7604,-1.7604 c 0,-0.37396 1.088167,-1.29255 1.290957,-1.08978 0.11064,0.11072 -0.044,0.4464 -0.3437,0.74608 -0.55906,0.55907 -0.947257,0.69991 -0.947257,0.3437 z m 1.760387,-1.93206 c 0,-0.20508 0.15844,-0.27495 0.35208,-0.15527 0.19365,0.11963 0.35208,0.28747 0.35208,0.37286 0,0.0854 -0.15843,0.15527 -0.35208,0.15527 -0.19364,0 -0.35208,-0.16779 -0.35208,-0.37286 z m 0.70416,-0.68338 c 0,-0.19365 0.15844,-0.35209 0.35208,-0.35209 0.19365,0 0.35208,0.15844 0.35208,0.35209 0,0.19364 -0.15843,0.35207 -0.35208,0.35207 -0.19364,0 -0.35208,-0.15843 -0.35208,-0.35207 z m -11.970694,-0.58321 c 0,-0.20015 0.31687,-0.65067 0.70416,-1.00116 0.38729,-0.35049 0.70416,-0.52685 0.70416,-0.39191 0,0.13492 -0.31687,0.58544 -0.70416,1.00114 -0.38729,0.41571 -0.70416,0.59207 -0.70416,0.39193 z m 12.869484,-0.0909 c -0.11336,-0.18343 -0.056,-0.42625 0.12738,-0.53961 0.18343,-0.11338 0.42625,-0.056 0.53961,0.12735 0.11336,0.18342 0.056,0.42624 -0.12739,0.53959 -0.18342,0.11338 -0.42625,0.056 -0.5396,-0.12735 z m 0.86161,-1.08631 c 0,-0.19365 0.15844,-0.35208 0.35208,-0.35208 0.19364,0 0.35208,0.15843 0.35208,0.35208 0,0.19364 -0.15844,0.35207 -0.35208,0.35207 -0.19364,0 -0.35208,-0.15843 -0.35208,-0.35207 z m -11.970694,-0.70417 c 0,-0.19364 0.16779,-0.35207 0.37286,-0.35207 0.20507,0 0.27494,0.15843 0.15526,0.35207 -0.11968,0.19364 -0.28747,0.35209 -0.37286,0.35209 -0.0854,0 -0.15526,-0.15845 -0.15526,-0.35209 z m 12.865934,0.0243 c -0.11141,-0.18027 -0.0416,-0.42727 0.15526,-0.54889 0.196797,-0.12163 0.357817,0.0258 0.357817,0.32775 0,0.61842 -0.211267,0.70948 -0.513077,0.22114 z m -11.985734,-1.08057 c 0.11968,-0.19365 0.28746,-0.35208 0.37286,-0.35208 0.0854,0 0.15526,0.15843 0.15526,0.35208 0,0.19364 -0.16779,0.35209 -0.37286,0.35209 -0.20507,0 -0.27494,-0.15845 -0.15526,-0.35209 z m 12.850891,0.1509 c 0,-0.37397 1.08818,-1.29256 1.29096,-1.08977 0.11064,0.11058 -0.044,0.44638 -0.3437,0.74606 -0.55906,0.55907 -0.94726,0.69992 -0.94726,0.34371 z m -11.970691,-0.85505 c 0,-0.19365 0.16778,-0.35209 0.37286,-0.35209 0.20507,0 0.27493,0.15844 0.15526,0.35209 -0.11969,0.19364 -0.28747,0.35207 -0.37286,0.35207 -0.0854,0 -0.15526,-0.15843 -0.15526,-0.35207 z m 0.70416,-1.05624 c 0,-0.19364 0.158427,-0.35209 0.352067,-0.35209 0.19365,0 0.35208,0.15845 0.35208,0.35209 0,0.19364 -0.15843,0.35207 -0.35208,0.35207 -0.19364,0 -0.352067,-0.15843 -0.352067,-0.35207 z m 13.026921,0.15089 c 0,-0.37396 1.08818,-1.29255 1.29097,-1.08978 0.11058,0.11072 -0.044,0.44639 -0.34371,0.74608 -0.55905,0.55906 -0.94726,0.69991 -0.94726,0.3437 z m -11.970694,-0.85505 c 0,-0.19365 0.16779,-0.35208 0.37286,-0.35208 0.20508,0 0.27494,0.15843 0.15526,0.35208 -0.11968,0.19364 -0.28746,0.35207 -0.37286,0.35207 -0.0854,0 -0.15526,-0.15843 -0.15526,-0.35207 z m 0.70416,-0.97154 c 0,-0.14707 0.31687,-0.46529 0.70416,-0.70716 0.8188,-0.51135 0.92805,-0.25529 0.20119,0.47157 -0.555,0.55499 -0.90535,0.64616 -0.90535,0.23559 z m 13.026934,0.0661 c 0,-0.37395 1.088193,-1.29254 1.290963,-1.08977 0.11071,0.11071 -0.044,0.44639 -0.34369,0.74608 -0.55907,0.55906 -0.947273,0.69991 -0.947273,0.34369 z m 1.602943,-1.52914 c -0.11338,-0.18342 -0.056,-0.42623 0.12735,-0.5396 0.18342,-0.11337 0.42624,-0.056 0.53961,0.12735 0.11337,0.18343 0.056,0.42625 -0.12735,0.53961 -0.18342,0.11338 -0.42625,0.056 -0.53961,-0.12735 z m -12.435687,-0.73422 c 0.41279,-0.66098 0.97453,-0.9509 0.97453,-0.50298 0,0.26293 -0.94653,1.20714 -1.21012,1.20714 -0.11229,0 -0.006,-0.31688 0.23559,-0.70416 z m 1.32661,-1.05624 c 0,-0.19364 0.167777,-0.35208 0.372857,-0.35208 0.20507,0 0.27494,0.15844 0.15526,0.35208 -0.11969,0.19364 -0.28747,0.35207 -0.37286,0.35207 -0.0854,0 -0.155257,-0.15843 -0.155257,-0.35207 z m 0.704157,-1.05624 c 0,-0.19364 0.15843,-0.35207 0.35207,-0.35207 0.19365,0 0.35208,0.15843 0.35208,0.35207 0,0.19364 -0.15843,0.35208 -0.35208,0.35208 -0.19364,0 -0.35207,-0.15844 -0.35207,-0.35208 z m 1.05623,-0.70416 c 0,-0.19364 0.16779,-0.35208 0.37286,-0.35208 0.20507,0 0.27494,0.15844 0.15526,0.35208 -0.11968,0.19364 -0.28746,0.35209 -0.37286,0.35209 -0.0854,0 -0.15526,-0.15845 -0.15526,-0.35209 z m -12.146734,-1.05624 c 0.11969,-0.19364 0.28747,-0.35208 0.37286,-0.35208 0.0854,0 0.15526,0.15844 0.15526,0.35208 0,0.19364 -0.16778,0.35209 -0.37286,0.35209 -0.205068,0 -0.274935,-0.15845 -0.15526,-0.35209 z m 12.850894,0 c 0,-0.19364 0.15844,-0.35208 0.35208,-0.35208 0.19365,0 0.35208,0.15844 0.35208,0.35208 0,0.19364 -0.15843,0.35209 -0.35208,0.35209 -0.19364,0 -0.35208,-0.15845 -0.35208,-0.35209 z m -11.970694,-0.70415 c 0,-0.19364 0.16779,-0.35209 0.37286,-0.35209 0.20507,0 0.27494,0.15845 0.15526,0.35209 -0.11968,0.19364 -0.28746,0.35207 -0.37286,0.35207 -0.0854,0 -0.15526,-0.15843 -0.15526,-0.35207 z m 13.026934,0 c 0,-0.19364 0.16779,-0.35209 0.37286,-0.35209 0.20507,0 0.27494,0.15845 0.15526,0.35209 -0.11968,0.19364 -0.28747,0.35207 -0.37286,0.35207 -0.0854,0 -0.15526,-0.15843 -0.15526,-0.35207 z m -12.146734,-1.05624 c 0.11968,-0.19364 0.28747,-0.35209 0.37286,-0.35209 0.0854,0 0.15526,0.15845 0.15526,0.35209 0,0.19364 -0.16779,0.35208 -0.37286,0.35208 -0.20507,0 -0.27494,-0.15844 -0.15526,-0.35208 z m 12.850894,0.15089 c 0,-0.37395 1.08818,-1.29254 1.290957,-1.08977 0.11065,0.11071 -0.044,0.44638 -0.343697,0.74608 -0.55906,0.55905 -0.94726,0.6999 -0.94726,0.34369 z m -11.970694,-0.85505 c 0,-0.19364 0.16779,-0.35208 0.37286,-0.35208 0.20507,0 0.27494,0.15844 0.15526,0.35208 -0.11968,0.19364 -0.28747,0.35207 -0.37286,0.35207 -0.0854,0 -0.15526,-0.15843 -0.15526,-0.35207 z m 0.8802,-1.05624 c 0.11968,-0.19364 0.28746,-0.35208 0.37286,-0.35208 0.0854,0 0.15526,0.15844 0.15526,0.35208 0,0.19364 -0.16779,0.35207 -0.37286,0.35207 -0.20507,0 -0.27494,-0.15843 -0.15526,-0.35207 z m 12.850891,0.15089 c 0,-0.37395 1.08818,-1.29255 1.29096,-1.08977 0.11064,0.11071 -0.044,0.44639 -0.3437,0.74608 -0.55906,0.55906 -0.94726,0.6999 -0.94726,0.34369 z m -11.970691,-0.85505 c 0,-0.19365 0.16778,-0.35208 0.37286,-0.35208 0.20507,0 0.27493,0.15843 0.15526,0.35208 -0.11969,0.19364 -0.28747,0.35208 -0.37286,0.35208 -0.0854,0 -0.15526,-0.15844 -0.15526,-0.35208 z m 13.731081,-0.90098 c 0,-0.30189 0.16102,-0.44937 0.35783,-0.32775 0.1968,0.12163 0.26667,0.36863 0.15526,0.5489 -0.30182,0.48835 -0.51309,0.39729 -0.51309,-0.22115 z m -12.037604,-0.89861 c 0.64095,-0.60071 1.2352,-1.02235 1.32056,-0.937 0.18505,0.18505 -1.83415,2.03316 -2.218817,2.0308 -0.1469,-10e-4 0.257307,-0.4931 0.898257,-1.0938 z m 12.741764,0.0392 c 0,-0.19364 0.15843,-0.35209 0.35209,-0.35209 0.19364,0 0.35207,0.15845 0.35207,0.35209 0,0.19364 -0.15843,0.35208 -0.35207,0.35208 -0.19366,0 -0.35209,-0.15844 -0.35209,-0.35208 z m 1.05624,-0.70416 c 0,-0.19364 0.16779,-0.35208 0.372863,-0.35208 0.20507,0 0.27493,0.15844 0.15526,0.35208 -0.11963,0.19364 -0.28747,0.35207 -0.372863,0.35207 -0.0854,0 -0.15526,-0.15843 -0.15526,-0.35207 z m -12.146734,-1.05624 c 0.11968,-0.19364 0.28747,-0.35208 0.37286,-0.35208 0.0854,0 0.15526,0.15844 0.15526,0.35208 0,0.19364 -0.16779,0.35207 -0.37286,0.35207 -0.20507,0 -0.27494,-0.15843 -0.15526,-0.35207 z m 12.850897,0 c 0,-0.19364 0.15843,-0.35208 0.35208,-0.35208 0.19364,0 0.35208,0.15844 0.35208,0.35208 0,0.19364 -0.15844,0.35207 -0.35208,0.35207 -0.19365,0 -0.35208,-0.15843 -0.35208,-0.35207 z m -11.970697,-0.70416 c 0,-0.19365 0.16779,-0.35208 0.37286,-0.35208 0.20507,0 0.27494,0.15843 0.15526,0.35208 -0.11968,0.19364 -0.28747,0.35208 -0.37286,0.35208 -0.0854,0 -0.15526,-0.15844 -0.15526,-0.35208 z m 12.850897,0 c -0.11963,-0.19365 0.0387,-0.35208 0.35208,-0.35208 0.31332,0 0.47175,0.15843 0.35207,0.35208 -0.11963,0.19364 -0.27811,0.35208 -0.35207,0.35208 -0.074,0 -0.23241,-0.15844 -0.35208,-0.35208 z m -11.970697,-1.05624 c 0.11968,-0.19364 0.28746,-0.35208 0.37286,-0.35208 0.0854,0 0.15526,0.15844 0.15526,0.35208 0,0.19364 -0.16779,0.35209 -0.37286,0.35209 -0.20507,0 -0.27494,-0.15845 -0.15526,-0.35209 z m 0.8802,-0.70415 c 0,-0.19364 0.167777,-0.35209 0.372857,-0.35209 0.20507,0 0.27494,0.15845 0.15526,0.35209 -0.11969,0.19364 -0.28747,0.35207 -0.37286,0.35207 -0.0854,0 -0.155257,-0.15843 -0.155257,-0.35207 z m 0.880197,-1.05624 c 0.11968,-0.19364 0.28746,-0.35209 0.37285,-0.35209 0.0854,0 0.15526,0.15845 0.15526,0.35209 0,0.19364 -0.16778,0.35207 -0.37285,0.35207 -0.20508,0 -0.27494,-0.15843 -0.15526,-0.35207 z m 0.88019,-0.70416 c 0,-0.19365 0.16779,-0.35208 0.37286,-0.35208 0.20507,0 0.27494,0.15843 0.15526,0.35208 -0.11968,0.19364 -0.28746,0.35207 -0.37286,0.35207 -0.0854,0 -0.15526,-0.15843 -0.15526,-0.35207 z m -12.131694,-0.67983 c -0.111417,-0.18027 -0.0415,-0.42727 0.15526,-0.54891 0.1968,-0.12162 0.35782,0.0258 0.35782,0.32776 0,0.61843 -0.21127,0.70949 -0.51308,0.22115 z m 13.825184,-1.11978 c 0.64095,-0.60069 1.2352,-1.02234 1.32055,-0.93699 0.18505,0.18506 -1.83414,2.03315 -2.21881,2.03081 -0.14691,-0.001 0.25731,-0.49312 0.89826,-1.09382 z m -12.960024,0.0393 c 0,-0.19364 0.15844,-0.35208 0.35208,-0.35208 0.19365,0 0.35208,0.15844 0.35208,0.35208 0,0.19364 -0.15843,0.35209 -0.35208,0.35209 -0.19364,0 -0.35208,-0.15845 -0.35208,-0.35209 z m 0.89524,-0.67983 c -0.11142,-0.18027 -0.0416,-0.42727 0.15526,-0.54889 0.1968,-0.12163 0.35782,0.0258 0.35782,0.32775 0,0.61844 -0.21127,0.70949 -0.51308,0.22114 z m 0.86516,-0.92967 c 0,-0.37395 1.08818,-1.29255 1.29096,-1.08977 0.11065,0.11071 -0.044,0.44638 -0.3437,0.74608 -0.55906,0.55905 -0.94726,0.6999 -0.94726,0.34369 z m 12.850894,-0.15089 c 0.11968,-0.19364 0.28746,-0.35209 0.372857,-0.35209 0.0854,0 0.15526,0.15845 0.15526,0.35209 0,0.19364 -0.16779,0.35208 -0.372857,0.35208 -0.20507,0 -0.27494,-0.15844 -0.15526,-0.35208 z m 0.880197,-0.70416 c 0,-0.19365 0.16778,-0.35208 0.37286,-0.35208 0.20507,0 0.27493,0.15843 0.15526,0.35208 -0.11969,0.19364 -0.28747,0.35207 -0.37286,0.35207 -0.0854,0 -0.15526,-0.15843 -0.15526,-0.35207 z m -11.970691,-0.90535 c 0,-0.37396 1.088177,-1.29255 1.290957,-1.08978 0.11064,0.11072 -0.044,0.4464 -0.3437,0.74608 -0.559057,0.55907 -0.947257,0.69991 -0.947257,0.3437 z m 12.850881,-0.15089 c 0.11969,-0.19364 0.28747,-0.35208 0.37286,-0.35208 0.0854,0 0.15526,0.15844 0.15526,0.35208 0,0.19364 -0.16778,0.35207 -0.37286,0.35207 -0.20507,0 -0.27493,-0.15843 -0.15526,-0.35207 z m 0.8802,-0.70416 c 0,-0.19365 0.16779,-0.35208 0.37286,-0.35208 0.20508,0 0.27494,0.15843 0.15526,0.35208 -0.11968,0.19364 -0.28746,0.35208 -0.37286,0.35208 -0.0854,0 -0.15526,-0.15844 -0.15526,-0.35208 z m -12.143184,-1.06198 c 0.12163,-0.19681 0.36864,-0.26667 0.5489,-0.15526 0.48835,0.30181 0.39729,0.51309 -0.22115,0.51309 -0.30189,0 -0.44938,-0.16103 -0.32775,-0.35783 z m 13.023384,0.005 c 0.11963,-0.19364 0.28747,-0.35207 0.37286,-0.35207 0.0854,0 0.15526,0.15843 0.15526,0.35207 0,0.19365 -0.16778,0.35209 -0.37286,0.35209 -0.20507,0 -0.27494,-0.15844 -0.15526,-0.35209 z m -12.146734,-0.70415 c 0,-0.19364 0.15844,-0.35208 0.35208,-0.35208 0.19365,0 0.35208,0.15844 0.35208,0.35208 0,0.19365 -0.15843,0.35208 -0.35208,0.35208 -0.19364,0 -0.35208,-0.15843 -0.35208,-0.35208 z m 13.026934,0 c 0,-0.19364 0.16779,-0.35208 0.372863,-0.35208 0.20507,0 0.27493,0.15844 0.15526,0.35208 -0.11963,0.19365 -0.28747,0.35208 -0.372863,0.35208 -0.0854,0 -0.15526,-0.15843 -0.15526,-0.35208 z m -12.146734,-1.05623 c 0.11968,-0.19365 0.28747,-0.35209 0.37286,-0.35209 0.0854,0 0.15526,0.15844 0.15526,0.35209 0,0.19364 -0.16779,0.35207 -0.37286,0.35207 -0.20507,0 -0.27494,-0.15843 -0.15526,-0.35207 z m 0.8802,-0.70417 c 0,-0.19364 0.15843,-0.35207 0.35208,-0.35207 0.19364,0 0.35208,0.15843 0.35208,0.35207 0,0.19365 -0.15844,0.35208 -0.35208,0.35208 -0.19365,0 -0.35208,-0.15843 -0.35208,-0.35208 z m 0.8802,-1.05624 c 0.11968,-0.19364 0.28746,-0.35207 0.37286,-0.35207 0.0854,0 0.15526,0.15843 0.15526,0.35207 0,0.19365 -0.16779,0.35208 -0.37286,0.35208 -0.20507,0 -0.27494,-0.15843 -0.15526,-0.35208 z m 0.8802,-0.55326 c 0,-0.37396 1.088167,-1.29255 1.290957,-1.08977 0.11064,0.11058 -0.044,0.44638 -0.3437,0.74607 -0.55906,0.55906 -0.947257,0.69992 -0.947257,0.3437 z m -10.386347,-1.91129 c 0.11969,-0.19364 0.28747,-0.35209 0.37286,-0.35209 0.0854,0 0.15526,0.15845 0.15526,0.35209 0,0.19365 -0.16778,0.35208 -0.37286,0.35208 -0.205068,0 -0.274935,-0.15843 -0.15526,-0.35208 z m 12.146734,0.15089 c 0,-0.37395 1.08818,-1.29254 1.29096,-1.08977 0.11065,0.11071 -0.044,0.44638 -0.34369,0.74608 -0.55906,0.55905 -0.94727,0.6999 -0.94727,0.34369 z m -11.266534,-0.85505 c 0,-0.19364 0.16779,-0.35208 0.37286,-0.35208 0.20507,0 0.27494,0.15844 0.15526,0.35208 -0.11968,0.19364 -0.28746,0.35207 -0.37286,0.35207 -0.0854,0 -0.15526,-0.15843 -0.15526,-0.35207 z m 0.8802,-1.05624 c 0.11968,-0.19364 0.28747,-0.35207 0.37286,-0.35207 0.0854,0 0.15526,0.15843 0.15526,0.35207 0,0.19364 -0.16779,0.35208 -0.37286,0.35208 -0.20507,0 -0.27494,-0.15844 -0.15526,-0.35208 z m 11.970694,0 c 0.11968,-0.19364 0.28747,-0.35207 0.37286,-0.35207 0.0854,0 0.15526,0.15843 0.15526,0.35207 0,0.19364 -0.16779,0.35208 -0.37286,0.35208 -0.20507,0 -0.27494,-0.15844 -0.15526,-0.35208 z m -11.090494,-0.70416 c 0,-0.19364 0.16779,-0.35208 0.37286,-0.35208 0.20507,0 0.27494,0.15844 0.15526,0.35208 -0.11968,0.19364 -0.28747,0.35209 -0.37286,0.35209 -0.0854,0 -0.15526,-0.15845 -0.15526,-0.35209 z m 11.970694,0 c 0,-0.19364 0.15844,-0.35208 0.35208,-0.35208 0.19364,0 0.35208,0.15844 0.35208,0.35208 0,0.19364 -0.15844,0.35209 -0.35208,0.35209 -0.19364,0 -0.35208,-0.15845 -0.35208,-0.35209 z m -11.090494,-1.05625 c 0.11968,-0.19364 0.28746,-0.35207 0.37286,-0.35207 0.0854,0 0.15526,0.15843 0.15526,0.35207 0,0.19365 -0.16779,0.35209 -0.37286,0.35209 -0.20507,0 -0.27494,-0.15844 -0.15526,-0.35209 z m 11.970694,0 c 0.11968,-0.19364 0.28746,-0.35207 0.372857,-0.35207 0.0854,0 0.15526,0.15843 0.15526,0.35207 0,0.19365 -0.16779,0.35209 -0.372857,0.35209 -0.20507,0 -0.27494,-0.15844 -0.15526,-0.35209 z m -11.090494,-0.70415 c 0,-0.19364 0.16778,-0.35209 0.37286,-0.35209 0.20507,0 0.27493,0.15845 0.15526,0.35209 -0.11969,0.19364 -0.28747,0.35208 -0.37286,0.35208 -0.0854,0 -0.15526,-0.15844 -0.15526,-0.35208 z m 11.970691,0 c 0,-0.19364 0.15843,-0.35209 0.35208,-0.35209 0.19364,0 0.35208,0.15845 0.35208,0.35209 0,0.19364 -0.15844,0.35208 -0.35208,0.35208 -0.19365,0 -0.35208,-0.15844 -0.35208,-0.35208 z m -10.277214,-1.79961 c 0.64095,-0.6007 1.2352,-1.02234 1.32056,-0.93699 0.18505,0.18504 -1.83415,2.03315 -2.218817,2.0308 -0.1469,-0.001 0.257307,-0.49311 0.898257,-1.09381 z m 11.157404,0.74337 c 0.11969,-0.19365 0.28747,-0.35209 0.37286,-0.35209 0.0854,0 0.15526,0.15844 0.15526,0.35209 0,0.19364 -0.16778,0.35207 -0.37286,0.35207 -0.20507,0 -0.27493,-0.15843 -0.15526,-0.35207 z m 0.8802,-0.48829 c 0,-0.13492 0.31688,-0.58544 0.70416,-1.00115 0.38728,-0.41571 0.70416,-0.59206 0.70416,-0.39193 0,0.20015 -0.31688,0.65067 -0.70416,1.00117 -0.38728,0.35049 -0.70416,0.52684 -0.70416,0.39191 z m -10.386334,-1.97628 c 0.11968,-0.19364 0.28747,-0.35207 0.37286,-0.35207 0.0854,0 0.15526,0.15843 0.15526,0.35207 0,0.19364 -0.16779,0.35209 -0.37286,0.35209 -0.20507,0 -0.27494,-0.15845 -0.15526,-0.35209 z m 12.146734,0.20546 c 0,-0.37116 1.060513,-1.37478 1.251213,-1.18409 0.0888,0.0888 -0.15642,0.44908 -0.54489,0.80064 -0.38847,0.35157 -0.706323,0.52412 -0.706323,0.38345 z m -11.266534,-0.90961 c 0,-0.19364 0.16779,-0.35209 0.37286,-0.35209 0.20507,0 0.27494,0.15845 0.15526,0.35209 -0.11968,0.19364 -0.28747,0.35208 -0.37286,0.35208 -0.0854,0 -0.15526,-0.15844 -0.15526,-0.35208 z m 0.8802,-1.05624 c 0.11968,-0.19364 0.28746,-0.35209 0.37286,-0.35209 0.0854,0 0.15526,0.15845 0.15526,0.35209 0,0.19365 -0.16779,0.35208 -0.37286,0.35208 -0.20507,0 -0.27494,-0.15843 -0.15526,-0.35208 z m 11.970697,0 c 0.11963,-0.19364 0.28746,-0.35209 0.37286,-0.35209 0.0854,0 0.15525,0.15845 0.15525,0.35209 0,0.19365 -0.16778,0.35208 -0.37286,0.35208 -0.20507,0 -0.27493,-0.15843 -0.15525,-0.35208 z m -11.090497,-0.70416 c 0,-0.19365 0.167777,-0.35208 0.372857,-0.35208 0.20507,0 0.27494,0.15843 0.15526,0.35208 -0.11969,0.19364 -0.28747,0.35207 -0.37286,0.35207 -0.0854,0 -0.155257,-0.15843 -0.155257,-0.35207 z m -10.386347,-1.05624 c 0.11969,-0.19365 0.28747,-0.35208 0.37286,-0.35208 0.0854,0 0.15526,0.15843 0.15526,0.35208 0,0.19364 -0.16778,0.35207 -0.37286,0.35207 -0.205068,0 -0.274935,-0.15843 -0.15526,-0.35207 z m 11.266544,0 c 0.11968,-0.19365 0.28746,-0.35208 0.37285,-0.35208 0.0854,0 0.15526,0.15843 0.15526,0.35208 0,0.19364 -0.16778,0.35207 -0.37285,0.35207 -0.20508,0 -0.27494,-0.15843 -0.15526,-0.35207 z m -10.386344,-0.70417 c 0,-0.19365 0.15844,-0.35208 0.35208,-0.35208 0.19365,0 0.35208,0.15843 0.35208,0.35208 0,0.19364 -0.15843,0.35209 -0.35208,0.35209 -0.19364,0 -0.35208,-0.15845 -0.35208,-0.35209 z m 11.266534,0 c 0,-0.19365 0.16779,-0.35208 0.37286,-0.35208 0.20507,0 0.27494,0.15843 0.15526,0.35208 -0.11968,0.19364 -0.28746,0.35209 -0.37286,0.35209 -0.0854,0 -0.15526,-0.15845 -0.15526,-0.35209 z m -10.386334,-1.05625 c 0.11968,-0.19364 0.28747,-0.35207 0.37286,-0.35207 0.0854,0 0.15526,0.15843 0.15526,0.35207 0,0.19365 -0.16779,0.35209 -0.37286,0.35209 -0.20507,0 -0.27494,-0.15844 -0.15526,-0.35209 z m 12.519164,-1.21352 c 0.84856,-0.86108 1.609737,-1.49871 1.691497,-1.41696 0.18697,0.18698 -2.587277,2.98257 -2.959797,2.98257 -0.151,0 0.41973,-0.70452 1.2683,-1.56561 z m -11.638964,0.50937 c 0,-0.19364 0.16779,-0.35209 0.37286,-0.35209 0.20507,0 0.27494,0.15845 0.15526,0.35209 -0.11968,0.19364 -0.28747,0.35208 -0.37286,0.35208 -0.0854,0 -0.15526,-0.15844 -0.15526,-0.35208 z m 0.8802,-1.05625 c 0.11968,-0.19364 0.28746,-0.35209 0.37286,-0.35209 0.0854,0 0.15526,0.15845 0.15526,0.35209 0,0.19365 -0.16779,0.35208 -0.37286,0.35208 -0.20507,0 -0.27494,-0.15843 -0.15526,-0.35208 z m 0.8802,-0.4987 c 0,-0.37116 1.060507,-1.3748 1.251197,-1.1841 0.0888,0.0888 -0.15641,0.44907 -0.544887,0.80064 -0.38847,0.35157 -0.70631,0.52413 -0.70631,0.38346 z m 11.970691,-0.90963 c 0,-0.19364 0.16778,-0.35208 0.37286,-0.35208 0.20507,0 0.27493,0.15844 0.15526,0.35208 -0.11969,0.19364 -0.28747,0.35209 -0.37286,0.35209 -0.0854,0 -0.15526,-0.15845 -0.15526,-0.35209 z m -9.939334,-1.40832 c 0.41571,-0.38729 0.86623,-0.704166 1.00116,-0.704166 0.13493,0 -0.0414,0.316876 -0.39193,0.704166 -0.35049,0.38728 -0.80101,0.70417 -1.00115,0.70417 -0.20015,0 -0.0238,-0.31689 0.39192,-0.70417 z m 10.819524,0.35207 c 0.11969,-0.19364 0.28747,-0.35207 0.37286,-0.35207 0.0854,0 0.15526,0.15843 0.15526,0.35207 0,0.19365 -0.16778,0.3521 -0.37286,0.3521 -0.20507,0 -0.27493,-0.15845 -0.15526,-0.3521 z m 0.8802,-0.70415 c 0,-0.19364 0.16779,-0.352086 0.37286,-0.352086 0.20508,0 0.27494,0.158446 0.15526,0.352086 -0.11968,0.19364 -0.28746,0.35208 -0.37286,0.35208 -0.0854,0 -0.15526,-0.15844 -0.15526,-0.35208 z M 87.682993,99.262044 c 0.11968,-0.193643 0.28747,-0.352088 0.37286,-0.352088 0.0854,0 0.15526,0.158445 0.15526,0.352088 0,0.193642 -0.16779,0.352075 -0.37286,0.352075 -0.20507,0 -0.27494,-0.158433 -0.15526,-0.352075 z m 11.266534,0 c 0.11963,-0.193643 0.28747,-0.352088 0.37286,-0.352088 0.0854,0 0.15526,0.158445 0.15526,0.352088 0,0.193642 -0.16778,0.352075 -0.37286,0.352075 -0.20507,0 -0.27494,-0.158433 -0.15526,-0.352075 z M 88.563193,98.557881 c 0,-0.193643 0.16779,-0.352075 0.37286,-0.352075 0.20507,0 0.27494,0.158432 0.15526,0.352075 -0.11968,0.193642 -0.28747,0.352075 -0.37286,0.352075 -0.0854,0 -0.15526,-0.158433 -0.15526,-0.352075 z m 11.266534,0 c 0,-0.193643 0.16779,-0.352075 0.372863,-0.352075 0.20507,0 0.27493,0.158432 0.15526,0.352075 -0.11963,0.193642 -0.28747,0.352075 -0.372863,0.352075 -0.0854,0 -0.15526,-0.158433 -0.15526,-0.352075 z M 89.443393,97.501642 c 0.11968,-0.193642 0.28746,-0.352075 0.37286,-0.352075 0.0854,0 0.15526,0.158433 0.15526,0.352075 0,0.193643 -0.16779,0.352075 -0.37286,0.352075 -0.20507,0 -0.27494,-0.158432 -0.15526,-0.352075 z m 0.8802,-0.704163 c 0,-0.193643 0.167777,-0.352075 0.372857,-0.352075 0.20507,0 0.27494,0.158432 0.15526,0.352075 -0.11969,0.193643 -0.28747,0.352088 -0.37286,0.352088 -0.0854,0 -0.155257,-0.158445 -0.155257,-0.352088 z m -9.506147,-0.583203 c 0,-0.200137 0.31687,-0.650656 0.70416,-1.001148 0.38729,-0.350491 0.70416,-0.526861 0.70416,-0.391929 0,0.134932 -0.31687,0.585452 -0.70416,1.001161 -0.38729,0.415695 -0.70416,0.592066 -0.70416,0.391916 z M 91.20379,95.741241 c 0.11968,-0.193643 0.28746,-0.352075 0.37285,-0.352075 0.0854,0 0.15526,0.158432 0.15526,0.352075 0,0.193642 -0.16778,0.352088 -0.37285,0.352088 -0.20508,0 -0.27494,-0.158446 -0.15526,-0.352088 z m 0.88019,-0.498691 c 0,-0.371171 1.06051,-1.374793 1.25121,-1.184091 0.0888,0.08876 -0.15642,0.449069 -0.54489,0.800638 -0.38847,0.351556 -0.70632,0.524121 -0.70632,0.383453 z m -9.506134,-0.909623 c 0,-0.193642 0.16779,-0.352074 0.37286,-0.352074 0.20507,0 0.27494,0.158432 0.15526,0.352074 -0.11968,0.193643 -0.28747,0.352075 -0.37286,0.352075 -0.0854,0 -0.15526,-0.158432 -0.15526,-0.352075 z m 0.8802,-1.056238 c 0.11968,-0.193642 0.28746,-0.352075 0.37286,-0.352075 0.0854,0 0.15526,0.158433 0.15526,0.352075 0,0.193643 -0.16779,0.352075 -0.37286,0.352075 -0.20507,0 -0.27494,-0.158432 -0.15526,-0.352075 z M 94.11535,92.924614 c 0.41571,-0.387298 0.86622,-0.704163 1.00115,-0.704163 0.13493,0 -0.0414,0.316865 -0.39192,0.704163 -0.35049,0.387285 -0.80101,0.70415 -1.00116,0.70415 -0.20014,0 -0.0238,-0.316865 0.39193,-0.70415 z m -9.777104,-0.352088 c 0,-0.19364 0.16778,-0.352075 0.37286,-0.352075 0.20507,0 0.27493,0.158435 0.15526,0.352075 -0.11969,0.193642 -0.28747,0.352088 -0.37286,0.352088 -0.0854,0 -0.15526,-0.158446 -0.15526,-0.352088 z m 0.880187,-1.056234 c 0.11969,-0.193644 0.28747,-0.352079 0.37286,-0.352079 0.0854,0 0.15526,0.158435 0.15526,0.352079 0,0.193644 -0.16778,0.352079 -0.37286,0.352079 -0.205067,0 -0.274927,-0.158435 -0.15526,-0.352079 z m 10.210307,0 c 0.11968,-0.193644 0.28746,-0.352079 0.372857,-0.352079 0.0854,0 0.15526,0.158435 0.15526,0.352079 0,0.193644 -0.16779,0.352079 -0.372857,0.352079 -0.20507,0 -0.27494,-0.158435 -0.15526,-0.352079 z m -9.330107,-0.70416 c 0,-0.193644 0.16779,-0.352079 0.37286,-0.352079 0.20508,0 0.27494,0.158435 0.15526,0.352079 -0.11968,0.193644 -0.28746,0.352081 -0.37286,0.352081 -0.0854,0 -0.15526,-0.158437 -0.15526,-0.352081 z m 10.210304,0 c 0,-0.193644 0.16778,-0.352079 0.37286,-0.352079 0.20507,0 0.27493,0.158435 0.15526,0.352079 -0.11969,0.193644 -0.28747,0.352081 -0.37286,0.352081 -0.0854,0 -0.15526,-0.158437 -0.15526,-0.352081 z m -8.976064,-1.410475 c 0.35156,-0.388474 0.71185,-0.633673 0.80063,-0.544885 0.1907,0.190693 -0.81293,1.251202 -1.18409,1.251202 -0.14066,0 0.0319,-0.317844 0.38346,-0.706317 z m 9.856254,0.354237 c 0.11969,-0.193644 0.28747,-0.352079 0.37286,-0.352079 0.0854,0 0.15526,0.158435 0.15526,0.352079 0,0.193644 -0.16778,0.35208 -0.37286,0.35208 -0.20507,0 -0.27493,-0.158436 -0.15526,-0.35208 z m 0.8802,-0.704158 c 0,-0.193644 0.16779,-0.35208 0.37286,-0.35208 0.20508,0 0.27494,0.158436 0.15526,0.35208 -0.11968,0.193644 -0.28746,0.352079 -0.37286,0.352079 -0.0854,0 -0.15526,-0.158435 -0.15526,-0.352079 z m -9.494934,-0.549405 c 0.018,-0.53257 1.01775,-1.707375 1.25284,-1.472281 0.11829,0.118285 -0.11772,0.572298 -0.52448,1.008906 -0.40676,0.436603 -0.73452,0.645121 -0.72836,0.463375 z m 10.375134,-0.506487 c 0.11963,-0.193644 0.28747,-0.352081 0.37286,-0.352081 0.0854,0 0.15526,0.158437 0.15526,0.352081 0,0.193642 -0.16778,0.352079 -0.37286,0.352079 -0.20507,0 -0.27494,-0.158437 -0.15526,-0.352079 z M 80.817446,86.587525 c 0,-0.193642 0.16779,-0.352079 0.37286,-0.352079 0.20507,0 0.27494,0.158437 0.15526,0.352079 -0.11968,0.193644 -0.28746,0.35208 -0.37286,0.35208 -0.0854,0 -0.15526,-0.158436 -0.15526,-0.35208 z m 9.506147,0 c 0,-0.193642 0.167777,-0.352079 0.372857,-0.352079 0.20507,0 0.27494,0.158437 0.15526,0.352079 -0.11969,0.193644 -0.28747,0.35208 -0.37286,0.35208 -0.0854,0 -0.155257,-0.158436 -0.155257,-0.35208 z m -8.625947,-1.056238 c 0.11968,-0.193644 0.28747,-0.352079 0.37286,-0.352079 0.0854,0 0.15526,0.158435 0.15526,0.352079 0,0.193644 -0.16779,0.35208 -0.37286,0.35208 -0.20507,0 -0.27494,-0.158436 -0.15526,-0.35208 z m 9.330104,0 c 0,-0.193644 0.15843,-0.352079 0.35207,-0.352079 0.19365,0 0.35208,0.158435 0.35208,0.352079 0,0.193644 -0.15843,0.35208 -0.35208,0.35208 -0.19364,0 -0.35207,-0.158436 -0.35207,-0.35208 z m -8.449904,-0.704158 c 0,-0.193644 0.16779,-0.35208 0.37286,-0.35208 0.20507,0 0.27494,0.158436 0.15526,0.35208 -0.11968,0.193643 -0.28747,0.352079 -0.37286,0.352079 -0.0854,0 -0.15526,-0.158436 -0.15526,-0.352079 z m 9.506134,0 c 0,-0.193644 0.16779,-0.35208 0.37286,-0.35208 0.20507,0 0.27494,0.158436 0.15526,0.35208 -0.11968,0.193643 -0.28746,0.352079 -0.37286,0.352079 -0.0854,0 -0.15526,-0.158436 -0.15526,-0.352079 z m -8.625934,-1.056238 c 0.11968,-0.193644 0.28746,-0.352081 0.37286,-0.352081 0.0854,0 0.15526,0.158437 0.15526,0.352081 0,0.193644 -0.16779,0.352079 -0.37286,0.352079 -0.20507,0 -0.27494,-0.158435 -0.15526,-0.352079 z m 9.330094,0 c 0,-0.193644 0.15844,-0.352081 0.35208,-0.352081 0.19365,0 0.35208,0.158437 0.35208,0.352081 0,0.193644 -0.15843,0.352079 -0.35208,0.352079 -0.19364,0 -0.35208,-0.158435 -0.35208,-0.352079 z m -8.449894,-0.70416 c 0,-0.193644 0.16778,-0.352079 0.37286,-0.352079 0.20507,0 0.27493,0.158435 0.15526,0.352079 -0.11969,0.193644 -0.28747,0.352079 -0.37286,0.352079 -0.0854,0 -0.15526,-0.158435 -0.15526,-0.352079 z m 9.506134,0 c 0,-0.193644 0.16779,-0.352079 0.37286,-0.352079 0.20507,0 0.27494,0.158435 0.15526,0.352079 -0.11968,0.193644 -0.28747,0.352079 -0.37286,0.352079 -0.0854,0 -0.15526,-0.158435 -0.15526,-0.352079 z m -8.625947,-1.056238 c 0.11969,-0.193644 0.28747,-0.352079 0.37286,-0.352079 0.0854,0 0.15526,0.158435 0.15526,0.352079 0,0.193644 -0.16778,0.352079 -0.37286,0.352079 -0.205067,0 -0.274927,-0.158435 -0.15526,-0.352079 z m 9.330107,0.15089 c 0,-0.373953 1.08818,-1.292547 1.290957,-1.089769 0.11065,0.110661 -0.044,0.446387 -0.343697,0.746073 -0.55906,0.55906 -0.94726,0.699914 -0.94726,0.343696 z m -8.449907,-0.855049 c 0,-0.193643 0.16779,-0.352079 0.37286,-0.352079 0.20508,0 0.27494,0.158436 0.15526,0.352079 -0.11968,0.193644 -0.28746,0.35208 -0.37286,0.35208 -0.0854,0 -0.15526,-0.158436 -0.15526,-0.35208 z m 1.23424,-1.410476 c 0.35156,-0.388473 0.71185,-0.633672 0.80063,-0.544884 0.1907,0.190692 -0.81293,1.251202 -1.18409,1.251202 -0.14066,0 0.0319,-0.317844 0.38346,-0.706318 z m 8.976064,0.505129 c 0,-0.373954 1.08818,-1.292547 1.29096,-1.089771 0.11064,0.110661 -0.044,0.446388 -0.3437,0.746074 -0.55906,0.55906 -0.94726,0.699913 -0.94726,0.343697 z m -7.745744,-1.438251 c 0,-0.200147 0.31687,-0.650664 0.70416,-1.001156 0.38729,-0.350491 0.70416,-0.526855 0.70416,-0.391925 0,0.134931 -0.31687,0.585449 -0.70416,1.001153 -0.38729,0.415707 -0.70416,0.592071 -0.70416,0.391928 z m 9.506134,-0.12096 c 0,-0.193644 0.16779,-0.352079 0.37286,-0.352079 0.20508,0 0.27494,0.158435 0.15526,0.352079 -0.11968,0.193643 -0.28746,0.352079 -0.37286,0.352079 -0.0854,0 -0.15526,-0.158436 -0.15526,-0.352079 z m 0.70416,-1.056239 c 0,-0.193644 0.15843,-0.352079 0.35209,-0.352079 0.19364,0 0.35207,0.158435 0.35207,0.352079 0,0.193644 -0.15843,0.352079 -0.35207,0.352079 -0.19366,0 -0.35209,-0.158435 -0.35209,-0.352079 z M 80.817446,77.081381 c 0,-0.193644 0.16779,-0.352079 0.37286,-0.352079 0.20507,0 0.27494,0.158435 0.15526,0.352079 -0.11968,0.193644 -0.28746,0.35208 -0.37286,0.35208 -0.0854,0 -0.15526,-0.158436 -0.15526,-0.35208 z m 9.506147,0 c 0,-0.193644 0.167777,-0.352079 0.372857,-0.352079 0.20507,0 0.27494,0.158435 0.15526,0.352079 -0.11969,0.193644 -0.28747,0.35208 -0.37286,0.35208 -0.0854,0 -0.155257,-0.158436 -0.155257,-0.35208 z m 9.506134,0 c 0,-0.193644 0.16779,-0.352079 0.372863,-0.352079 0.20507,0 0.27493,0.158435 0.15526,0.352079 -0.11963,0.193644 -0.28747,0.35208 -0.372863,0.35208 -0.0854,0 -0.15526,-0.158436 -0.15526,-0.35208 z M 81.697646,76.025142 c 0.11968,-0.193642 0.28747,-0.352079 0.37286,-0.352079 0.0854,0 0.15526,0.158437 0.15526,0.352079 0,0.193644 -0.16779,0.352081 -0.37286,0.352081 -0.20507,0 -0.27494,-0.158437 -0.15526,-0.352081 z m 9.506144,0 c 0.11968,-0.193642 0.28746,-0.352079 0.37285,-0.352079 0.0854,0 0.15526,0.158437 0.15526,0.352079 0,0.193644 -0.16778,0.352081 -0.37285,0.352081 -0.20508,0 -0.27494,-0.158437 -0.15526,-0.352081 z m 9.3301,0 c 0,-0.193642 0.15843,-0.352079 0.35208,-0.352079 0.19364,0 0.35208,0.158437 0.35208,0.352079 0,0.193644 -0.15844,0.352081 -0.35208,0.352081 -0.19365,0 -0.35208,-0.158437 -0.35208,-0.352081 z M 82.577846,75.320984 c 0,-0.193644 0.16779,-0.35208 0.37286,-0.35208 0.20507,0 0.27494,0.158436 0.15526,0.35208 -0.11968,0.193644 -0.28747,0.352079 -0.37286,0.352079 -0.0854,0 -0.15526,-0.158435 -0.15526,-0.352079 z m 9.506134,0 c 0,-0.193644 0.16779,-0.35208 0.37286,-0.35208 0.20507,0 0.27494,0.158436 0.15526,0.35208 -0.11968,0.193644 -0.28746,0.352079 -0.37286,0.352079 -0.0854,0 -0.15526,-0.158435 -0.15526,-0.352079 z m 9.33011,0 c -0.11963,-0.193644 0.0387,-0.35208 0.35208,-0.35208 0.31332,0 0.47175,0.158436 0.35207,0.35208 -0.11963,0.193644 -0.27811,0.352079 -0.35207,0.352079 -0.074,0 -0.23241,-0.158435 -0.35208,-0.352079 z M 83.458046,74.264746 c 0.11968,-0.193644 0.28746,-0.35208 0.37286,-0.35208 0.0854,0 0.15526,0.158436 0.15526,0.35208 0,0.193643 -0.16779,0.352079 -0.37286,0.352079 -0.20507,0 -0.27494,-0.158436 -0.15526,-0.352079 z m 9.506134,0 c 0.11968,-0.193644 0.28747,-0.35208 0.37286,-0.35208 0.0854,0 0.15526,0.158436 0.15526,0.35208 0,0.193643 -0.16778,0.352079 -0.37286,0.352079 -0.20507,0 -0.27494,-0.158436 -0.15526,-0.352079 z m -8.625934,-0.704159 c 0,-0.193644 0.16778,-0.352079 0.37286,-0.352079 0.20507,0 0.27493,0.158435 0.15526,0.352079 -0.11969,0.193644 -0.28747,0.352079 -0.37286,0.352079 -0.0854,0 -0.15526,-0.158435 -0.15526,-0.352079 z m 9.506134,0 c 0,-0.193644 0.16779,-0.352079 0.37286,-0.352079 0.20507,0 0.27494,0.158435 0.15526,0.352079 -0.11968,0.193644 -0.28747,0.352079 -0.37286,0.352079 -0.0854,0 -0.15526,-0.158435 -0.15526,-0.352079 z m -8.625947,-1.056238 c 0.11969,-0.193644 0.28747,-0.352079 0.37286,-0.352079 0.0854,0 0.15526,0.158435 0.15526,0.352079 0,0.193643 -0.16778,0.352078 -0.37286,0.352078 -0.205067,0 -0.274927,-0.158435 -0.15526,-0.352078 z m 9.860177,-0.354238 c 0.35157,-0.388475 0.711857,-0.633672 0.800637,-0.544886 0.1907,0.190694 -0.812927,1.251202 -1.184087,1.251202 -0.14067,0 0.0319,-0.317842 0.38345,-0.706316 z m -8.978347,-0.08892 c -0.003,-0.384669 1.84576,-2.403861 2.03081,-2.218812 0.0853,0.08535 -0.3363,0.679605 -0.937,1.320555 -0.6007,0.64095 -1.09291,1.045166 -1.09381,0.898257 z m 10.219864,-0.810762 c 0.0181,-0.532569 1.01776,-1.707374 1.25285,-1.47228 0.1183,0.118299 -0.11773,0.572298 -0.52448,1.008905 -0.40676,0.436602 -0.73453,0.645122 -0.72837,0.463375 z m -7.756934,-1.914805 c 0,-0.193644 0.16779,-0.352079 0.37286,-0.352079 0.20507,0 0.27494,0.158435 0.15526,0.352079 -0.11968,0.193644 -0.28747,0.352079 -0.37286,0.352079 -0.0854,0 -0.15526,-0.158435 -0.15526,-0.352079 z m 9.506134,0 c 0,-0.193644 0.16779,-0.352079 0.37286,-0.352079 0.20508,0 0.27494,0.158435 0.15526,0.352079 -0.11968,0.193644 -0.28746,0.352079 -0.37286,0.352079 -0.0854,0 -0.15526,-0.158435 -0.15526,-0.352079 z M 79.937246,68.279386 c 0.11969,-0.193644 0.28747,-0.352079 0.37286,-0.352079 0.0854,0 0.15526,0.158435 0.15526,0.352079 0,0.193644 -0.16778,0.352079 -0.37286,0.352079 -0.205068,0 -0.274935,-0.158435 -0.15526,-0.352079 z m 9.506147,0 c 0.11968,-0.193644 0.28746,-0.352079 0.37286,-0.352079 0.0854,0 0.15526,0.158435 0.15526,0.352079 0,0.193644 -0.16779,0.352079 -0.37286,0.352079 -0.20507,0 -0.27494,-0.158435 -0.15526,-0.352079 z m 9.330094,0 c 0,-0.193644 0.15843,-0.352079 0.35209,-0.352079 0.19364,0 0.35207,0.158435 0.35207,0.352079 0,0.193644 -0.15843,0.352079 -0.35207,0.352079 -0.19366,0 -0.35209,-0.158435 -0.35209,-0.352079 z M 80.817446,67.575233 c 0,-0.193644 0.16779,-0.352079 0.37286,-0.352079 0.20507,0 0.27494,0.158435 0.15526,0.352079 -0.11968,0.193644 -0.28746,0.35208 -0.37286,0.35208 -0.0854,0 -0.15526,-0.158436 -0.15526,-0.35208 z m 9.506147,0 c 0,-0.193644 0.167777,-0.352079 0.372857,-0.352079 0.20507,0 0.27494,0.158435 0.15526,0.352079 -0.11969,0.193644 -0.28747,0.35208 -0.37286,0.35208 -0.0854,0 -0.155257,-0.158436 -0.155257,-0.35208 z m 9.506134,0 c 0,-0.193644 0.16779,-0.352079 0.372863,-0.352079 0.20507,0 0.27493,0.158435 0.15526,0.352079 -0.11963,0.193644 -0.28747,0.35208 -0.372863,0.35208 -0.0854,0 -0.15526,-0.158436 -0.15526,-0.35208 z M 81.697646,66.518995 c 0.11968,-0.193644 0.28747,-0.352079 0.37286,-0.352079 0.0854,0 0.15526,0.158435 0.15526,0.352079 0,0.193644 -0.16779,0.35208 -0.37286,0.35208 -0.20507,0 -0.27494,-0.158436 -0.15526,-0.35208 z m 9.506144,0 c 0.11968,-0.193644 0.28746,-0.352079 0.37285,-0.352079 0.0854,0 0.15526,0.158435 0.15526,0.352079 0,0.193644 -0.16778,0.35208 -0.37285,0.35208 -0.20508,0 -0.27494,-0.158436 -0.15526,-0.35208 z m 9.3301,0 c 0,-0.193644 0.15843,-0.352079 0.35208,-0.352079 0.19364,0 0.35208,0.158435 0.35208,0.352079 0,0.193644 -0.15844,0.35208 -0.35208,0.35208 -0.19365,0 -0.35208,-0.158436 -0.35208,-0.35208 z M 82.577846,65.81527 c 0,-0.193644 0.16779,-0.35208 0.37286,-0.35208 0.20507,0 0.27494,0.158436 0.15526,0.35208 -0.11968,0.193642 -0.28747,0.352079 -0.37286,0.352079 -0.0854,0 -0.15526,-0.158437 -0.15526,-0.352079 z m 9.506134,0 c 0,-0.193644 0.16779,-0.35208 0.37286,-0.35208 0.20507,0 0.27494,0.158436 0.15526,0.35208 -0.11968,0.193642 -0.28746,0.352079 -0.37286,0.352079 -0.0854,0 -0.15526,-0.158437 -0.15526,-0.352079 z m 9.50615,0 c 0,-0.193644 0.16779,-0.35208 0.37286,-0.35208 0.20507,0 0.27493,0.158436 0.15525,0.35208 -0.11963,0.193642 -0.28745,0.352079 -0.37286,0.352079 -0.0854,0 -0.15525,-0.158437 -0.15525,-0.352079 z M 83.458046,64.759032 c 0.11968,-0.193644 0.28746,-0.352081 0.37286,-0.352081 0.0854,0 0.15526,0.158437 0.15526,0.352081 0,0.193643 -0.16779,0.352079 -0.37286,0.352079 -0.20507,0 -0.27494,-0.158436 -0.15526,-0.352079 z m 9.858214,-0.352081 c 0.35049,-0.387286 0.80101,-0.704158 1.00116,-0.704158 0.20014,0 0.0238,0.316872 -0.39193,0.704158 -0.4157,0.387288 -0.86622,0.70416 -1.00115,0.70416 -0.13493,0 0.0414,-0.316872 0.39192,-0.70416 z m -8.978014,-0.352079 c 0,-0.193644 0.16778,-0.352079 0.37286,-0.352079 0.20507,0 0.27493,0.158435 0.15526,0.352079 -0.11969,0.193644 -0.28747,0.352079 -0.37286,0.352079 -0.0854,0 -0.15526,-0.158435 -0.15526,-0.352079 z m 2.132817,-2.269758 c 0.84857,-0.861076 1.60974,-1.498703 1.6915,-1.416947 0.18697,0.186972 -2.58728,2.982546 -2.9598,2.982546 -0.150997,0 0.41974,-0.704517 1.2683,-1.565599 z m 8.607547,0.859283 c 0.35157,-0.388475 0.711857,-0.633673 0.800637,-0.544886 0.1907,0.190693 -0.812927,1.251202 -1.184087,1.251202 -0.14067,0 0.0319,-0.317843 0.38345,-0.706316 z m 1.230327,-1.05408 c 0,-0.193644 0.16778,-0.352081 0.37286,-0.352081 0.20507,0 0.27493,0.158437 0.15526,0.352081 -0.11969,0.193642 -0.28747,0.352079 -0.37286,0.352079 -0.0854,0 -0.15526,-0.158437 -0.15526,-0.352079 z m 0.88019,-1.056239 c 0.11969,-0.193643 0.28747,-0.35208 0.37286,-0.35208 0.0854,0 0.15526,0.158437 0.15526,0.35208 0,0.193643 -0.16778,0.352079 -0.37286,0.352079 -0.20507,0 -0.27493,-0.158436 -0.15526,-0.352079 z M 79.937246,59.829919 c -0.119678,-0.193644 0.0387,-0.352079 0.35208,-0.352079 0.31333,0 0.47176,0.158435 0.35208,0.352079 -0.11968,0.193644 -0.27811,0.352079 -0.35208,0.352079 -0.074,0 -0.2324,-0.158435 -0.35208,-0.352079 z m 8.625947,0 c 0,-0.193644 0.16779,-0.352079 0.37286,-0.352079 0.20507,0 0.27494,0.158435 0.15526,0.352079 -0.11968,0.193644 -0.28747,0.352079 -0.37286,0.352079 -0.0854,0 -0.15526,-0.158435 -0.15526,-0.352079 z m 9.506134,0 c 0,-0.193644 0.16779,-0.352079 0.37286,-0.352079 0.20508,0 0.27494,0.158435 0.15526,0.352079 -0.11968,0.193644 -0.28746,0.352079 -0.37286,0.352079 -0.0854,0 -0.15526,-0.158435 -0.15526,-0.352079 z M 80.817446,58.924571 c 0,-0.373953 1.08818,-1.292547 1.29096,-1.089769 0.11065,0.110647 -0.044,0.446386 -0.34369,0.746073 -0.55907,0.559059 -0.94727,0.699913 -0.94727,0.343696 z m 8.625947,-0.15089 c 0.11968,-0.193644 0.28746,-0.352079 0.37286,-0.352079 0.0854,0 0.15526,0.158435 0.15526,0.352079 0,0.193644 -0.16779,0.352079 -0.37286,0.352079 -0.20507,0 -0.27494,-0.158435 -0.15526,-0.352079 z m 9.506134,0 c 0.11963,-0.193644 0.28747,-0.352079 0.37286,-0.352079 0.0854,0 0.15526,0.158435 0.15526,0.352079 0,0.193644 -0.16778,0.352079 -0.37286,0.352079 -0.20507,0 -0.27494,-0.158435 -0.15526,-0.352079 z m -8.625934,-0.704159 c 0,-0.193644 0.167777,-0.352079 0.372857,-0.352079 0.20507,0 0.27494,0.158435 0.15526,0.352079 -0.11969,0.193643 -0.28747,0.35208 -0.37286,0.35208 -0.0854,0 -0.155257,-0.158437 -0.155257,-0.35208 z m 9.506134,0 c 0,-0.193644 0.16779,-0.352079 0.372863,-0.352079 0.20507,0 0.27493,0.158435 0.15526,0.352079 -0.11963,0.193643 -0.28747,0.35208 -0.372863,0.35208 -0.0854,0 -0.15526,-0.158437 -0.15526,-0.35208 z M 82.577846,57.164175 c 0,-0.373955 1.08818,-1.292547 1.29096,-1.089771 0.11065,0.110661 -0.044,0.446388 -0.3437,0.746074 -0.55906,0.55906 -0.94726,0.699913 -0.94726,0.343697 z m 8.625944,-0.150892 c 0.11968,-0.193644 0.28746,-0.352079 0.37285,-0.352079 0.0854,0 0.15526,0.158435 0.15526,0.352079 0,0.193644 -0.16778,0.352081 -0.37285,0.352081 -0.20508,0 -0.27494,-0.158437 -0.15526,-0.352081 z m 9.85821,-0.352079 c 0.3505,-0.387288 0.80101,-0.704159 1.00116,-0.704159 0.20014,0 0.0238,0.316871 -0.39192,0.704159 -0.41571,0.387288 -0.86622,0.70416 -1.00115,0.70416 -0.13493,0 0.0414,-0.316872 0.39191,-0.70416 z m -8.97802,-0.352079 c 0,-0.193644 0.16779,-0.35208 0.37286,-0.35208 0.20507,0 0.27494,0.158436 0.15526,0.35208 -0.11968,0.193643 -0.28746,0.352079 -0.37286,0.352079 -0.0854,0 -0.15526,-0.158436 -0.15526,-0.352079 z m 18.66021,126.755105 c 3.19512,0.1046 5.96775,0.10154 6.16139,-0.007 0.19364,-0.10819 2.49096,-0.1026 5.10515,0.012 4.03441,0.1773 4.83487,0.12561 5.29399,-0.34173 0.45452,-0.46265 0.50986,-1.33806 0.34645,-5.47973 -0.10699,-2.71101 -0.11271,-5.00832 -0.0133,-5.10514 0.0999,-0.0969 0.10074,-2.79024 10e-4,-5.98535 -0.0989,-3.19512 -0.0979,-5.96775 0.003,-6.16139 0.0999,-0.19365 0.0981,-3.12471 -0.004,-6.51347 -0.10233,-3.38877 -0.10326,-6.31983 -0.003,-6.51347 0.10127,-0.19364 0.10499,-2.88706 0.008,-5.98535 -0.0969,-3.0983 -0.0969,-5.79172 -7e-5,-5.98536 0.0969,-0.19364 0.0969,-3.28314 7e-5,-6.86554 -0.0969,-3.58242 -0.0969,-6.67191 0,-6.86556 0.0969,-0.19364 0.0969,-3.12469 0,-6.51347 -0.0969,-3.38877 -0.096,-6.31983 0.003,-6.51348 0.0979,-0.19364 0.0979,-3.12472 0,-6.5135 -0.0979,-3.38878 -0.0989,-6.240616 -0.003,-6.337438 0.0969,-0.09687 0.0969,-2.948666 0,-6.337431 -0.0969,-3.388763 -0.0951,-6.319826 0.004,-6.513469 0.0989,-0.193643 0.0989,-2.966269 0,-6.16139 -0.0989,-3.195121 -0.0997,-5.888528 -0.001,-5.985351 0.0981,-0.09682 0.0949,-2.552575 -0.007,-5.45723 -0.10179,-2.904656 -0.0922,-5.439628 0.0212,-5.633272 0.11338,-0.193642 0.14158,-1.171857 0.0627,-2.173804 l -0.14353,-1.821727 -2.62762,-0.114705 c -1.4452,-0.06309 -2.7378,-0.03222 -2.87247,0.06861 -0.13468,0.100827 -2.27877,0.100827 -4.76466,0 -2.48589,-0.100826 -4.58532,-0.117141 -4.6654,-0.03626 -0.0801,0.08088 -2.04668,0.10893 -4.37022,0.06234 l -4.22428,-0.08469 v 3.722504 c 0,2.047376 0.14524,3.722504 0.32275,3.722504 0.1775,0 0.39347,-0.198044 0.47992,-0.4401 0.0865,-0.242055 0.27401,-0.331746 0.41682,-0.199318 0.1428,0.132431 -0.0732,0.598003 -0.47993,1.034609 -0.66481,0.713591 -0.73956,1.214132 -0.73956,4.952389 0,2.28721 0.14524,4.158565 0.32275,4.158565 0.1775,0 0.39347,-0.198045 0.47992,-0.440101 0.0865,-0.242054 0.27401,-0.331746 0.41682,-0.199318 0.1428,0.132431 -0.0732,0.598004 -0.47993,1.03461 -0.6712,0.720447 -0.73956,1.208843 -0.73956,5.283687 0,2.853365 0.13951,4.576089 0.38276,4.726424 0.27563,0.170344 0.27563,0.343689 0,0.619315 -0.23979,0.239787 -0.38276,2.255607 -0.38276,5.396712 0,3.230762 0.13613,5.098098 0.38276,5.250515 0.27563,0.170343 0.27563,0.343692 0,0.619319 -0.5235,0.523508 -0.5235,11.027871 0,11.351421 0.27563,0.17034 0.27563,0.34368 0,0.61931 -0.52545,0.52545 -0.52545,12.08291 0,12.40765 0.27563,0.17034 0.27563,0.34369 0,0.61932 -0.47588,0.47587 -0.53355,12.21262 -0.06,12.21262 0.1775,0 0.39347,-0.19805 0.47992,-0.4401 0.0865,-0.24206 0.27401,-0.33175 0.41682,-0.19932 0.1428,0.13241 -0.0732,0.598 -0.47993,1.03461 -0.6879,0.73838 -0.73956,1.18997 -0.73956,6.46633 0,4.06531 0.12469,5.79892 0.4401,6.1187 0.35239,0.35727 0.33485,0.52919 -0.088,0.8626 -0.44078,0.34752 -0.51223,1.45003 -0.43199,6.6658 0.0846,5.49842 0.35587,7.28405 0.88256,5.80932 0.0865,-0.24205 0.27402,-0.33175 0.41683,-0.19932 0.14279,0.1324 -0.0732,0.598 -0.47993,1.03461 -0.68434,0.73454 -0.73956,1.19479 -0.73956,6.16388 0,3.4872 0.1342,5.45301 0.38276,5.60663 0.27562,0.17034 0.27562,0.34369 0,0.61932 -0.58444,0.58442 -0.52791,12.4014 0.0573,11.98788 0.24205,-0.17102 3.05429,-0.22542 6.24941,-0.12096 z m -4.92911,-0.9118 c 0,-0.37395 1.08818,-1.29254 1.29096,-1.08977 0.11072,0.11071 -0.044,0.44639 -0.3437,0.74608 -0.55905,0.55906 -0.94726,0.6999 -0.94726,0.34369 z m 11.9707,0 c 0,-0.37395 1.08817,-1.29254 1.29096,-1.08977 0.11058,0.11071 -0.044,0.44639 -0.34369,0.74608 -0.55907,0.55906 -0.94727,0.6999 -0.94727,0.34369 z m -10.36776,-1.52914 c -0.11337,-0.18342 -0.056,-0.42624 0.12735,-0.5396 0.18342,-0.11337 0.42624,-0.056 0.5396,0.12735 0.11337,0.18342 0.056,0.42625 -0.12735,0.53961 -0.18342,0.11337 -0.42625,0.056 -0.53961,-0.12735 z m 12.12816,-0.0301 c 0,-0.19364 0.16779,-0.35208 0.37286,-0.35208 0.20507,0 0.27494,0.15844 0.15525,0.35208 -0.11963,0.19365 -0.28745,0.35208 -0.37286,0.35208 -0.0854,0 -0.15525,-0.15843 -0.15525,-0.35208 z m -11.26655,-1.05623 c 0,-0.19365 0.15844,-0.35209 0.35209,-0.35209 0.19365,0 0.35208,0.15844 0.35208,0.35209 0,0.19364 -0.15843,0.35207 -0.35208,0.35207 -0.19365,0 -0.35209,-0.15843 -0.35209,-0.35207 z m 11.9707,0 c 0,-0.19365 0.15845,-0.35209 0.35209,-0.35209 0.19364,0 0.35207,0.15844 0.35207,0.35209 0,0.19364 -0.15843,0.35207 -0.35207,0.35207 -0.19364,0 -0.35209,-0.15843 -0.35209,-0.35207 z m -11.07191,-0.67409 c -0.11337,-0.18343 -0.056,-0.42625 0.12735,-0.53961 0.18343,-0.11338 0.42625,-0.056 0.53961,0.12734 0.11338,0.18343 0.056,0.42625 -0.12735,0.5396 -0.18342,0.11338 -0.42623,0.056 -0.53959,-0.12735 z m 12.12815,-0.0301 c 0,-0.19364 0.16779,-0.35207 0.37286,-0.35207 0.20507,0 0.27495,0.15843 0.15526,0.35207 -0.11962,0.19365 -0.28747,0.35208 -0.37286,0.35208 -0.0854,0 -0.15526,-0.15843 -0.15526,-0.35208 z m -11.26653,-0.90535 c 0,-0.37395 1.08817,-1.29254 1.29096,-1.08977 0.11058,0.11071 -0.044,0.44639 -0.34371,0.74608 -0.55905,0.55906 -0.94725,0.69991 -0.94725,0.34369 z m 11.97069,-0.15089 c 0,-0.19364 0.15843,-0.35207 0.35208,-0.35207 0.19365,0 0.35209,0.15843 0.35209,0.35207 0,0.19365 -0.15844,0.35208 -0.35209,0.35208 -0.19365,0 -0.35208,-0.15843 -0.35208,-0.35208 z m 1.05624,-0.70416 c 0,-0.19364 0.16779,-0.35207 0.37286,-0.35207 0.20507,0 0.27494,0.15843 0.15527,0.35207 -0.11963,0.19364 -0.28747,0.35209 -0.37286,0.35209 -0.0854,0 -0.15527,-0.15845 -0.15527,-0.35209 z m -11.26655,-0.90534 c 0,-0.37396 1.08819,-1.29255 1.29096,-1.08977 0.11072,0.11058 -0.044,0.44638 -0.34369,0.74607 -0.55906,0.55906 -0.94727,0.69992 -0.94727,0.3437 z m 11.97071,0 c 0,-0.37264 1.00207,-1.20714 1.44955,-1.20714 0.2527,0 0.1183,0.30306 -0.3122,0.70417 -0.76053,0.70855 -1.13735,0.87518 -1.13735,0.50297 z m -10.2103,-1.7604 c 0,-0.37395 1.08817,-1.29254 1.29096,-1.08977 0.11071,0.11071 -0.044,0.44638 -0.3437,0.74608 -0.55906,0.55905 -0.94726,0.69991 -0.94726,0.34369 z m 11.97069,0 c 0,-0.37395 1.08819,-1.29254 1.29096,-1.08977 0.11071,0.11071 -0.044,0.44638 -0.34369,0.74608 -0.55906,0.55905 -0.94727,0.69991 -0.94727,0.34369 z m -10.36775,-1.52914 c -0.11338,-0.18342 -0.056,-0.42625 0.12734,-0.53959 0.18343,-0.11338 0.42625,-0.056 0.53961,0.12734 0.11338,0.18343 0.056,0.42625 -0.12734,0.53961 -0.18343,0.11338 -0.42625,0.056 -0.53961,-0.12734 z m 0.86161,-1.08631 c 0,-0.19364 0.15844,-0.35208 0.35209,-0.35208 0.19364,0 0.35207,0.15844 0.35207,0.35208 0,0.19364 -0.15843,0.35209 -0.35207,0.35209 -0.19365,0 -0.35209,-0.15845 -0.35209,-0.35209 z m 0.89879,-0.67409 c -0.11338,-0.18342 -0.056,-0.42623 0.12735,-0.5396 0.18342,-0.11337 0.42623,-0.056 0.53959,0.12735 0.11338,0.18342 0.056,0.42625 -0.12735,0.53961 -0.18342,0.11338 -0.42624,0.056 -0.53961,-0.12735 z m -11.98929,-1.0863 c 0.11963,-0.19364 0.28747,-0.35209 0.37286,-0.35209 0.0854,0 0.15527,0.15845 0.15527,0.35209 0,0.19364 -0.16779,0.35208 -0.37286,0.35208 -0.20508,0 -0.27495,-0.15844 -0.15527,-0.35208 z m 12.8509,0.15089 c 0,-0.37395 1.08817,-1.29254 1.29096,-1.08977 0.11058,0.11071 -0.044,0.44638 -0.34369,0.74608 -0.55907,0.55905 -0.94727,0.6999 -0.94727,0.34369 z m -11.9707,-0.85505 c 0,-0.19364 0.16779,-0.35208 0.37286,-0.35208 0.20508,0 0.27494,0.15844 0.15526,0.35208 -0.11963,0.19364 -0.28746,0.35207 -0.37287,0.35207 -0.0854,0 -0.15525,-0.15843 -0.15525,-0.35207 z m 0.8802,-1.05624 c 0.11963,-0.19364 0.28746,-0.35208 0.37286,-0.35208 0.0854,0 0.15526,0.15844 0.15526,0.35208 0,0.19364 -0.16779,0.35207 -0.37286,0.35207 -0.20508,0 -0.27494,-0.15843 -0.15526,-0.35207 z m 12.8509,0.15089 c 0,-0.37395 1.08818,-1.29255 1.29096,-1.08977 0.11071,0.11071 -0.044,0.44639 -0.34371,0.74608 -0.55905,0.55906 -0.94725,0.6999 -0.94725,0.34369 z m -11.9707,-0.85505 c 0,-0.19365 0.16778,-0.35208 0.37285,-0.35208 0.20507,0 0.27495,0.15843 0.15527,0.35208 -0.11963,0.19364 -0.28747,0.35208 -0.37286,0.35208 -0.0854,0 -0.15526,-0.15844 -0.15526,-0.35208 z m 1.23228,-1.40832 c 0.35049,-0.38728 0.801,-0.70416 1.00115,-0.70416 0.20015,0 0.0238,0.31688 -0.39193,0.70416 -0.4157,0.38729 -0.86622,0.70417 -1.00115,0.70417 -0.13493,0 0.0414,-0.31688 0.39193,-0.70417 z m 12.49881,0.50298 c 0,-0.37397 1.08819,-1.29256 1.29096,-1.08977 0.11071,0.11058 -0.044,0.44638 -0.34369,0.74606 -0.55907,0.55907 -0.94727,0.69992 -0.94727,0.34371 z m -10.73647,-2.26553 c 0.35157,-0.38847 0.71186,-0.63368 0.80064,-0.54488 0.1907,0.19069 -0.81292,1.2512 -1.18409,1.2512 -0.14067,0 0.0319,-0.31785 0.38345,-0.70632 z m 12.32439,0.34849 c 0.12162,-0.19679 0.36862,-0.26667 0.54889,-0.15525 0.48834,0.3018 0.3973,0.51308 -0.22114,0.51308 -0.3019,0 -0.44939,-0.16102 -0.32775,-0.35783 z m 0.87664,-0.69841 c 0,-0.19365 0.15844,-0.35208 0.35208,-0.35208 0.19364,0 0.35207,0.15843 0.35207,0.35208 0,0.19364 -0.15843,0.35207 -0.35207,0.35207 -0.19364,0 -0.35208,-0.15843 -0.35208,-0.35207 z m -11.97071,-0.70417 c 0,-0.19364 0.16779,-0.35207 0.37286,-0.35207 0.20508,0 0.27495,0.15843 0.15527,0.35207 -0.11963,0.19365 -0.28747,0.35209 -0.37286,0.35209 -0.0854,0 -0.15527,-0.15844 -0.15527,-0.35209 z m 12.86949,0.0301 c -0.11337,-0.18343 -0.056,-0.42625 0.12735,-0.53961 0.18342,-0.11338 0.42625,-0.056 0.53961,0.12734 0.11337,0.18343 0.056,0.42625 -0.12735,0.5396 -0.18342,0.11338 -0.42625,0.056 -0.53961,-0.12735 z m -12.16532,-1.08631 c 0,-0.19365 0.15843,-0.35208 0.35207,-0.35208 0.19366,0 0.35209,0.15843 0.35209,0.35208 0,0.19364 -0.15843,0.35208 -0.35209,0.35208 -0.19364,0 -0.35207,-0.15844 -0.35207,-0.35208 z m 13.02693,0.16132 c 0,-0.10486 0.31688,-0.53089 0.70417,-0.94659 0.40111,-0.43055 0.70416,-0.56491 0.70416,-0.31221 0,0.24399 -0.22634,0.66995 -0.50298,0.94659 -0.51605,0.51605 -0.90535,0.65031 -0.90535,0.31221 z m -11.97069,-0.86547 c 0,-0.19365 0.16778,-0.35209 0.37286,-0.35209 0.20507,0 0.27493,0.15844 0.15526,0.35209 -0.11963,0.19364 -0.28747,0.35207 -0.37286,0.35207 -0.0854,0 -0.15526,-0.15843 -0.15526,-0.35207 z m 0.70416,-1.05624 c 0,-0.19365 0.15843,-0.35209 0.35207,-0.35209 0.19365,0 0.35208,0.15844 0.35208,0.35209 0,0.19364 -0.15843,0.35207 -0.35208,0.35207 -0.19364,0 -0.35207,-0.15843 -0.35207,-0.35207 z m 1.05624,-0.70417 c 0,-0.19364 0.16778,-0.35207 0.37286,-0.35207 0.20507,0 0.27493,0.15843 0.15525,0.35207 -0.11963,0.19365 -0.28746,0.35208 -0.37286,0.35208 -0.0854,0 -0.15525,-0.15843 -0.15525,-0.35208 z m 0.70415,-0.92941 c 0,-0.2994 1.14455,-1.1577 1.56272,-1.17187 0.18175,-0.007 -0.009,0.30567 -0.42537,0.69297 -0.77592,0.72287 -1.13735,0.87506 -1.13735,0.4789 z m -10.2103,-1.73633 c 0,-0.37396 1.08818,-1.29255 1.29096,-1.08977 0.11072,0.11072 -0.044,0.44638 -0.3437,0.74607 -0.55905,0.55906 -0.94726,0.69992 -0.94726,0.3437 z m 11.9707,0 c 0,-0.37396 1.08817,-1.29255 1.29096,-1.08977 0.11058,0.11072 -0.044,0.44638 -0.34369,0.74607 -0.55907,0.55906 -0.94727,0.69992 -0.94727,0.3437 z m -10.36776,-1.52914 c -0.11337,-0.18342 -0.056,-0.42624 0.12735,-0.53961 0.18342,-0.11337 0.42624,-0.056 0.5396,0.12735 0.11337,0.18342 0.056,0.42625 -0.12735,0.5396 -0.18342,0.11337 -0.42625,0.056 -0.53961,-0.12735 z m 12.12816,0.0106 c 0,-0.5466 1.0168,-1.60636 1.28444,-1.3387 0.10712,0.10712 -0.13813,0.55189 -0.54488,0.98849 -0.40948,0.43953 -0.73956,0.59583 -0.73956,0.35021 z m -11.26655,-1.09748 c 0,-0.19364 0.15844,-0.35207 0.35209,-0.35207 0.19365,0 0.35208,0.15843 0.35208,0.35207 0,0.19365 -0.15843,0.35208 -0.35208,0.35208 -0.19365,0 -0.35209,-0.15843 -0.35209,-0.35208 z m 0.89879,-0.67409 c -0.11337,-0.18342 -0.056,-0.42624 0.12735,-0.53959 0.18343,-0.11338 0.42625,-0.056 0.53961,0.12734 0.11338,0.18343 0.056,0.42625 -0.12735,0.53961 -0.18342,0.11338 -0.42623,0.056 -0.53959,-0.12734 z m 12.12815,-0.0301 c 0,-0.19364 0.16779,-0.35207 0.37286,-0.35207 0.20507,0 0.27495,0.15843 0.15526,0.35207 -0.11962,0.19364 -0.28747,0.35209 -0.37286,0.35209 -0.0854,0 -0.15526,-0.15845 -0.15526,-0.35209 z m -11.26653,-0.90534 c 0,-0.37396 1.08817,-1.29255 1.29096,-1.08977 0.11058,0.11058 -0.044,0.44638 -0.34371,0.74607 -0.55905,0.55906 -0.94725,0.69992 -0.94725,0.3437 z m 11.97069,-0.1509 c 0,-0.19364 0.15843,-0.35207 0.35208,-0.35207 0.19365,0 0.35209,0.15843 0.35209,0.35207 0,0.19364 -0.15844,0.35209 -0.35209,0.35209 -0.19365,0 -0.35208,-0.15845 -0.35208,-0.35209 z m 1.05624,-0.70415 c 0,-0.19364 0.16779,-0.35209 0.37286,-0.35209 0.20507,0 0.27494,0.15845 0.15527,0.35209 -0.11963,0.19364 -0.28747,0.35208 -0.37286,0.35208 -0.0854,0 -0.15527,-0.15844 -0.15527,-0.35208 z m -11.26655,-0.90535 c 0,-0.37395 1.08819,-1.29254 1.29096,-1.08977 0.11072,0.11071 -0.044,0.44638 -0.34369,0.74608 -0.55906,0.55905 -0.94727,0.6999 -0.94727,0.34369 z m 11.97071,0 c 0,-0.37265 1.00207,-1.20712 1.44955,-1.20712 0.2527,0 0.1183,0.30303 -0.3122,0.70415 -0.76053,0.70855 -1.13735,0.87518 -1.13735,0.50297 z m -10.2103,-1.7604 c 0,-0.37395 1.08817,-1.29254 1.29096,-1.08977 0.11071,0.11071 -0.044,0.44639 -0.3437,0.74608 -0.55906,0.55906 -0.94726,0.6999 -0.94726,0.34369 z m 11.97069,0 c 0,-0.37395 1.08819,-1.29254 1.29096,-1.08977 0.11071,0.11071 -0.044,0.44639 -0.34369,0.74608 -0.55906,0.55906 -0.94727,0.6999 -0.94727,0.34369 z m -10.36775,-1.52914 c -0.11338,-0.18342 -0.056,-0.42624 0.12734,-0.5396 0.18343,-0.11337 0.42625,-0.056 0.53961,0.12735 0.11338,0.18342 0.056,0.42625 -0.12734,0.53961 -0.18343,0.11337 -0.42625,0.056 -0.53961,-0.12735 z m 0.86161,-1.0863 c 0,-0.19364 0.15844,-0.35209 0.35209,-0.35209 0.19364,0 0.35207,0.15845 0.35207,0.35209 0,0.19364 -0.15843,0.35208 -0.35207,0.35208 -0.19365,0 -0.35209,-0.15844 -0.35209,-0.35208 z m 0.89879,-0.67409 c -0.11338,-0.18342 -0.056,-0.42625 0.12735,-0.53961 0.18342,-0.11337 0.42623,-0.056 0.53959,0.12735 0.11338,0.18342 0.056,0.42625 -0.12735,0.53959 -0.18342,0.11338 -0.42624,0.056 -0.53961,-0.12734 z m 0.86161,-0.93542 c 0,-0.37396 1.08817,-1.29255 1.29096,-1.08978 0.11058,0.11072 -0.044,0.4464 -0.34369,0.74608 -0.55907,0.55907 -0.94727,0.69991 -0.94727,0.3437 z m -13.02694,-0.85505 c 0,-0.19365 0.15844,-0.35208 0.35208,-0.35208 0.19364,0 0.35209,0.15843 0.35209,0.35208 0,0.19364 -0.15845,0.35208 -0.35209,0.35208 -0.19364,0 -0.35208,-0.15844 -0.35208,-0.35208 z m 1.05624,-0.90534 c 0,-0.37397 1.08818,-1.29256 1.29096,-1.08977 0.11072,0.11071 -0.044,0.44638 -0.3437,0.74606 -0.55905,0.55907 -0.94726,0.69992 -0.94726,0.34371 z m 13.7311,0 c 0,-0.37397 1.08818,-1.29256 1.29096,-1.08977 0.11071,0.11071 -0.044,0.44638 -0.34371,0.74606 -0.55905,0.55907 -0.94725,0.69992 -0.94725,0.34371 z m -11.66174,-2.29878 c 0.43661,-0.40675 0.88143,-0.65196 0.98851,-0.54489 0.26764,0.26766 -0.79212,1.28445 -1.33872,1.28445 -0.24562,0 -0.0893,-0.33007 0.35021,-0.73956 z m 13.42213,0.53838 c 0,-0.37396 1.08819,-1.29255 1.29096,-1.08978 0.11071,0.11072 -0.044,0.44639 -0.34369,0.74608 -0.55907,0.55906 -0.94727,0.69991 -0.94727,0.3437 z m -12.14318,-1.91704 c 0.12162,-0.1968 0.36863,-0.26667 0.5489,-0.15525 0.48835,0.30181 0.39729,0.51307 -0.22115,0.51307 -0.3019,0 -0.44939,-0.16101 -0.32775,-0.35782 z m 13.7311,0 c 0.12162,-0.1968 0.36862,-0.26667 0.54889,-0.15525 0.48834,0.30181 0.3973,0.51307 -0.22114,0.51307 -0.3019,0 -0.44939,-0.16101 -0.32775,-0.35782 z m -12.85445,-0.69842 c 0,-0.19364 0.15843,-0.35207 0.35207,-0.35207 0.19364,0 0.35208,0.15843 0.35208,0.35207 0,0.19365 -0.15844,0.35209 -0.35208,0.35209 -0.19364,0 -0.35207,-0.15844 -0.35207,-0.35209 z m 13.73109,0 c 0,-0.19364 0.15844,-0.35207 0.35208,-0.35207 0.19364,0 0.35207,0.15843 0.35207,0.35207 0,0.19365 -0.15843,0.35209 -0.35207,0.35209 -0.19364,0 -0.35208,-0.15844 -0.35208,-0.35209 z m 0.89878,-0.67409 c -0.11337,-0.18342 -0.056,-0.42623 0.12735,-0.53959 0.18342,-0.11338 0.42625,-0.056 0.53961,0.12735 0.11337,0.18342 0.056,0.42624 -0.12735,0.53961 -0.18342,0.11337 -0.42625,0.056 -0.53961,-0.12735 z m -13.74967,-0.38214 c 0.11963,-0.19365 0.28745,-0.35208 0.37286,-0.35208 0.0854,0 0.15525,0.15843 0.15525,0.35208 0,0.19364 -0.16779,0.35208 -0.37286,0.35208 -0.20507,0 -0.27494,-0.15844 -0.15525,-0.35208 z m 0.88018,-0.54283 c 0,-0.10486 0.31688,-0.5309 0.70417,-0.94659 0.40111,-0.43055 0.70416,-0.56492 0.70416,-0.31221 0,0.24398 -0.22634,0.66995 -0.50298,0.94658 -0.51605,0.51605 -0.90535,0.65031 -0.90535,0.31222 z m 13.7311,-0.16132 c 0,-0.19365 0.15845,-0.35209 0.35209,-0.35209 0.19364,0 0.35208,0.15844 0.35208,0.35209 0,0.19364 -0.15844,0.35207 -0.35208,0.35207 -0.19364,0 -0.35209,-0.15843 -0.35209,-0.35207 z m 0.89524,-0.67984 c -0.11138,-0.18026 -0.0415,-0.42727 0.15526,-0.5489 0.1968,-0.12163 0.35783,0.0258 0.35783,0.32775 0,0.61844 -0.21128,0.7095 -0.51309,0.22115 z m -12.86593,-0.92968 c 0,-0.37395 1.08817,-1.29254 1.29096,-1.08977 0.11071,0.11071 -0.044,0.44639 -0.3437,0.74608 -0.55906,0.55906 -0.94726,0.69991 -0.94726,0.34369 z m 2.06936,-2.29876 c 0.43661,-0.40677 0.88144,-0.65196 0.9885,-0.54489 0.26765,0.26764 -0.79211,1.28445 -1.3387,1.28445 -0.24562,0 -0.0893,-0.33009 0.3502,-0.73956 z m 1.27539,-1.37292 c 0.11963,-0.19364 0.28747,-0.35208 0.37286,-0.35208 0.0854,0 0.15526,0.15844 0.15526,0.35208 0,0.19365 -0.16778,0.35208 -0.37286,0.35208 -0.20507,0 -0.27493,-0.15843 -0.15526,-0.35208 z m 0.8802,-0.70416 c 0,-0.19364 0.15843,-0.35207 0.35207,-0.35207 0.19366,0 0.35209,0.15843 0.35209,0.35207 0,0.19364 -0.15843,0.35208 -0.35209,0.35208 -0.19364,0 -0.35207,-0.15844 -0.35207,-0.35208 z m -11.9707,-0.90097 c 0,-0.3019 0.16102,-0.44939 0.35783,-0.32777 0.19679,0.12163 0.26667,0.36865 0.15525,0.54892 -0.30182,0.48833 -0.51308,0.39727 -0.51308,-0.22115 z m 12.8509,-0.15527 c 0.11963,-0.19364 0.28747,-0.35207 0.37286,-0.35207 0.0854,0 0.15525,0.15843 0.15525,0.35207 0,0.19365 -0.16779,0.35208 -0.37285,0.35208 -0.20507,0 -0.27494,-0.15843 -0.15526,-0.35208 z m -12.14673,-0.70416 c 0,-0.19364 0.15843,-0.35208 0.35207,-0.35208 0.19364,0 0.35208,0.15844 0.35208,0.35208 0,0.19364 -0.15844,0.35209 -0.35208,0.35209 -0.19364,0 -0.35207,-0.15845 -0.35207,-0.35209 z m 13.02693,0.16132 c 0,-0.10486 0.31687,-0.53088 0.70415,-0.94659 0.78335,-0.84081 0.94647,-0.44361 0.21406,0.52122 -0.45401,0.59808 -0.91821,0.81313 -0.91821,0.42537 z m -12.12816,-0.83541 c -0.11337,-0.18342 -0.056,-0.42623 0.12735,-0.5396 0.18342,-0.11337 0.42624,-0.056 0.5396,0.12735 0.11337,0.18342 0.056,0.42625 -0.12735,0.53961 -0.18342,0.11338 -0.42625,0.056 -0.53961,-0.12735 z m 0.86161,-1.0863 c 0,-0.19364 0.15844,-0.35209 0.35209,-0.35209 0.19365,0 0.35208,0.15845 0.35208,0.35209 0,0.19364 -0.15843,0.35208 -0.35208,0.35208 -0.19365,0 -0.35209,-0.15844 -0.35209,-0.35208 z m 13.02694,0.20546 c 0,-0.37117 1.06051,-1.37479 1.25121,-1.18409 0.0888,0.0888 -0.15641,0.44907 -0.54489,0.80064 -0.38847,0.35155 -0.70632,0.52412 -0.70632,0.38345 z m -12.14673,-0.90962 c -0.11963,-0.19364 0.0387,-0.35208 0.35207,-0.35208 0.31333,0 0.47176,0.15844 0.35209,0.35208 -0.11963,0.19364 -0.27812,0.35207 -0.35209,0.35207 -0.074,0 -0.23239,-0.15843 -0.35207,-0.35207 z m 0.8802,-0.90535 c 0,-0.37395 1.08817,-1.29255 1.29096,-1.08977 0.11058,0.11071 -0.044,0.44639 -0.34371,0.74608 -0.55905,0.55906 -0.94725,0.6999 -0.94725,0.34369 z m 13.2979,-0.50297 c 0.41571,-0.38729 0.86623,-0.70416 1.00116,-0.70416 0.13492,0 -0.0414,0.31687 -0.39193,0.70416 -0.35049,0.38729 -0.80101,0.70415 -1.00116,0.70415 -0.20014,0 -0.0238,-0.31686 0.39193,-0.70415 z m -11.53752,-1.25742 c 0,-0.37397 1.08819,-1.29256 1.29096,-1.08977 0.11072,0.11071 -0.044,0.44638 -0.34369,0.74606 -0.55906,0.55907 -0.94727,0.69992 -0.94727,0.34371 z m 12.85091,-0.1509 c 0.11963,-0.19364 0.28746,-0.35208 0.37286,-0.35208 0.0854,0 0.15526,0.15844 0.15526,0.35208 0,0.19364 -0.16779,0.35209 -0.37286,0.35209 -0.20508,0 -0.27494,-0.15845 -0.15526,-0.35209 z m 0.88019,-0.70415 c 0,-0.19364 0.16779,-0.35209 0.37286,-0.35209 0.20508,0 0.27495,0.15845 0.15527,0.35209 -0.11963,0.19364 -0.28747,0.35207 -0.37286,0.35207 -0.0854,0 -0.15527,-0.15843 -0.15527,-0.35207 z m -11.97069,-0.90535 c 0,-0.37395 1.08817,-1.29255 1.29096,-1.08977 0.11071,0.11071 -0.044,0.44638 -0.3437,0.74608 -0.55906,0.55905 -0.94726,0.6999 -0.94726,0.34369 z m 12.85089,-0.15089 c 0.11963,-0.19364 0.28747,-0.35209 0.37286,-0.35209 0.0854,0 0.15527,0.15845 0.15527,0.35209 0,0.19364 -0.16779,0.35207 -0.37286,0.35207 -0.20508,0 -0.27494,-0.15843 -0.15527,-0.35207 z m -11.24795,-1.37825 c -0.11338,-0.18343 -0.056,-0.42625 0.12734,-0.5396 0.18343,-0.11337 0.42625,-0.056 0.53961,0.12735 0.11338,0.18342 0.056,0.42625 -0.12734,0.53961 -0.18343,0.11337 -0.42625,0.056 -0.53961,-0.12735 z m 0.86161,-1.08632 c 0,-0.19364 0.15844,-0.35207 0.35209,-0.35207 0.19364,0 0.35207,0.15843 0.35207,0.35207 0,0.19365 -0.15843,0.35209 -0.35207,0.35209 -0.19365,0 -0.35209,-0.15844 -0.35209,-0.35209 z m 0.89879,-0.67408 c -0.11338,-0.18343 -0.056,-0.42624 0.12735,-0.5396 0.18342,-0.11338 0.42623,-0.056 0.53959,0.12735 0.11338,0.18342 0.056,0.42624 -0.12735,0.53961 -0.18342,0.11337 -0.42624,0.056 -0.53961,-0.12735 z m -11.98929,-1.0863 c 0.11963,-0.19365 0.28747,-0.35209 0.37286,-0.35209 0.0854,0 0.15527,0.15844 0.15527,0.35209 0,0.19364 -0.16779,0.35207 -0.37286,0.35207 -0.20508,0 -0.27495,-0.15843 -0.15527,-0.35207 z m 12.8509,0.15088 c 0,-0.37395 1.08817,-1.29254 1.29096,-1.08977 0.11058,0.11072 -0.044,0.44638 -0.34369,0.74608 -0.55907,0.55905 -0.94727,0.69991 -0.94727,0.34369 z m -11.9707,-0.85505 c 0,-0.19364 0.16779,-0.35207 0.37286,-0.35207 0.20508,0 0.27494,0.15843 0.15526,0.35207 -0.11963,0.19365 -0.28746,0.35208 -0.37287,0.35208 -0.0854,0 -0.15525,-0.15843 -0.15525,-0.35208 z m 0.8802,-1.05623 c 0.11963,-0.19365 0.28746,-0.35208 0.37286,-0.35208 0.0854,0 0.15526,0.15843 0.15526,0.35208 0,0.19364 -0.16779,0.35207 -0.37286,0.35207 -0.20508,0 -0.27494,-0.15843 -0.15526,-0.35207 z m 12.8509,0.15088 c 0,-0.37395 1.08818,-1.29254 1.29096,-1.08977 0.11071,0.11071 -0.044,0.4464 -0.34371,0.74608 -0.55905,0.55907 -0.94725,0.69991 -0.94725,0.34369 z m -11.9707,-0.85505 c 0,-0.19364 0.16778,-0.35207 0.37285,-0.35207 0.20507,0 0.27495,0.15843 0.15527,0.35207 -0.11963,0.19364 -0.28747,0.35209 -0.37286,0.35209 -0.0854,0 -0.15526,-0.15845 -0.15526,-0.35209 z m 2.13283,-2.26976 c 0.84855,-0.86108 1.60974,-1.49871 1.6915,-1.41695 0.18696,0.18697 -2.58729,2.98256 -2.9598,2.98256 -0.15101,0 0.41973,-0.70453 1.2683,-1.56561 z m 11.59826,1.36442 c 0,-0.37397 1.08819,-1.29256 1.29096,-1.08978 0.11071,0.11058 -0.044,0.44638 -0.34369,0.74607 -0.55907,0.55907 -0.94727,0.69992 -0.94727,0.34371 z m 1.60295,-1.52915 c -0.11337,-0.18342 -0.056,-0.42625 0.12735,-0.53961 0.18342,-0.11338 0.42625,-0.056 0.53961,0.12735 0.11337,0.18342 0.056,0.42625 -0.12735,0.5396 -0.18342,0.11337 -0.42625,0.056 -0.53959,-0.12735 z m 0.86161,-1.08631 c 0,-0.19365 0.15844,-0.35208 0.35208,-0.35208 0.19364,0 0.35207,0.15843 0.35207,0.35208 0,0.19364 -0.15843,0.35207 -0.35207,0.35207 -0.19364,0 -0.35208,-0.15843 -0.35208,-0.35207 z M 111.80042,111.585 c 0,-0.19364 0.16779,-0.35207 0.37286,-0.35207 0.20508,0 0.27495,0.15843 0.15527,0.35207 -0.11963,0.19365 -0.28747,0.35209 -0.37286,0.35209 -0.0854,0 -0.15527,-0.15844 -0.15527,-0.35209 z m 12.86949,0.0301 c -0.11337,-0.18342 -0.056,-0.42624 0.12735,-0.53961 0.18342,-0.11337 0.42625,-0.056 0.53961,0.12735 0.11337,0.18342 0.056,0.42625 -0.12735,0.5396 -0.18342,0.11337 -0.42625,0.056 -0.53961,-0.12735 z m -11.98929,-1.08621 c 0.11963,-0.19364 0.28747,-0.35207 0.37287,-0.35207 0.0854,0 0.15526,0.15843 0.15526,0.35207 0,0.19365 -0.16779,0.35209 -0.37286,0.35209 -0.20507,0 -0.27493,-0.15844 -0.15527,-0.35209 z m 12.8509,0.15091 c 0,-0.37397 1.08819,-1.29256 1.29096,-1.08978 0.11071,0.11058 -0.044,0.44639 -0.34369,0.74607 -0.55906,0.55907 -0.94727,0.69992 -0.94727,0.34371 z m -11.97069,-0.85506 c 0,-0.19364 0.16778,-0.35208 0.37286,-0.35208 0.20507,0 0.27493,0.15844 0.15526,0.35208 -0.11963,0.19365 -0.28747,0.35208 -0.37286,0.35208 -0.0854,0 -0.15526,-0.15843 -0.15526,-0.35208 z m 0.8802,-1.05623 c 0.11963,-0.19365 0.28747,-0.35209 0.37286,-0.35209 0.0854,0 0.15525,0.15844 0.15525,0.35209 0,0.19364 -0.16779,0.35207 -0.37285,0.35207 -0.20507,0 -0.27495,-0.15843 -0.15526,-0.35207 z m 0.8802,-0.70417 c 0,-0.19364 0.16778,-0.35207 0.37286,-0.35207 0.20507,0 0.27493,0.15843 0.15525,0.35207 -0.11963,0.19365 -0.28746,0.35208 -0.37286,0.35208 -0.0854,0 -0.15525,-0.15843 -0.15525,-0.35208 z m 1.23227,-1.40832 c 0.35049,-0.3873 0.80101,-0.70417 1.00116,-0.70417 0.20014,0 0.0238,0.31687 -0.39193,0.70417 -0.4157,0.38729 -0.86622,0.70415 -1.00116,0.70415 -0.13493,0 0.0414,-0.31686 0.39193,-0.70415 z m -11.61862,-1.40833 c 0.11963,-0.19365 0.28747,-0.35208 0.37286,-0.35208 0.0854,0 0.15527,0.15843 0.15527,0.35208 0,0.19364 -0.16779,0.35209 -0.37286,0.35209 -0.20508,0 -0.27495,-0.15845 -0.15527,-0.35209 z m 13.38097,-0.35424 c 0.35157,-0.38848 0.71185,-0.63367 0.80065,-0.54489 0.19069,0.1907 -0.81293,1.25122 -1.18411,1.25122 -0.14065,0 0.0319,-0.31786 0.38346,-0.70633 z m -12.50077,-0.13404 c 0,-0.13493 0.31687,-0.58545 0.70417,-1.00115 0.38728,-0.41571 0.70415,-0.59208 0.70415,-0.39193 0,0.20015 -0.31687,0.65066 -0.70415,1.00115 -0.3873,0.35049 -0.70417,0.52687 -0.70417,0.39193 z m 13.7311,-0.92004 c 0,-0.19365 0.16779,-0.35208 0.37286,-0.35208 0.20507,0 0.27494,0.15843 0.15525,0.35208 -0.11963,0.19364 -0.28745,0.35207 -0.37286,0.35207 -0.0854,0 -0.15525,-0.15843 -0.15525,-0.35207 z m -11.9707,-0.85079 c 0,-0.37116 1.0605,-1.3748 1.2512,-1.1841 0.0888,0.0888 -0.15641,0.44908 -0.54489,0.80065 -0.38847,0.35157 -0.70631,0.52412 -0.70631,0.38345 z m 12.67485,-0.20546 c 0,-0.19364 0.15845,-0.35208 0.35209,-0.35208 0.19364,0 0.35207,0.15844 0.35207,0.35208 0,0.19364 -0.15843,0.35208 -0.35207,0.35208 -0.19364,0 -0.35209,-0.15844 -0.35209,-0.35208 z m 1.05624,-0.70417 c 0,-0.19364 0.16779,-0.35207 0.37286,-0.35207 0.20507,0 0.27495,0.15843 0.15526,0.35207 -0.11962,0.19365 -0.28747,0.35209 -0.37286,0.35209 -0.0854,0 -0.15526,-0.15844 -0.15526,-0.35209 z m -12.14673,-1.05624 c 0.11962,-0.19364 0.28746,-0.35208 0.37286,-0.35208 0.0854,0 0.15526,0.15844 0.15526,0.35208 0,0.19364 -0.16779,0.35209 -0.37286,0.35209 -0.20507,0 -0.27495,-0.15845 -0.15526,-0.35209 z m 12.85089,0 c 0,-0.19364 0.15843,-0.35208 0.35208,-0.35208 0.19365,0 0.35209,0.15844 0.35209,0.35208 0,0.19364 -0.15844,0.35209 -0.35209,0.35209 -0.19365,0 -0.35208,-0.15845 -0.35208,-0.35209 z m -11.97069,-0.70415 c 0,-0.19365 0.16778,-0.352092 0.37286,-0.352092 0.20507,0 0.27493,0.158442 0.15525,0.352092 -0.11963,0.19364 -0.28746,0.35207 -0.37286,0.35207 -0.0854,0 -0.15525,-0.15843 -0.15525,-0.35207 z m 13.02693,0 c 0,-0.19365 0.16779,-0.352092 0.37286,-0.352092 0.20507,0 0.27494,0.158442 0.15527,0.352092 -0.11963,0.19364 -0.28747,0.35207 -0.37286,0.35207 -0.0854,0 -0.15527,-0.15843 -0.15527,-0.35207 z m -12.14673,-1.056242 c 0.11963,-0.193643 0.28745,-0.352089 0.37286,-0.352089 0.0854,0 0.15525,0.158446 0.15525,0.352089 0,0.193642 -0.16779,0.352075 -0.37286,0.352075 -0.20507,0 -0.27494,-0.158433 -0.15525,-0.352075 z m 12.85089,0.150887 c 0,-0.372648 1.00207,-1.207126 1.44955,-1.207126 0.2527,0 0.1183,0.303039 -0.3122,0.70415 -0.76053,0.708555 -1.13735,0.875184 -1.13735,0.502976 z m -11.97071,-0.855051 c 0,-0.193642 0.16779,-0.352075 0.37286,-0.352075 0.20508,0 0.27495,0.158433 0.15527,0.352075 -0.11963,0.193643 -0.28747,0.352075 -0.37286,0.352075 -0.0854,0 -0.15527,-0.158432 -0.15527,-0.352075 z m 0.8802,-1.056238 c 0.11963,-0.193643 0.28747,-0.352075 0.37287,-0.352075 0.0854,0 0.15526,0.158432 0.15526,0.352075 0,0.193643 -0.16779,0.352075 -0.37286,0.352075 -0.20507,0 -0.27493,-0.158432 -0.15527,-0.352075 z m 12.8509,0.150887 c 0,-0.373951 1.08819,-1.292542 1.29096,-1.089771 0.11071,0.110713 -0.044,0.446394 -0.34369,0.74608 -0.55906,0.559064 -0.94727,0.699905 -0.94727,0.343691 z m -11.97069,-0.85505 c 0,-0.193643 0.16778,-0.352075 0.37286,-0.352075 0.20507,0 0.27493,0.158432 0.15526,0.352075 -0.11963,0.193642 -0.28747,0.352088 -0.37286,0.352088 -0.0854,0 -0.15526,-0.158446 -0.15526,-0.352088 z m 1.69348,-1.799591 c 0.64095,-0.600702 1.2352,-1.022345 1.32055,-0.936995 0.18506,0.185047 -1.83413,2.033154 -2.2188,2.030799 -0.14691,-0.0011 0.2573,-0.493102 0.89825,-1.093804 z m -10.31943,-1.721199 c 0.11963,-0.193643 0.28747,-0.352075 0.37286,-0.352075 0.0854,0 0.15527,0.158432 0.15527,0.352075 0,0.193642 -0.16779,0.352075 -0.37286,0.352075 -0.20508,0 -0.27495,-0.158433 -0.15527,-0.352075 z m 11.9707,0 c 0.11963,-0.193643 0.28747,-0.352075 0.37286,-0.352075 0.0854,0 0.15526,0.158432 0.15526,0.352075 0,0.193642 -0.16778,0.352075 -0.37286,0.352075 -0.20507,0 -0.27493,-0.158433 -0.15526,-0.352075 z M 105.81508,92.5728 c 0,-0.19364 0.16779,-0.352075 0.37286,-0.352075 0.20508,0 0.27494,0.158435 0.15526,0.352075 -0.11963,0.193642 -0.28746,0.352088 -0.37287,0.352088 -0.0854,0 -0.15525,-0.158446 -0.15525,-0.352088 z m 11.9707,0 c 0,-0.19364 0.16779,-0.352075 0.37286,-0.352075 0.20507,0 0.27493,0.158435 0.15526,0.352075 -0.11962,0.193642 -0.28747,0.352088 -0.37286,0.352088 -0.0854,0 -0.15526,-0.158446 -0.15526,-0.352088 z m -11.0905,-1.056235 c 0.11963,-0.193644 0.28746,-0.352079 0.37286,-0.352079 0.0854,0 0.15526,0.158435 0.15526,0.352079 0,0.193644 -0.16779,0.352079 -0.37286,0.352079 -0.20508,0 -0.27494,-0.158435 -0.15526,-0.352079 z m 11.9707,0 c 0.11963,-0.193644 0.28747,-0.352079 0.37286,-0.352079 0.0854,0 0.15525,0.158435 0.15525,0.352079 0,0.193644 -0.16779,0.352079 -0.37285,0.352079 -0.20507,0 -0.27494,-0.158435 -0.15526,-0.352079 z m -11.0905,-0.704159 c 0,-0.193644 0.16778,-0.352079 0.37285,-0.352079 0.20507,0 0.27495,0.158435 0.15527,0.352079 -0.11963,0.193644 -0.28747,0.35208 -0.37286,0.35208 -0.0854,0 -0.15526,-0.158436 -0.15526,-0.35208 z m 11.9707,0 c 0,-0.193644 0.16779,-0.352079 0.37286,-0.352079 0.20507,0 0.27494,0.158435 0.15525,0.352079 -0.11963,0.193644 -0.28745,0.35208 -0.37286,0.35208 -0.0854,0 -0.15525,-0.158436 -0.15525,-0.35208 z m -10.73842,-1.408317 c 0.35049,-0.387288 0.801,-0.70416 1.00115,-0.70416 0.20015,0 0.0238,0.316872 -0.39193,0.70416 -0.4157,0.387288 -0.86622,0.704159 -1.00115,0.704159 -0.13493,0 0.0414,-0.316871 0.39193,-0.704159 z m 11.61862,0.352079 c 0.11963,-0.193644 0.28746,-0.352079 0.37286,-0.352079 0.0854,0 0.15525,0.158435 0.15525,0.352079 0,0.193644 -0.16778,0.35208 -0.37286,0.35208 -0.20507,0 -0.27493,-0.158436 -0.15525,-0.35208 z m 0.88019,-0.704158 c 0,-0.193644 0.16779,-0.352081 0.37286,-0.352081 0.20507,0 0.27495,0.158437 0.15526,0.352081 -0.11962,0.193644 -0.28747,0.352079 -0.37286,0.352079 -0.0854,0 -0.15526,-0.158435 -0.15526,-0.352079 z M 110.5701,87.641503 c 0.35157,-0.388474 0.71186,-0.633673 0.80064,-0.544885 0.1907,0.190694 -0.81292,1.251202 -1.18409,1.251202 -0.14067,0 0.0319,-0.317842 0.38345,-0.706317 z m 12.8693,-0.859281 c 0.84856,-0.861078 1.60975,-1.498703 1.6915,-1.416947 0.18697,0.186972 -2.58728,2.982545 -2.95979,2.982545 -0.15101,0 0.41972,-0.704518 1.26829,-1.565598 z m -11.63898,-0.194799 c 0,-0.193643 0.16779,-0.352079 0.37286,-0.352079 0.20508,0 0.27495,0.158436 0.15527,0.352079 -0.11963,0.193644 -0.28747,0.35208 -0.37286,0.35208 -0.0854,0 -0.15527,-0.158436 -0.15527,-0.35208 z m 0.8802,-1.056238 c 0.11963,-0.193644 0.28747,-0.352079 0.37287,-0.352079 0.0854,0 0.15526,0.158435 0.15526,0.352079 0,0.193644 -0.16779,0.35208 -0.37286,0.35208 -0.20507,0 -0.27493,-0.158436 -0.15527,-0.35208 z m 0.88021,-0.704158 c 0,-0.193644 0.16778,-0.352081 0.37286,-0.352081 0.20507,0 0.27493,0.158437 0.15526,0.352081 -0.11963,0.193642 -0.28747,0.352079 -0.37286,0.352079 -0.0854,0 -0.15526,-0.158437 -0.15526,-0.352079 z m 11.97069,0 c 0,-0.193644 0.16779,-0.352081 0.37286,-0.352081 0.20508,0 0.27495,0.158437 0.15527,0.352081 -0.11963,0.193642 -0.28747,0.352079 -0.37286,0.352079 -0.0854,0 -0.15527,-0.158437 -0.15527,-0.352079 z m -11.09049,-1.056239 c 0.11963,-0.193644 0.28747,-0.35208 0.37286,-0.35208 0.0854,0 0.15525,0.158436 0.15525,0.35208 0,0.193644 -0.16779,0.352079 -0.37285,0.352079 -0.20507,0 -0.27495,-0.158435 -0.15526,-0.352079 z m 11.97069,0 c 0.11963,-0.193644 0.28747,-0.35208 0.37286,-0.35208 0.0854,0 0.15527,0.158436 0.15527,0.35208 0,0.193644 -0.16779,0.352079 -0.37286,0.352079 -0.20508,0 -0.27494,-0.158435 -0.15527,-0.352079 z m -11.09049,-0.704159 c 0,-0.193644 0.16778,-0.352079 0.37286,-0.352079 0.20507,0 0.27493,0.158435 0.15525,0.352079 -0.11963,0.193644 -0.28746,0.352079 -0.37286,0.352079 -0.0854,0 -0.15525,-0.158435 -0.15525,-0.352079 z m -10.38635,-1.056238 c 0.11963,-0.193644 0.28747,-0.352079 0.37286,-0.352079 0.0854,0 0.15527,0.158435 0.15527,0.352079 0,0.193644 -0.16779,0.352079 -0.37286,0.352079 -0.20508,0 -0.27495,-0.158435 -0.15527,-0.352079 z m 11.61862,-0.352079 c 0.35049,-0.387288 0.80101,-0.70416 1.00116,-0.70416 0.20014,0 0.0238,0.316872 -0.39193,0.70416 -0.4157,0.387286 -0.86622,0.704158 -1.00116,0.704158 -0.13493,0 0.0414,-0.316872 0.39193,-0.704158 z m -10.73842,-0.352081 c 0,-0.193642 0.16779,-0.352079 0.37286,-0.352079 0.20508,0 0.27494,0.158437 0.15526,0.352079 -0.11963,0.193644 -0.28746,0.352081 -0.37287,0.352081 -0.0854,0 -0.15525,-0.158437 -0.15525,-0.352081 z m 0.8802,-1.056238 c 0.11963,-0.193644 0.28746,-0.352079 0.37286,-0.352079 0.0854,0 0.15526,0.158435 0.15526,0.352079 0,0.193644 -0.16779,0.352081 -0.37286,0.352081 -0.20508,0 -0.27494,-0.158437 -0.15526,-0.352081 z m 11.52429,-0.352079 c 0.41278,-0.660977 0.97452,-0.950899 0.97452,-0.50297 0,0.262933 -0.94652,1.20713 -1.2101,1.20713 -0.11231,0 -0.007,-0.316872 0.23558,-0.70416 z m -10.64246,-0.09107 c -0.003,-0.384668 1.84575,-2.403862 2.0308,-2.218813 0.0853,0.08535 -0.3363,0.679606 -0.937,1.320556 -0.6007,0.64095 -1.09291,1.045165 -1.0938,0.898257 z m 11.96907,-0.96517 c 0,-0.193644 0.16779,-0.352079 0.37286,-0.352079 0.20507,0 0.27494,0.158435 0.15525,0.352079 -0.11963,0.193644 -0.28745,0.352079 -0.37286,0.352079 -0.0854,0 -0.15525,-0.158435 -0.15525,-0.352079 z m 0.70415,-1.056238 c 0,-0.193644 0.15845,-0.352079 0.35209,-0.352079 0.19364,0 0.35207,0.158435 0.35207,0.352079 0,0.193644 -0.15843,0.352079 -0.35207,0.352079 -0.19364,0 -0.35209,-0.158435 -0.35209,-0.352079 z m -10.21029,-0.70416 c 0,-0.193644 0.16778,-0.352079 0.37286,-0.352079 0.20507,0 0.27493,0.158435 0.15525,0.352079 -0.11963,0.193644 -0.28746,0.352081 -0.37286,0.352081 -0.0854,0 -0.15525,-0.158437 -0.15525,-0.352081 z m 11.26653,0 c 0,-0.193644 0.16779,-0.352079 0.37286,-0.352079 0.20507,0 0.27495,0.158435 0.15526,0.352079 -0.11962,0.193644 -0.28747,0.352081 -0.37286,0.352081 -0.0854,0 -0.15526,-0.158437 -0.15526,-0.352081 z m -10.38633,-1.056238 c 0.11963,-0.193642 0.28745,-0.352079 0.37286,-0.352079 0.0854,0 0.15525,0.158437 0.15525,0.352079 0,0.193644 -0.16779,0.35208 -0.37286,0.35208 -0.20507,0 -0.27494,-0.158436 -0.15525,-0.35208 z m 11.09049,0 c 0,-0.193642 0.15843,-0.352079 0.35208,-0.352079 0.19365,0 0.35209,0.158437 0.35209,0.352079 0,0.193644 -0.15844,0.35208 -0.35209,0.35208 -0.19365,0 -0.35208,-0.158436 -0.35208,-0.35208 z M 111.80042,75.32088 c 0,-0.193644 0.16779,-0.35208 0.37286,-0.35208 0.20508,0 0.27495,0.158436 0.15527,0.35208 -0.11963,0.193644 -0.28747,0.352079 -0.37286,0.352079 -0.0854,0 -0.15527,-0.158435 -0.15527,-0.352079 z m 11.26655,0 c 0,-0.193644 0.16779,-0.35208 0.37286,-0.35208 0.20507,0 0.27494,0.158436 0.15527,0.35208 -0.11963,0.193644 -0.28747,0.352079 -0.37286,0.352079 -0.0854,0 -0.15527,-0.158435 -0.15527,-0.352079 z m -10.38635,-1.05624 c 0.11963,-0.193644 0.28747,-0.35208 0.37287,-0.35208 0.0854,0 0.15526,0.158436 0.15526,0.35208 0,0.193642 -0.16779,0.352079 -0.37286,0.352079 -0.20507,0 -0.27493,-0.158437 -0.15527,-0.352079 z m 11.09051,0.15089 c 0,-0.372648 1.00207,-1.207128 1.44955,-1.207128 0.2527,0 0.1183,0.303044 -0.3122,0.704158 -0.76053,0.708549 -1.13735,0.875185 -1.13735,0.50297 z m -10.2103,-0.855049 c 0,-0.193644 0.16778,-0.352079 0.37286,-0.352079 0.20507,0 0.27493,0.158435 0.15526,0.352079 -0.11963,0.193643 -0.28747,0.352079 -0.37286,0.352079 -0.0854,0 -0.15526,-0.158436 -0.15526,-0.352079 z m 0.8802,-1.056239 c 0.11963,-0.193644 0.28747,-0.352079 0.37286,-0.352079 0.0854,0 0.15525,0.158435 0.15525,0.352079 0,0.193644 -0.16779,0.352079 -0.37285,0.352079 -0.20507,0 -0.27495,-0.158435 -0.15526,-0.352079 z m 11.09049,0.15089 c 0,-0.373953 1.08819,-1.292547 1.29096,-1.089769 0.11071,0.110661 -0.044,0.446387 -0.34369,0.746074 -0.55906,0.559059 -0.94727,0.699913 -0.94727,0.343695 z m -10.21029,-0.855049 c 0,-0.193644 0.16778,-0.352079 0.37286,-0.352079 0.20507,0 0.27493,0.158435 0.15525,0.352079 -0.11963,0.193644 -0.28746,0.35208 -0.37286,0.35208 -0.0854,0 -0.15525,-0.158436 -0.15525,-0.35208 z m -9.50615,-0.900978 c 0,-0.301893 0.16102,-0.44938 0.35783,-0.32775 0.19679,0.121625 0.26667,0.368634 0.15525,0.548898 -0.30182,0.488348 -0.51308,0.39729 -0.51308,-0.221148 z m 10.74038,-0.509498 c 0.35157,-0.388473 0.71185,-0.633672 0.80064,-0.544884 0.19069,0.190692 -0.81294,1.251202 -1.18409,1.251202 -0.14067,0 0.0319,-0.317844 0.38345,-0.706318 z m -10.03621,-0.34992 c 0,-0.193644 0.15843,-0.352081 0.35207,-0.352081 0.19364,0 0.35208,0.158437 0.35208,0.352081 0,0.193644 -0.15844,0.352079 -0.35208,0.352079 -0.19364,0 -0.35207,-0.158435 -0.35207,-0.352079 z m 0.89877,-0.674089 c -0.11337,-0.183422 -0.056,-0.426245 0.12735,-0.539604 0.18342,-0.113362 0.42624,-0.05604 0.5396,0.127387 0.11337,0.183423 0.056,0.426244 -0.12735,0.539603 -0.18342,0.113362 -0.42625,0.05604 -0.53961,-0.127387 z m 10.36776,-0.03007 c 0,-0.193644 0.16779,-0.352079 0.37286,-0.352079 0.20507,0 0.27493,0.158435 0.15526,0.352079 -0.11962,0.193644 -0.28747,0.352079 -0.37286,0.352079 -0.0854,0 -0.15526,-0.158435 -0.15526,-0.352079 z m -9.50615,-1.056239 c 0,-0.193643 0.15844,-0.352079 0.35209,-0.352079 0.19365,0 0.35208,0.158436 0.35208,0.352079 0,0.193644 -0.15843,0.352079 -0.35208,0.352079 -0.19365,0 -0.35209,-0.158435 -0.35209,-0.352079 z m 10.38635,0 c 0.11963,-0.193643 0.28747,-0.352079 0.37286,-0.352079 0.0854,0 0.15525,0.158436 0.15525,0.352079 0,0.193644 -0.16779,0.352079 -0.37285,0.352079 -0.20507,0 -0.27494,-0.158435 -0.15526,-0.352079 z m -9.50614,-0.704159 c -0.11963,-0.193644 0.0387,-0.352079 0.35207,-0.352079 0.31333,0 0.47176,0.158435 0.35209,0.352079 -0.11963,0.193644 -0.27812,0.35208 -0.35209,0.35208 -0.074,0 -0.23239,-0.158436 -0.35207,-0.35208 z m 10.38634,0 c 0,-0.193644 0.16779,-0.352079 0.37286,-0.352079 0.20507,0 0.27494,0.158435 0.15525,0.352079 -0.11963,0.193644 -0.28745,0.35208 -0.37286,0.35208 -0.0854,0 -0.15525,-0.158436 -0.15525,-0.35208 z m -9.50614,-0.905347 c 0,-0.373954 1.08817,-1.292547 1.29096,-1.08977 0.11058,0.11066 -0.044,0.446388 -0.34371,0.746073 -0.55905,0.559061 -0.94725,0.699913 -0.94725,0.343697 z m 10.38634,-0.150891 c 0.11963,-0.193644 0.28746,-0.352079 0.37286,-0.352079 0.0854,0 0.15525,0.158435 0.15525,0.352079 0,0.193644 -0.16778,0.35208 -0.37286,0.35208 -0.20507,0 -0.27493,-0.158436 -0.15525,-0.35208 z m 0.88019,-0.704158 c 0,-0.193644 0.16779,-0.35208 0.37286,-0.35208 0.20507,0 0.27495,0.158436 0.15526,0.35208 -0.11962,0.193642 -0.28747,0.352079 -0.37286,0.352079 -0.0854,0 -0.15526,-0.158437 -0.15526,-0.352079 z m -9.50615,-0.905348 c 0,-0.373955 1.08819,-1.292547 1.29096,-1.089771 0.11072,0.110661 -0.044,0.446388 -0.34369,0.746075 -0.55906,0.559059 -0.94727,0.699912 -0.94727,0.343696 z m 10.38635,-0.15089 c 0.11963,-0.193644 0.28747,-0.352081 0.37286,-0.352081 0.0854,0 0.15527,0.158437 0.15527,0.352081 0,0.193644 -0.16779,0.352079 -0.37287,0.352079 -0.20507,0 -0.27493,-0.158435 -0.15526,-0.352079 z m 0.8802,-0.70416 c 0,-0.193644 0.16779,-0.352079 0.37286,-0.352079 0.20507,0 0.27494,0.158435 0.15527,0.352079 -0.11963,0.193644 -0.28747,0.352079 -0.37286,0.352079 -0.0854,0 -0.15527,-0.158435 -0.15527,-0.352079 z m -9.50614,-0.900978 c 0,-0.301894 0.16102,-0.449381 0.35782,-0.327751 0.1968,0.121625 0.26667,0.368634 0.15526,0.548899 -0.30181,0.488349 -0.51308,0.397291 -0.51308,-0.221148 z m 10.74037,-0.509497 c 0.35157,-0.388475 0.71186,-0.633673 0.80064,-0.544886 0.1907,0.190694 -0.81293,1.251202 -1.18409,1.251202 -0.14067,0 0.0319,-0.317843 0.38345,-0.706316 z m -10.03621,-0.349922 c 0,-0.193644 0.15843,-0.352079 0.35207,-0.352079 0.19365,0 0.35208,0.158435 0.35208,0.352079 0,0.193644 -0.15843,0.35208 -0.35208,0.35208 -0.19364,0 -0.35207,-0.158436 -0.35207,-0.35208 z m -8.44991,-0.704158 c 0,-0.193644 0.16779,-0.352081 0.37286,-0.352081 0.20508,0 0.27494,0.158437 0.15526,0.352081 -0.11963,0.193642 -0.28746,0.352079 -0.37287,0.352079 -0.0854,0 -0.15525,-0.158437 -0.15525,-0.352079 z m 9.34869,0.03007 c -0.11338,-0.183422 -0.056,-0.426245 0.12734,-0.539604 0.18343,-0.113362 0.42625,-0.05603 0.53961,0.127387 0.11338,0.183423 0.056,0.426244 -0.12734,0.539603 -0.18343,0.113362 -0.42625,0.05604 -0.53961,-0.127386 z m 10.36775,-0.03007 c 0,-0.193644 0.16779,-0.352081 0.37286,-0.352081 0.20508,0 0.27495,0.158437 0.15527,0.352081 -0.11963,0.193642 -0.28747,0.352079 -0.37286,0.352079 -0.0854,0 -0.15527,-0.158437 -0.15527,-0.352079 z m -19.01227,-1.056239 c 0,-0.193643 0.15843,-0.35208 0.35207,-0.35208 0.19364,0 0.35208,0.158437 0.35208,0.35208 0,0.193643 -0.15844,0.352079 -0.35208,0.352079 -0.19364,0 -0.35207,-0.158436 -0.35207,-0.352079 z m 9.50613,0 c 0,-0.193643 0.15844,-0.35208 0.35209,-0.35208 0.19364,0 0.35207,0.158437 0.35207,0.35208 0,0.193643 -0.15843,0.352079 -0.35207,0.352079 -0.19365,0 -0.35209,-0.158436 -0.35209,-0.352079 z m 10.38634,0 c 0.11963,-0.193643 0.28747,-0.35208 0.37286,-0.35208 0.0854,0 0.15527,0.158437 0.15527,0.35208 0,0.193643 -0.16779,0.352079 -0.37286,0.352079 -0.20508,0 -0.27494,-0.158436 -0.15527,-0.352079 z M 107.57548,59.82938 c 0,-0.193644 0.16778,-0.352079 0.37285,-0.352079 0.20507,0 0.27495,0.158435 0.15527,0.352079 -0.11963,0.193644 -0.28747,0.352079 -0.37286,0.352079 -0.0854,0 -0.15526,-0.158435 -0.15526,-0.352079 z m 9.3301,0 c -0.11963,-0.193644 0.0387,-0.352079 0.35209,-0.352079 0.31331,0 0.47175,0.158435 0.35207,0.352079 -0.11963,0.193644 -0.27811,0.352079 -0.35207,0.352079 -0.074,0 -0.23241,-0.158435 -0.35209,-0.352079 z m -8.62595,-1.056238 c 0,-0.193644 0.15844,-0.352079 0.35209,-0.352079 0.19365,0 0.35208,0.158435 0.35208,0.352079 0,0.193644 -0.15843,0.352079 -0.35208,0.352079 -0.19365,0 -0.35209,-0.158435 -0.35209,-0.352079 z m 9.50615,0.15089 c 0,-0.373953 1.08817,-1.292547 1.29096,-1.089769 0.11058,0.110647 -0.044,0.446386 -0.34369,0.746073 -0.55907,0.559059 -0.94727,0.699913 -0.94727,0.343696 z m -8.62594,-0.855049 c -0.11963,-0.193644 0.0387,-0.352079 0.35207,-0.352079 0.31333,0 0.47176,0.158435 0.35209,0.352079 -0.11963,0.193644 -0.27812,0.35208 -0.35209,0.35208 -0.074,0 -0.23239,-0.158436 -0.35207,-0.35208 z m 0.8802,-0.905347 c 0,-0.373955 1.08817,-1.292547 1.29096,-1.089771 0.11058,0.110661 -0.044,0.446388 -0.34371,0.746074 -0.55905,0.55906 -0.94725,0.699913 -0.94725,0.343697 z m 9.50614,0 c 0,-0.373955 1.08818,-1.292547 1.29096,-1.089771 0.11071,0.110661 -0.044,0.446388 -0.34371,0.746074 -0.55905,0.55906 -0.94725,0.699913 -0.94725,0.343697 z M 53.003176,157.8841 V 132.71042 H 41.208516 29.413855 v 25.17368 25.17368 h 11.794661 11.79466 z m 24.997637,12.49882 v -12.67486 h -11.79466 -11.79466 v 12.67486 12.67486 h 11.79466 11.79466 z M 152.64164,157.8841 v -25.17368 h -11.79466 -11.79466 l -0.004,0.79219 c -0.005,1.08712 -0.005,48.56638 -3.4e-4,49.11507 0.003,0.34325 2.59957,0.4401 11.79853,0.4401 h 11.79466 z m 26.75803,-11.61862 v -36.79232 h -12.67486 -12.67485 v 36.79232 36.7923 h 12.67485 12.67486 z m -54.30824,-92.402617 2.55257,-0.0183 V 42.930107 32.015645 h -11.79466 -11.79466 v 10.903942 10.903944 l 4.48902,0.09854 c 2.46895,0.0542 6.62789,0.06716 9.24208,0.0288 2.61419,-0.03835 5.90173,-0.07795 7.30565,-0.08803 z M 61.345578,150.7721 c -0.914499,-0.23705 -0.532588,-0.96614 0.574755,-1.09723 0.911396,-0.10791 0.941066,-0.1831 0.941066,-2.38534 0,-2.24492 -0.01348,-2.27662 -1.056238,-2.48518 -1.254868,-0.25097 -1.357925,-0.71437 -0.26406,-1.18734 0.435698,-0.18839 1.069441,-0.54014 1.408317,-0.78166 0.457007,-0.32573 0.775273,-0.33904 1.232279,-0.0516 0.499308,0.31408 0.635278,0.99384 0.717076,3.58487 0.09984,3.16229 0.111113,3.19851 1.029087,3.30747 1.191069,0.14136 1.427953,0.83623 0.38071,1.11676 -0.907845,0.24319 -3.994542,0.23027 -4.962992,-0.0208 z M 33.112513,124.61554 c -0.213731,-0.34582 0.06129,-0.65432 2.947785,-3.30673 1.010961,-0.92898 1.453934,-1.60625 1.381685,-2.11248 -0.148848,-1.04296 -1.604773,-1.20053 -2.273331,-0.24602 -0.683611,0.97598 -1.881923,0.97435 -1.881923,-0.003 0,-1.92413 3.752851,-2.86006 5.167441,-1.28871 0.392234,0.43569 0.827078,0.99311 0.966318,1.23869 0.316955,0.55904 -0.916726,2.59337 -2.256194,3.72046 l -1.012491,0.85195 1.413176,0.18956 c 1.590224,0.21328 1.880337,0.38776 1.545537,0.92947 -0.294523,0.47655 -5.705077,0.50034 -5.998003,0.0263 z m 103.159267,0 c -0.22578,-0.3653 0.41314,-1.0706 2.93768,-3.24287 1.11147,-0.95641 1.48432,-1.51893 1.40015,-2.11248 -0.15655,-1.10409 -1.58914,-1.29864 -2.2817,-0.30988 -0.68361,0.97598 -1.88192,0.97435 -1.88192,-0.003 0,-1.92413 3.75285,-2.86006 5.16745,-1.28873 0.39222,0.43571 0.82241,0.98558 0.95595,1.22195 0.34825,0.61638 -0.60826,2.28455 -2.02133,3.52525 l -1.21509,1.06686 1.40222,0.18808 c 1.57935,0.21183 1.86896,0.38698 1.53458,0.92801 -0.29452,0.47655 -5.70507,0.50034 -5.99799,0.0263 z m 24.5381,-22.60649 c -0.80206,-0.80207 -0.50606,-1.44091 0.54573,-1.17781 2.10523,0.52664 3.18254,0.59685 3.41391,0.22248 0.45169,-0.73083 -0.17089,-1.705629 -1.22384,-1.916212 -1.41893,-0.283797 -1.41081,-1.283015 0.0106,-1.283015 0.93888,0 1.05623,-0.117367 1.05623,-1.056238 0,-0.938871 -0.11736,-1.056238 -1.05623,-1.056238 -0.58093,0 -1.05624,0.158445 -1.05624,0.352088 0,0.427658 -1.29258,0.472077 -1.5514,0.05336 -0.40958,-0.662699 1.22385,-1.813709 2.57388,-1.813709 2.43748,0 4.1788,2.403632 2.76532,3.817122 -0.31329,0.313298 -0.32675,0.507819 -0.0475,0.686545 0.80942,0.518012 0.86011,1.709037 0.11311,2.658637 -0.65579,0.83373 -0.97448,0.93554 -2.92843,0.93554 -1.23587,0 -2.37689,-0.18436 -2.61504,-0.4225 z M 84.568856,46.863277 c -0.32048,-0.354124 -0.58269,-0.829431 -0.58269,-1.056238 0,-0.502444 1.280957,-0.551195 1.584357,-0.06029 0.11968,0.193643 0.76277,0.352079 1.42909,0.352079 1.1787,0 1.2115,-0.03814 1.2115,-1.408317 0,-1.188539 -0.11351,-1.408319 -0.7273,-1.408319 -0.40002,0 -1.06083,0.178496 -1.46847,0.396657 -1.014477,0.542934 -1.677097,-0.400561 -1.677097,-2.387999 0,-1.783679 0.58461,-2.233611 2.902227,-2.233611 1.66287,0 3.352487,0.847712 2.37896,1.193565 -0.29047,0.103195 -1.08265,0.233332 -1.7604,0.289205 -1.66596,0.137341 -1.69297,1.113852 -0.0352,1.272094 2.42608,0.23158 3.455707,3.483649 1.57206,4.96533 -1.22406,0.962842 -3.9889,1.012018 -4.827057,0.08586 z M 112.42143,23.575898 c -1.2145,-0.955326 -1.7664,-3.231569 -1.14445,-4.720114 0.76662,-1.834773 2.54941,-3.087018 4.21943,-2.963761 1.61002,0.118831 2.01655,1.089399 0.52897,1.262909 -1.08162,0.126163 -2.46455,0.793403 -2.46455,1.189108 0,0.160922 0.48952,0.292585 1.08782,0.292585 1.40205,0 2.40577,1.178672 2.42126,2.843283 0.0226,2.423707 -2.6817,3.643053 -4.64848,2.09599 z m 2.68577,-1.270417 c 0.35354,-0.921284 -0.15399,-2.260539 -0.85666,-2.260539 -0.74306,0 -1.19006,1.090682 -0.86575,2.112476 0.26596,0.838001 1.41961,0.937169 1.72241,0.148063 z M 22.372267,11.595032 c 0,-0.233688 26.934075,-0.352079 80.098063,-0.352079 53.16399,0 80.09806,0.118391 80.09806,0.352079 0,0.233688 -26.93407,0.35208 -80.09806,0.35208 -53.163988,0 -80.098063,-0.118392 -80.098063,-0.35208 z"
       style="fill:#000000;stroke-width:1" />
  </g>
</svg>
